/* XPM */
static char *result[] = {
/* columns rows colors chars-per-pixel */
"50 50 106 2 ",
"   c #EB1A1E",
".  c #EB1B1F",
"X  c #EB1B20",
"o  c #EB1C20",
"O  c #EB1D21",
"+  c #EB1E22",
"@  c #EA1F23",
"#  c #EB1F23",
"$  c #EC1E23",
"%  c #ED1E23",
"&  c #DE2A23",
"*  c #DB2C23",
"=  c #D33324",
"-  c #D53124",
";  c #D63124",
":  c #E62323",
">  c #E92123",
",  c #EA2023",
"<  c #EB2024",
"1  c #EB2124",
"2  c #EB2226",
"3  c #E02823",
"4  c #EC2528",
"5  c #EC2529",
"6  c #EC272B",
"7  c #EC282C",
"8  c #EC2B2F",
"9  c #EC2C2F",
"0  c #EC2D31",
"q  c #EC2E31",
"w  c #EC2F32",
"e  c #ED3135",
"r  c #ED383B",
"t  c #ED393C",
"y  c #9F5E25",
"u  c #9E5F25",
"i  c #BA4724",
"p  c #BD4524",
"a  c #B14F25",
"s  c #B44D24",
"d  c #B84924",
"f  c #A25B25",
"g  c #A45A25",
"h  c #A05D25",
"j  c #9D6025",
"k  c #EE3C40",
"l  c #EE3D41",
"z  c #EE4043",
"x  c #EE4246",
"c  c #EE4346",
"v  c #EE464A",
"b  c #EF474A",
"n  c #EF4A4D",
"m  c #EF4B4E",
"M  c #EF4C4F",
"N  c #F05255",
"B  c #F05659",
"V  c #F0585B",
"C  c #F05C5F",
"Z  c #F16264",
"A  c #F16366",
"S  c #F26A6D",
"D  c #F26B6D",
"F  c #F37376",
"G  c #F37779",
"H  c #F3797B",
"J  c #F37A7C",
"K  c #F58F91",
"L  c #F69D9E",
"P  c #F7A2A3",
"I  c #F7A2A4",
"U  c #F7A4A5",
"Y  c #F7A9AA",
"T  c #F7A9AB",
"R  c #F7AAAB",
"E  c #F7ABAC",
"W  c #F7ABAD",
"Q  c #F8ADAE",
"!  c #F8B0B1",
"~  c #F8B2B3",
"^  c #F8B3B4",
"/  c #F9B6B7",
"(  c #F9BBBC",
")  c #FAC2C3",
"_  c #FAC3C4",
"`  c #FAC9CA",
"'  c #FACACB",
"]  c #FBD7D8",
"[  c #FCD9D9",
"{  c #FCDBDB",
"}  c #FCDBDC",
"|  c #FDEBEC",
" . c #FDECEC",
".. c #FDEEEE",
"X. c #FEEFEF",
"o. c #FEF0F0",
"O. c #FEF1F1",
"+. c #FEF2F2",
"@. c #FEF3F3",
"#. c #FEF7F7",
"$. c #FFF9FA",
"%. c snow",
"&. c #FFFBFB",
"*. c #FFFEFE",
"=. c white",
"-. c None",
/* pixels */
"-.-.-.-.-.-.-.-.-.-.-.-.-.-.-.-.-.-.-.-.-.-.-.-.-.-.-.-.-.-.-.-.-.-.-.-.-.-.-.-.-.-.-.-.-.-.-.-.-.-.",
"-.-.-.-.-.-.-.-.-.-.-.-.-.-.-.-.-.-.-.-.-.-.-.-.-.-.-.-.-.-.-.-.-.-.-.-.-.-.-.-.-.-.-.-.-.-.-.-.-.-.",
"-.-.-.-.-.-.-.-.-.-.-.-.-.-.-.-.-.-.-.-.-.-.-.-.-.-.-.-.-.-.-.-.-.-.-.-.-.-.-.-.-.-.-.-.-.-.-.-.-.-.",
"-.-.-.-.-.-.-.-.-.-.-.-.-.-.-.-.-.-.-.-.-.-.-.-.-.-.-.-.-.-.-.-.-.-.-.-.u u u u u u u u -.-.-.-.-.-.",
"-.-.-.-.-.-.-.-.-.-.-.-.-.-.-.-.-.-.-.-.-.-.-.-.-.-.-.-.-.-.-.-.-.-.-.-.u u u u u u u u -.-.-.-.-.-.",
"-.-.-.-.-.-.-.-.-.-.-.-.-.-.-.-.-.-.-.-.-.-.-.-.-.-.-.-.-.-.-.-.-.-.-.-.u u u u u u u u -.-.-.-.-.-.",
"-.-.-.-.-.-.-.-.-.-.-.-.-.-.-.-.-.-.-.-.-.-.-.-.-.-.-.-.-.u u u u u u u u u u u u u u u -.-.-.-.-.-.",
"-.-.-.-.-.-.-.-.-.-.-.-.-.-.-.-.-.-.-.-.-.-.-.-.-.-.-.-.-.u u u u u u u u u u u u u u u -.-.-.-.-.-.",
"-.-.-.-.-.-.-.-.-.-.-.-.-.-.-.-.-.-.-.-.-.-.-.-.-.-.-.-.-.u u u u u u u u u u u u u u u -.-.-.-.-.-.",
"-.-.-.-.-.-.-.-.-.-.-.-.-.-.-.-.-.-.-.-.-.-.-.-.-.-.-.-.-.u u u u u u u u u u u u u u u -.-.-.-.-.-.",
"-.-.-.-.-.-.-.-.-.-.-.-.-.-.-.-.-.-.-.-.-.-.u u u u u u u u u u u u u u u u u u u u u u -.-.-.-.-.-.",
"-.-.-.-.-.-.-.-.-.-.-.-.-.-.-.-.-.-.-.-.-.u u u u u u u u u -.-.u u u u u -.-.-.-.-.-.-.-.-.-.-.-.-.",
"-.-.-.-.-.-.-.-.-.-.-.-.-.-.-.-.-.-.-.-.-.u u u u u u u u u -.-.u u u u u -.-.-.-.-.-.-.-.-.-.-.-.-.",
"-.-.-.-.-.-.-.-.-.-.-.-.-.-.-.-.-.-.-.-.-.u u u u u u u u u -.-.u u u u u -.-.-.-.-.-.-.-.-.-.-.-.-.",
"-.-.-.-.-.-.-.-.-.-.-.-.-.-.-.-.-.-.u u u u u u u u u u u -.-.-.u u u u u -.-.-.-.-.-.-.-.-.-.-.-.-.",
"-.-.-.-.-.-.-.-.-.-.-.-.-.-.-.-.-.-.u u u u -.-.-.-.-.-.-.-.-.-.u u u u u -.-.-.-.-.-.-.-.-.-.-.-.-.",
"-.-.-.-.-.-.-.-.-.-.-.-.-.-.-.-.-.-.u u u u -.-.-.-.-.-.-.-.-.-.u u u u u -.-.-.-.-.-.-.-.-.-.-.-.-.",
"-.-.-.-.-.-.-.-.-.-.-.-.-.-.-.-.u u u u u u -.-.-.-.-.-.-.u u u u u u u u -.-.-.-.-.-.-.-.-.-.-.-.-.",
"-.-.-.-.-.-.-.-.-.-.-.-.-.-.-.u u u u -.-.-.-.-.-.-.-.-.-.u u u u u u u u -.-.-.-.-.-.-.-.-.-.-.-.-.",
"-.-.-.-.-.-.-.-.-.-.-.-.-.-.-.u u u -.-.-.-.-.-.-.-.-.-.-.u u u u -.-.-.-.-.-.-.-.-.-.-.-.-.-.-.-.-.",
"-.-.-.-.-.-.-.-.-.-.-.# # % - f y y p % # # -.-.-.-.-.-.-.u u u u -.-.-.-.-.-.-.-.-.-.-.-.-.-.-.-.-.",
"-.-.-.-.-.-.-.-.-.# # # # # : - = = 3 # # # # # -.-.u u u u u u u -.-.-.-.-.-.-.-.-.-.-.-.-.-.-.-.-.",
"-.-.-.-.-.-.-.-.# # # # # # # $ $ $ $ # # # # # -.y u u u u -.-.-.-.-.-.-.-.-.-.-.-.-.-.-.-.-.-.-.-.",
"-.-.-.-.-.-.-.-.# # # # # # # # # # # # # # # # , y u u u u -.-.-.-.-.-.-.-.-.-.-.-.-.-.-.-.-.-.-.-.",
"-.-.-.-.-.-.# # # # # # # # # # # # # # # # # # , a j u u u -.-.-.-.-.-.-.-.-.-.-.-.-.-.-.-.-.-.-.-.",
"-.-.-.-.-.-.# # # # # # # # # # # # # # # # # # , d j u u u -.-.-.-.-.-.-.-.-.-.-.-.-.-.-.-.-.-.-.-.",
"-.-.-.-.-.-.# # # # # # # # # # # # # # # # # # @ d j u u g -.-.-.-.-.-.-.-.-.-.-.-.-.-.-.-.-.-.-.-.",
"-.-.-.-.-.-.# # # # # # # # # # # # # # # # # # # i y h y s > # # # -.-.-.-.-.-.-.-.-.-.-.-.-.-.-.-.",
"-.-.-.-.-.-.# # # # # # # # # # # # # # # # # # # & ; ; - * @ # # # # -.-.-.-.-.-.-.-.-.-.-.-.-.-.-.",
"-.-.-.-.-.-.# + . . . + # # # # # # # # # # # # # $ $ $ $ $ # # # # # # -.-.-.-.-.-.-.-.-.-.-.-.-.-.",
"-.-.-.-.-.-.+ r G J H l O # # # # # # # # # # # # # # # # # # # # # # # -.-.-.-.-.-.-.-.-.-.-.-.-.-.",
"-.-.-.-.-.-.o C $.=.*.S . # # # # # # # # # # # # # # # # # # # # # # # # # -.-.-.-.-.-.-.-.-.-.-.-.",
"-.-.-.-.-.-.X C %.=.*.S . # # # # # # # # # # # # # # # # # # # # # # # # # -.-.-.-.-.-.-.-.-.-.-.-.",
"-.-.-.-.-.-.o V | +.o.S 2 5 4 < # # # # # # # # # # # # # # # # # # # # # # -.-.-.-.-.-.-.-.-.-.-.-.",
"-.-.-.-.-.-.+ 8 m M N Y _ ) ^ t O # # # # # # # # # # # # # # # # # # # # # -.-.-.-.-.-.-.-.-.-.-.-.",
"-.-.-.-.-.-.# + o o 5 ' =.=...c O # # + + + + # # # # # # # # # # # # # # # -.-.-.-.-.-.-.-.-.-.-.-.",
"-.-.-.-.-.-.# # # + 7 ` =.=. .x O # # 7 w w 9 < # # # # # # # # # # # # # # -.-.-.-.-.-.-.-.-.-.-.-.",
"-.-.-.-.-.-.-.-.# # 6 ( O.X.} z O # # K [ ] / 0 + # # # # # # # # # # # # # -.-.-.-.-.-.-.-.-.-.-.-.",
"-.-.-.-.-.-.-.-.# # 1 k b v c 5 # # # R =.=.{ e + # # # # # # # # # # # # # -.-.-.-.-.-.-.-.-.-.-.-.",
"-.-.-.-.-.-.-.-.-.# # O O O O # # # # E =.=.{ q   . O # # # # # # # # # # # -.-.-.-.-.-.-.-.-.-.-.-.",
"-.-.-.-.-.-.-.-.-.-.# # # # # # # # # F W T I D Z A n # # # # # # # # # # # -.-.-.-.-.-.-.-.-.-.-.-.",
"-.-.-.-.-.-.-.-.-.-.-.-.-.-.-.-.-.# # # # X B @.&.=.Q < # # # # # # # # # # -.-.-.-.-.-.-.-.-.-.-.-.",
"-.-.-.-.-.-.-.-.-.-.-.-.-.-.-.-.-.# # # # o V #.=.=.! < # # # # # # # # # # -.-.-.-.-.-.-.-.-.-.-.-.",
"-.-.-.-.-.-.-.-.-.-.-.-.-.-.-.-.-.-.-.# # o V &.=.=.~ < # # # # # # # # -.-.-.-.-.-.-.-.-.-.-.-.-.-.",
"-.-.-.-.-.-.-.-.-.-.-.-.-.-.-.-.-.-.-.# # O z L P U F < # # # # # # # # -.-.-.-.-.-.-.-.-.-.-.-.-.-.",
"-.-.-.-.-.-.-.-.-.-.-.-.-.-.-.-.-.-.-.-.# # # + + + + # # # # # # # # -.-.-.-.-.-.-.-.-.-.-.-.-.-.-.",
"-.-.-.-.-.-.-.-.-.-.-.-.-.-.-.-.-.-.-.-.-.# # # # # # # # # # # # # # -.-.-.-.-.-.-.-.-.-.-.-.-.-.-.",
"-.-.-.-.-.-.-.-.-.-.-.-.-.-.-.-.-.-.-.-.-.-.-.-.-.-.-.-.-.-.-.-.-.-.-.-.-.-.-.-.-.-.-.-.-.-.-.-.-.-.",
"-.-.-.-.-.-.-.-.-.-.-.-.-.-.-.-.-.-.-.-.-.-.-.-.-.-.-.-.-.-.-.-.-.-.-.-.-.-.-.-.-.-.-.-.-.-.-.-.-.-.",
"-.-.-.-.-.-.-.-.-.-.-.-.-.-.-.-.-.-.-.-.-.-.-.-.-.-.-.-.-.-.-.-.-.-.-.-.-.-.-.-.-.-.-.-.-.-.-.-.-.-."
};
