/* XPM */
static char *result[] = {
/* columns rows colors chars-per-pixel */
"150 50 125 2 ",
"   c #020203",
".  c #0D0202",
"X  c #0A0901",
"o  c #0B0B0B",
"O  c #100202",
"+  c #1C0304",
"@  c #140B02",
"#  c #180B02",
"$  c #131313",
"%  c #1D1D1D",
"&  c #240405",
"*  c #232205",
"=  c #2F2D07",
"-  c #312E07",
";  c #3B3709",
":  c #232323",
">  c #2C2C2C",
",  c #2F302F",
"<  c #303131",
"1  c #3A3A3A",
"2  c #420809",
"3  c #570C0C",
"4  c #620D0D",
"5  c #7A0F11",
"6  c #741010",
"7  c #7B1111",
"8  c #442308",
"9  c #4A2709",
"0  c #413D0A",
"q  c #5C300B",
"w  c #783F0E",
"e  c #4E4A0C",
"r  c #5F5A0F",
"t  c #79400E",
"y  c #635D10",
"u  c #676210",
"i  c #6B6511",
"p  c #6E6811",
"a  c #716B12",
"s  c #7C7614",
"d  c #7F7814",
"f  c #434443",
"g  c #4B4C4B",
"h  c #515252",
"j  c #575958",
"k  c #5C5D5D",
"l  c #5E605F",
"z  c #616261",
"x  c #666867",
"c  c #6A6C6B",
"v  c #6D706F",
"b  c #6F7170",
"n  c #727372",
"m  c #767877",
"M  c #777978",
"N  c #7B7C7C",
"B  c #821212",
"V  c #822312",
"C  c #813010",
"Z  c #FF1E24",
"A  c #FF2424",
"S  c #FF2B24",
"D  c #FF3424",
"F  c #FF3A23",
"G  c #81450F",
"H  c #824510",
"J  c #817214",
"K  c #817A14",
"L  c #FF7E1F",
"P  c #FF4224",
"I  c #FF4C23",
"U  c #FF5323",
"Y  c #FF5B22",
"T  c #FF6422",
"R  c #FF6A21",
"E  c #FF7322",
"W  c #FF7A21",
"Q  c #FF871F",
"!  c #FF891F",
"~  c #FF8523",
"^  c #FF8D21",
"/  c #FF9221",
"(  c #FF9B22",
")  c #FFA425",
"_  c #FFAD24",
"`  c #FFB323",
"'  c #FFBB24",
"]  c #FFB628",
"[  c #FFBD28",
"{  c #FFC326",
"}  c #FFCB25",
"|  c #FFC428",
" . c #FFCC28",
".. c #FFD426",
"X. c #FFDC27",
"o. c #FFD128",
"O. c #FFDD28",
"+. c #FFE027",
"@. c #FFE429",
"#. c #FFEC29",
"$. c #FFF229",
"%. c #838483",
"&. c #878A89",
"*. c #8A8C8B",
"=. c #8F9191",
"-. c #929493",
";. c #969998",
":. c #9B9E9D",
">. c #9DA09F",
",. c #9EA1A0",
"<. c #A2A3A3",
"1. c #ACADAD",
"2. c #B2B3B2",
"3. c #B6B8B7",
"4. c #B7B9B8",
"5. c #BDBDBD",
"6. c #C5C5C5",
"7. c #CBCBCB",
"8. c #D3D3D3",
"9. c #DDDDDD",
"0. c #E4E4E4",
"q. c #EEEEEE",
"w. c #F1F1F1",
"e. c gray98",
"r. c None",
/* pixels */
"r.r.r.r.r.r.r.r.r.r.r.r.r.r.r.r.r.r.r.r.r.r.r.r.r.r.r.r.r.r.r.r.r.r.r.r.r.r.r.r.r.r.r.r.r.r.r.r.r.r.r.r.r.r.r.r.r.r.r.r.r.r.r.A A A r.r.r.r.r.r.r.r.r.r.r.r.r.r.r.r.r.r.r.r.r.r.r.r.r.r.r.r.r.r.r.r.r.r.r.r.r.r.r.r.r.r.r.r.r.r.r.r.r.r.r.r.r.r.r.r.r.r.r.r.r.r.r.r.r.r.r.r.r.r.r.r.r.r.r.r.r.r.r.r.r.r.r.r.",
"r.r.r.r.r.r.r.r.r.r.r.r.r.r.r.r.r.r.r.r.r.r.r.r.r.r.r.r.r.r.r.r.r.r.r.r.r.r.r.r.r.r.r.r.r.r.r.r.r.r.r.r.r.r.r.r.r.r.r.r.r.r.r.A A A r.r.r.r.r.r.r.r.r.r.r.r.r.r.r.r.r.r.r.r.r.r.r.r.r.r.r.r.r.r.r.r.r.r.r.r.r.r.r.r.r.r.r.r.r.r.r.r.r.r.r.r.r.r.r.r.r.r.r.r.r.r.r.r.r.r.r.r.r.r.r.r.r.r.r.r.r.r.r.r.r.r.r.r.",
"r.r.r.r.r.r.r.r.r.r.r.r.r.r.r.r.r.r.r.r.r.r.r.r.r.r.r.r.r.A A A A r.r.r.r.r.r.r.r.r.r.r.r.r.r.r.r.r.r.r.r.r.r.r.r.r.r.r.r.r.r.r.r.r.r.r.r.r.r.r.r.r.r.r.r.r.r.r.r.r.r.r.r.r.r.r.r.r.r.r.r.r.r.r.A A r.r.r.r.r.r.r.r.r.r.r.r.r.r.r.r.r.r.r.r.r.r.r.r.r.r.r.r.r.r.r.r.r.r.r.r.r.r.r.r.r.r.r.r.r.r.r.r.r.r.r.r.",
"r.r.r.r.r.r.r.r.r.r.r.r.r.r.r.r.r.r.r.r.r.r.r.r.r.r.r.r.r.r.A A A r.r.r.r.r.r.r.r.r.r.r.r.r.r.r.r.r.r.r.r.r.r.r.r.r.r.r.r.r.r.r.r.r.r.r.r.r.r.r.r.r.r.r.r.r.r.r.r.r.r.r.r.r.r.r.r.r.r.r.r.r.r.r.A A r.r.r.r.r.r.r.r.r.r.r.r.r.r.r.r.r.r.r.r.r.r.r.r.r.r.r.r.r.r.r.r.r.r.r.r.r.r.r.r.r.r.r.r.r.r.r.r.r.r.r.r.",
"r.r.r.r.r.r.r.r.r.r.r.r.r.r.r.r.r.r.r.r.r.r.r.r.r.r.r.r.r.r.r.r.r.r.r.r.r.r.r.r.r.r.r.r.r.r.r.r.r.r.r.r.r.r.r.r.r.r.r.r.r.r.r.r.r.r.r.r.r.r.r.r.r.r.r.r.r.r.r.r.r.r.r.r.r.r.r.r.r.r.A A r.r.r.r.A A r.r.r.r.r.r.r.r.r.r.r.r.r.r.r.r.r.r.r.r.r.r.r.r.r.r.r.r.r.r.r.r.r.r.r.r.r.r.r.r.r.r.r.r.r.r.r.r.r.r.r.r.",
"r.r.r.r.r.r.A A r.r.r.r.r.r.r.r.r.r.r.r.r.r.r.r.r.r.r.r.r.r.r.r.r.r.r.r.r.r.r.A A r.r.r.r.r.r.r.r.r.r.r.r.r.r.r.r.r.r.r.r.r.r.r.r.r.r.r.r.r.r.r.r.r.r.r.r.r.r.r.r.r.r.r.r.r.r.r.A A A A r.r.r.r.r.r.r.r.r.r.r.r.r.r.r.r.r.r.A r.r.r.r.r.r.r.r.r.r.r.r.r.r.r.r.r.r.r.r.r.r.r.r.r.r.r.r.r.r.r.r.r.r.A r.r.r.r.",
"r.r.r.r.r.r.A A r.r.r.r.r.r.r.r.r.r.r.r.r.r.r.r.r.r.r.r.r.r.r.r.r.r.r.r.r.r.r.A A r.r.r.r.r.r.r.r.r.r.r.r.r.r.r.r.r.r.r.r.r.r.r.r.r.r.r.r.r.r.r.r.r.r.r.r.r.r.r.r.r.r.r.r.r.r.r.A A A A r.r.r.r.r.r.r.r.r.r.r.r.r.r.r.r.r.A A r.r.r.r.r.r.r.r.r.r.r.r.r.r.r.r.r.r.r.r.r.r.r.r.r.r.r.r.r.r.r.r.r.A A r.r.r.r.",
"r.r.r.r.r.r.r.r.r.r.r.r.r.r.r.r.r.r.A A r.r.r.r.r.r.r.r.r.r.r.r.r.r.r.r.r.r.r.r.r.r.r.r.r.r.r.r.r.A A r.r.r.r.r.r.r.r.r.r.r.r.r.r.r.r.r.A A A A r.r.r.r.r.r.r.r.r.r.r.r.r.r.r.r.r.r.r.r.r.r.r.r.r.r.r.r.r.r.r.r.r.r.r.r.r.r.r.r.r.r.r.r.r.r.r.r.r.r.r.A A r.r.r.r.r.r.r.r.r.r.r.r.r.r.r.r.r.r.r.r.r.r.r.r.r.",
"r.r.r.r.r.r.r.r.r.r.r.r.r.r.r.r.r.r.A r.r.r.r.r.r.r.r.r.r.r.r.r.r.r.r.r.r.r.r.r.r.r.r.r.r.r.r.r.r.A S r.r.r.r.r.r.r.r.r.r.r.r.r.r.r.r.r.r.A A A r.r.r.r.r.r.r.r.r.r.r.r.r.r.r.r.r.r.r.r.r.r.r.r.r.r.r.r.r.r.r.r.r.r.r.r.r.r.r.r.r.r.r.r.r.r.r.r.r.r.r.A A r.r.r.r.r.r.r.r.r.r.r.r.r.r.r.r.r.r.r.r.r.r.r.r.r.",
"r.r.r.r.r.r.r.r.r.r.r.r.r.r.r.r.r.r.r.r.r.r.r.r.r.r.r.r.r.r.r.r.r.r.r.r.r.r.r.r.r.r.r.r.r.r.r.r.r.A D Q ! r.r.r.r.r.r.r.r.r.r.r.r.r.r.r.r.r.r.r.r.r.r.r.r.r.r.r.r.r.r.r.r.r.Q Q ! Q r.r.r.r.r.r.r.r.r.r.r.A A A A r.r.r.r.r.r.r.r.r.r.r.r.r.r.r.r.r.r.A A A A r.r.r.r.r.r.r.r.r.r.r.r.r.r.r.r.r.r.r.r.r.r.r.",
"r.r.r.r.r.r.r.r.r.r.r.r.r.r.r.r.r.r.r.r.r.r.r.r.r.r.r.r.r.r.A A A R ! ! Q ! r.r.r.r.r.r.r.r.r.r.r.r.r.r.r.r.r.r.r.A A A A A r.r.r.Q r.r.r.Q ! Q r.r.r.r.r.r.r.r.r.r.r.r.r.r.Q ! Q r.r.r.! r.r.r.r.r.r.r.r.r.r.r.r.r.r.r.r.r.r.r.r.r.r.r.r.r.Q Q r.r.r.r.r.r.r.r.r.r.r.r.r.r.r.r.r.r.r.r.r.r.r.r.r.r.r.r.r.r.",
"r.r.r.r.r.r.r.r.r.r.A A r.r.r.r.r.r.r.r.r.r.r.r.r.r.r.r.r.A A A A T ! Q Q Q Q r.r.r.r.r.r.r.r.r.r.r.r.r.r.r.r.r.r.A A A A A A r.Q Q r.r.Q ! Q Q r.r.r.r.r.r.r.r.r.r.r.r.r.r.Q Q r.r.r.r.Q Q r.r.r.r.r.r.r.r.r.r.r.r.r.r.r.r.r.r.r.r.r.r.r.Q Q Q ! r.r.r.r.r.r.r.r.r.r.r.r.r.r.r.r.r.r.r.r.r.r.r.r.r.r.r.r.r.",
"A A r.r.r.r.r.r.r.r.r.r.r.r.Q ! ! ! ! T A A A I ! r.r.r.A r.r.r.r.r.r.r.r.Q Q r.r.r.r.r.r.r.r.r.r.r.r.~ Q ! R A A r.r.r.A A I ! ! Q r.r.r.r.Q Q r.r.A A A A A A A A r.r.Q Q Q Q r.r.r.r.Q Q r.r.r.r.r.r.r.r.r.r.! r.r.r.r.r.r.r.r.r.r.Q Q Q Q r.r.r.r.r.r.r.r.r.r.A A r.r.A A A r.r.r.Q r.r.r.r.r.r.r.r.r.r.",
"A A r.r.r.r.r.r.r.r.r.r.r.r.Q Q Q Q ! T A A A U ! Q r.D A r.r.r.r.r.r.r.r.Q Q r.r.r.r.r.r.r.r.r.r.r.r.( / ! R A A r.r.r.r.D Y Q Q Q r.r.r.r.! Q r.r.I P D A F P S A r.r.Q Q ! Q r.r.r.r.Q Q r.r.r.r.r.r.r.r.r.Q Q r.r.r.r.r.r.r.r.r.r.Q Q L L r.r.r.r.r.r.r.r.r.r.A A r.r.A A A r.r.! Q Q r.r.r.r.r.r.r.r.r.",
"r.r.r.r.A A A A A A r.r.! ! ! Q r.r.r.r.r.r.r.r.Q Q Q r.r.@.$.r.r.r.r.r.r.r.r.Q Q ! Q r.r.r.r.r.r.$.#.#...! R A A r.r.r.r.L Q Q Q r.r.r.r.r.Q ! ~ !  .@.r.r.+.+.r.r.r.r.Q Q r.r.Q Q Q Q Q ! r.r.r.r.A U ! Q Q r.r.Q ! r.r.r.r.r.r.A A W Q F D W ! Q Q r.r.r.r.r.r.r.r.r.r.A A r.r.r.r.Q Q ! r.r.r.r.r.r.A A ",
"r.r.r.r.A A A A A A r.r.! W T E r.r.r.r.r.r.r.Q Q ( ` r.r.$.$.$.r.r.r.r.r.r.r.' _ ^ ! r.r.r.r.r.r.$.+._ ( ~ L A r.r.r.r.} _ _ _ r.r.r.r.r.r.r.! R T _  .r.r.$.$.r.r.r.r.` ) r.I Q Q ! Q Q Q r.r.r.F I T ! Q Q r.r.Q Q r.r.r.r.r.r.P I W Q F A W ! Q ! r.r.r.r.r.r.r.r.r.r.A r.r.r.r.Q Q Q Q Q r.r.r.r.r.A A ",
"r.r.r.r.r.r.r.r.A A r.r.r.r.Z Y #.$.r.r.r.r.~ ! Q ' $.r.r.$.$.$.$.$.$.$.$.$.$.$.#.( ^ @.$.#.$.$.$.$.| S F ~ ^ r.r.r.r.$.$.$.$.$.r.r.r.r.r.r.r.r.A S R ~ r.r.r.r.$.$.#.#.$. .D F ~ Q r.r.r.r.! T A P ! ~ ~ r.r.r.r.! ~ r.r.r.r.A A E ! Q Q r.r.r.r.Q Q Q Q r.r.r.r.A A A A r.r.r.r.~ ~ ~ ~ Q Q Q r.r.A A A A ",
"r.r.A A r.r.A A r.r.@.$.r.r.r.r.r.r.$.$.$.O.} ' r...$.$.$.r.r.r.r.~ E  .$.$.$.$.#.r.r.#.#.' _ _ ) E W ) ` } ' ~ r.r.r._ [ r.$.$.( Z A A r.r.r.#.] _ |  .@.$.$.$.#.#.' ' r.r.S F ~ ~ r.r.r.r.Q W Y L ! ~ r.r.r.r.A R ~ U A ] $.r.r.' } } } r.r.r.r.r.r.Q L S A A A A A r.r.$.$.$.O. .' r.'  .} } E Z A A A r.",
"r.r.A A r.r.S S r.r.$.$.r.r.r.r.r.r.$.#.$.$.$.$.r.r.$.#.$.r.r.r.r.D D ] $.$.#.@.O.r.r.#.@.! ~ ~ E D U #.$.$.o./ / r.r.^ ^ r.r.$./ D D D r.r.$.$.$.$.$.$.#.#.#.$.$.#.( ! r.r.A D ~ ~ r.r.r.r.W ~ / / / / r.r.r.P D R ^ U D ] $.r.r.#.#.$.$.r.r.r.r.r.r./ W F D D D D F r.r.$.$.$.$.$.@.r.O.@.@.#.E D D D r.r.",
"r.r.r.r.A S R L r.r.$.$.$.$.$.$.$.$.$.$.$.$.$.$.r.r.$.$.#.$.$.$.$.O.o.#.$.$.@.R P S S r.r.F F W ~ E W r.r.r.r.@.@.$.#.+.@.r.r.$.@. . .o.@.$.$.$.$.$.r.r.( ( r.r.$.#.@.O.$.} S D ~ ( #.#.$._ D E +.+.O.@.r.r.$.@.o.O.@.O. .#.$.r.r.( ( O.$.$.$.$.$.$.$.@.O.o.o. .o.o.o.r.r.r.r.$.$.$./ A F P E ( [ o.o.o.r.r.",
"r.r.r.r.A D W ! r.r.$.$.$.$.$.$.$.$.$.X.[  .$.r.r.r.$.$.$.$.$.$.$.$.$.$.$.$.#.I Z A A r.r.A D W ~ ! ! r.r.r.r.$.$.$.$.$.$.r.$.$.$.$.$.$.$.$.$.$.$.$.r.r.^ ~ r.r.$.$.$.$.$.o.Y R ) ] #.$.$.| U ~ $.$.$.r.r.[ [ [ [ } X.#.$.$.$.r.r.^ ~ +.$.$.$.$.@.|  .$.$.$.$.$.$.$.$.r.r.r.r...+.$.^ A A Z Y ~ } $.$.$.r.r.",
"r.r.A S r.r.~ ~ r.r.$.$.$.$.r.r.r.r.r.r.S D r.r.r.r.r.r.r.r.r.$.$.r.r.r.r.r.r.r.r.A A A A r.r.r.r.r.r.r.r.r.r.$.$.r.r.r.r.$.$.$.$.$.r.r.r.r.r.r.r.r.$.$.r.r.r.r.r.r.r.r.r.r.$.#.$.$.$.$.$.$.$.$.$.$.r.r.r.r.S S S T ^ r.r.r.r.$.$.r.r.r.r.r.r.r.r.S I #.$.$.$.$.$.$.$.r.r.r.r.^ / r.r.r.r.r.r.r.r.r.r.r.r.r.",
"r.. 6 7 & o w w @ * s K K a X r.r.r.r.2 B 4 r.r.r.r.r.r.r.r.r.y K 0 r.r.r.r.r.r.o 6 B 5 5 + r.r.r.r.r.r.r.r.; K i r.r.r.e K K J K K e r.r.r.r.r.r.  p d = r.r.r.r.r.r.r.r.* s K d d d d K K K K d r r.r.r.3 B B B w G 8 r.r.. i K = r.r.r.r.r.r.+ 5 7 K K K K K d K i r.r.r.9 H q r.r.r.r.r.r.r.r.r.r.r.r.r.",
"          o     o o         o .   o   o       o o     o     o     o     o   . . o     o   o o     o   X   o           o       .     o   o     o   o     o   . .   o   o     o       o     o         o X   o       o       o       o   X   o   o o   o         o   o     o     . o   X   o   o   o X   o     ",
"  o *.2.1.1.2.2.2.2.2.2.2.2.2.2.2.2.2.2.2.2.2.2.2.1.2.1.2.2.2.2.2.2.2.2.2.2.1.2.2.2.2.2.2.2.2.2.2.2.1.2.2.2.2.2.2.2.2.2.2.2.1.2.3.1.2.2.2.2.2.2.2.1.2.1.2.2.2.2.2.2.2.2.2.2.2.2.2.2.1.2.2.2.2.2.2.2.1.2.1.1.2.2.2.2.2.2.2.2.2.2.2.2.2.2.2.2.2.2.2.2.2.2.2.2.2.2.1.2.2.2.2.2.2.2.2.2.2.2.2.2.2.2.1.2.1.1.,   ",
"  o 6.e.w.e.w.w.w.w.w.w.w.w.w.w.w.w.w.w.w.w.w.w.w.w.e.w.w.w.w.w.w.w.w.w.w.w.e.w.w.w.w.w.w.w.w.w.w.e.e.w.w.w.w.w.w.w.w.w.w.w.e.w.w.e.w.w.w.w.w.w.w.e.e.w.w.w.w.w.w.w.w.w.w.w.w.w.w.e.e.w.w.w.w.w.w.e.w.e.e.w.e.w.w.w.w.w.e.w.w.w.w.w.w.w.w.w.w.w.w.w.w.w.w.w.w.w.e.w.w.w.w.w.w.w.w.w.w.w.w.w.w.w.w.e.e.w.f   ",
"  o 5.w.w.w.w.w.w.w.w.w.w.w.w.w.w.w.w.w.w.w.w.w.w.w.w.w.w.w.w.w.q.w.w.q.w.w.w.w.w.w.w.w.w.w.w.w.q.w.w.w.w.w.w.w.w.w.w.w.w.w.w.w.w.w.w.w.w.w.w.w.w.w.w.w.w.w.w.w.w.w.w.w.w.q.w.w.w.w.w.w.w.w.w.w.q.w.q.w.w.w.q.q.w.q.q.w.w.q.w.w.w.w.w.w.w.w.w.q.w.w.w.w.w.w.w.w.w.q.q.w.w.w.w.w.w.w.w.w.w.w.w.q.q.w.w.0.f   ",
"  o 5.w.w.w.w.w.q.w.w.q.w.w.w.w.w.w.w.w.w.w.q.w.w.w.w.w.w.w.w.w.w.w.w.w.w.w.w.w.w.w.w.w.w.w.w.w.w.q.w.q.w.w.w.w.q.w.w.w.w.w.w.w.q.w.w.w.w.q.w.w.w.w.w.w.w.w.w.w.w.w.w.w.w.w.q.w.w.w.q.w.w.q.w.q.w.w.w.w.q.w.w.q.w.w.w.w.w.w.w.w.w.w.w.w.w.w.w.w.w.w.w.w.w.w.w.w.w.w.w.w.w.w.w.w.w.w.w.w.w.w.w.w.q.w.w.q.f   ",
"  o 5.w.q.w.w.q.w.q.w.w.w.w.w.w.w.w.q.w.w.w.q.w.w.q.w.w.w.w.w.q.w.w.q.w.w.q.w.w.w.w.w.w.w.w.w.w.w.w.w.w.w.w.w.w.w.w.w.w.w.w.w.w.w.w.w.w.q.w.w.w.q.w.w.w.q.w.w.w.w.w.q.w.w.w.w.w.w.w.w.w.w.w.w.w.w.w.w.w.w.w.w.w.w.w.w.w.w.q.w.w.w.w.w.w.w.w.w.w.w.w.q.w.w.w.w.w.w.w.w.w.q.w.w.q.w.w.w.w.q.w.w.w.w.w.q.0.f   ",
"  $ 5.w.w.w.w.w.w.w.w.w.w.w.q.w.w.w.w.w.w.w.w.w.w.w.w.q.w.w.w.w.w.w.w.w.w.w.w.q.w.w.w.w.9.m z z z z z k %.q.q.w.w.w.5.l >.w.w.w.w.w.w.q.w.w.-.l 6.w.w.w.w.0.N c 9.w.w.w.w.8.c l l l z z z z z z z z l <.w.w.q.w.w.q.q.w.w.w.w.q.w.w.w.q.q.w.w.q.q.w.w.w.w.q.q.w.w.q.q.w.w.w.w.w.w.w.w.q.w.w.w.q.q.w.w.q.f   ",
"  o 5.e.w.w.w.w.q.w.w.q.q.w.w.q.q.w.w.q.w.q.q.w.w.q.w.w.w.w.w.w.w.q.q.w.w.q.w.w.w.w.w.w.8.%   $ $ $ $ $ g 0.w.w.q.w.:.o c 0.0.w.q.w.w.q.0.9.j $ 1.w.w.w.w.0.1 : 7.w.w.w.w.7.: $ $ $ $ o . o $ $ $ $ o M w.w.w.w.w.w.w.w.w.w.w.w.w.w.w.w.w.w.w.w.w.w.w.w.w.w.w.w.w.w.w.w.w.w.w.w.w.w.w.w.w.w.w.w.w.w.q.q.f   ",
"  o 5.w.q.w.w.q.w.w.w.w.w.w.w.w.w.w.w.w.w.w.w.w.w.w.w.w.q.w.w.q.w.w.w.w.w.w.w.w.q.w.w.w.8.% % 2.6.6.6.6.8.w.q.w.w.w.0.7.%.: &.e.w.w.w.e.N > -.7.0.w.w.w.w.w.7.7.q.q.q.w.w.q.7.6.6.6.7.*.  f 6.6.6.6.6.9.w.q.w.w.w.w.q.w.w.q.w.q.w.w.q.w.w.q.w.w.q.w.q.w.w.q.w.w.w.w.q.w.w.q.w.q.w.w.q.w.q.w.w.q.w.w.q.q.f   ",
"  o 5.w.w.w.w.w.w.w.w.w.w.w.w.w.q.w.w.q.w.w.w.q.w.w.q.w.w.w.w.w.w.w.w.w.w.w.w.w.w.w.w.w.8.% : 9.w.w.w.w.w.w.q.w.w.q.w.w.<.< m 4.8.w.8.5.c 1 2.e.w.w.w.w.w.q.6.5.q.w.w.w.w.w.q.e.w.w.e.1.X h w.w.w.w.w.w.w.w.q.w.w.w.w.w.w.w.q.w.w.q.w.w.w.q.w.q.w.w.w.w.q.w.w.q.w.w.w.w.w.q.w.w.w.w.w.w.q.w.w.q.w.w.q.q.f   ",
"  o 6.w.w.q.q.w.w.q.q.w.w.q.q.w.w.w.w.w.w.w.w.w.w.w.w.w.q.w.w.q.w.q.q.w.w.q.q.w.w.q.w.w.8.: > 9.e.e.e.w.e.w.w.w.w.w.w.w.q.q.%.  %.e.v   =.0.q.w.w.w.q.w.w.0.1 : 7.w.q.w.q.w.q.q.w.q.e.1.o h q.q.w.w.w.w.w.w.w.w.w.q.q.w.w.q.w.w.w.w.w.w.w.w.w.w.w.w.w.w.w.w.w.w.w.q.q.w.w.w.q.w.w.q.q.w.w.w.w.w.w.w.q.q.f   ",
"  o 5.w.w.w.w.q.w.w.w.w.w.w.w.w.w.w.w.w.q.w.w.w.w.w.w.q.w.w.w.w.w.w.w.w.w.w.w.w.w.w.w.w.8.: $ M %.%.%.%.:.w.w.w.w.w.w.w.w.w.3.b N %.M n 5.w.w.w.w.w.w.w.w.0., $ 7.w.w.w.w.w.q.w.w.w.e.1.  h q.q.w.w.w.w.w.w.w.q.w.w.w.q.w.w.w.w.w.w.q.w.w.w.w.q.q.w.w.w.w.w.w.w.w.w.w.q.w.w.w.w.w.w.w.w.w.w.w.q.q.w.w.q.f   ",
"  o 5.w.q.q.q.q.q.q.q.q.q.q.q.q.q.q.q.q.q.q.q.q.q.q.q.q.q.q.q.q.q.q.q.q.q.q.q.q.q.q.q.w.8.:             1 0.w.q.q.q.q.w.q.q.q.w.n   *.w.w.w.q.q.q.q.q.q.q.9., $ 7.w.q.q.q.q.q.q.q.q.w.1.  h q.q.w.q.q.q.q.q.q.q.q.q.q.q.q.q.q.q.q.q.q.q.q.q.q.q.q.q.q.q.q.q.q.q.q.q.q.q.q.q.q.q.q.q.q.q.q.q.q.q.q.q.q.q.f   ",
"  o =.3.3.3.3.3.2.3.2.3.3.2.3.2.3.3.2.2.3.3.3.3.3.3.3.3.2.3.2.3.3.2.3.2.3.3.2.3.3.2.2.3.,.% $ x b b b b %.2.2.3.3.3.3.3.3.3.%.f k n j g *.3.3.2.3.2.2.3.3.1.: $ ;.3.3.3.3.3.3.3.3.3.3.%.  f 2.3.2.3.2.3.3.3.2.3.3.3.2.3.2.3.3.3.3.3.3.3.2.3.3.3.3.3.3.3.3.3.2.3.3.3.2.3.3.3.3.3.3.3.3.3.2.3.3.3.3.3.3.2.,   ",
"    N :.:.;.:.:.:.:.:.:.:.:.:.:.:.:.:.:.;.:.;.:.;.:.:.:.:.:.:.:.:.:.:.:.:.:.:.:.:.:.:.:.*.$ % =.,.,.,.,.,.:.:.:.;.:.:.:.=.&.h $ k <.h $ k &.=.,.:.:.:.:.>.=.% $ %.,.:.;.:.:.;.:.:.;.:.b o < ;.:.:.:.:.:.:.:.:.:.:.:.:.:.:.:.;.:.:.;.:.:.:.;.:.:.;.:.;.:.;.:.:.;.:.:.:.:.;.;.:.:.:.;.:.:.;.:.:.:.;.;.:.;.>   ",
"  o N >.:.:.:.:.:.:.>.:.:.:.:.:.:.>.:.:.:.:.:.:.:.:.:.:.:.:.:.:.:.:.:.:.:.:.:.:.:.>.:.>.=.$ % =.,.,.,.,.,.:.:.:.:.:.:.,.z o g =.-.:.-.*.f o b ,.:.:.:.:.>.=.: $ %.,.:.:.:.:.:.:.:.:.,.b   1 :.:.:.:.:.:.:.:.:.:.>.:.:.:.:.:.:.:.:.:.:.:.:.:.:.:.:.:.>.:.:.:.:.:.:.:.:.:.:.:.:.:.:.:.:.:.:.:.:.:.:.:.:.;.>   ",
"    N >.:.:.:.:.:.:.:.:.:.:.:.:.:.:.:.:.:.:.:.>.:.:.:.:.:.:.:.:.:.:.:.:.:.:.:.:.:.:.:.>.*.$ $ k c c c x m ;.:.:.:.>.*.c h 1 x ,.:.:.>.>.l 1 j c *.,.:.:.,.=.% $ %.,.:.:.:.:.:.:.,.:.,.n o < :.:.:.:.:.:.:.:.:.:.:.:.:.:.:.:.>.:.:.:.:.:.:.:.:.:.:.:.:.:.:.:.:.:.:.>.:.:.:.:.:.:.:.:.:.:.:.:.:.:.:.:.:.;.>   ",
"  o N >.:.:.:.:.:.:.:.:.:.>.:.:.:.:.:.:.>.:.:.:.:.:.:.:.:.:.:.:.:.:.:.:.:.:.:.:.:.:.:.>.*.$         X   > ;.,.:.>.,.z   f :.:.:.>.:.:.:.:.:.1   b ,.:.:.:.=.: o %.,.:.:.:.:.:.:.:.:.,.b   1 :.:.:.:.:.:.:.:.:.:.:.:.:.:.:.:.:.:.:.:.:.:.:.:.:.:.:.:.:.:.:.>.:.:.:.:.:.:.:.:.>.:.:.:.:.:.:.:.:.:.:.:.:.:.>   ",
"  o N >.:.:.>.:.:.>.:.:.:.:.:.:.:.>.:.:.:.:.:.:.:.:.:.>.>.:.:.:.:.:.:.>.:.:.:.>.:.:.>.:.-.x k l l k l k c :.:.:.:.>.%.k M >.:.:.:.:.:.:.:.:.n l &.>.:.:.:.:.x z =.,.:.:.:.>.:.:.:.>.>.*.k b :.:.:.:.:.:.>.:.:.:.>.:.:.:.>.:.:.:.:.:.>.:.:.:.>.:.:.:.:.>.:.:.:.:.:.:.>.:.:.:.:.:.:.>.:.:.:.:.>.:.:.:.:.;.>   ",
"    N >.:.:.:.:.:.:.:.:.:.:.:.:.:.:.:.:.:.:.>.:.>.:.:.:.:.:.:.>.>.:.:.:.>.:.:.:.:.:.:.:.>.>.>.<.>.,.>.>.,.:.:.:.>.:.>.,.,.:.:.>.:.:.>.:.:.:.,.,.>.:.:.:.:.:.,.,.,.:.:.:.:.:.:.:.:.:.:.>.,.>.:.:.:.:.:.>.:.:.:.>.:.:.:.>.:.:.:.>.:.:.:.:.:.:.:.:.>.:.:.:.:.:.:.:.:.:.:.:.:.:.:.:.:.:.:.:.:.:.:.:.:.:.:.:.>   ",
"  o N >.>.:.:.:.:.:.:.>.:.:.>.:.:.:.:.:.:.:.:.:.:.:.:.:.:.:.:.:.:.:.:.:.:.:.:.:.>.:.:.:.:.:.:.:.:.>.:.:.:.:.:.:.:.:.:.:.:.:.:.:.:.:.:.:.:.:.:.:.:.:.:.:.:.:.:.:.:.:.:.>.:.:.:.>.:.:.:.:.>.:.:.:.:.:.:.:.:.:.:.:.:.:.:.:.:.:.:.:.>.:.:.:.>.:.:.>.:.:.:.:.:.:.>.:.>.:.:.:.:.>.:.:.:.:.:.>.:.:.:.:.:.:.:.;.>   ",
"  o N :.:.:.:.>.:.:.:.:.:.>.:.:.:.:.:.:.:.:.>.:.:.:.>.:.:.:.:.:.:.:.>.:.:.:.>.:.:.>.:.:.:.:.:.:.:.:.:.:.:.:.>.:.:.:.>.:.:.:.:.:.,.:.:.:.:.:.,.:.:.:.:.:.:.:.:.:.:.:.:.:.:.:.:.:.:.>.:.:.:.:.:.:.:.>.:.:.:.:.:.:.:.>.:.:.:.:.:.:.:.:.:.:.:.:.:.:.:.:.:.:.:.>.:.:.:.:.:.:.:.:.:.:.>.:.:.:.:.:.:.>.:.>.:.:.>   ",
"    N >.:.:.:.:.:.:.:.:.:.:.:.:.:.:.:.:.:.:.:.:.:.:.:.:.:.:.:.:.:.:.:.:.:.:.:.:.:.:.:.:.:.:.:.>.:.:.:.:.:.:.:.:.:.:.:.:.:.:.:.:.:.:.:.:.:.:.:.:.:.:.:.:.:.:.:.:.:.:.:.:.:.>.:.:.:.:.:.:.:.:.:.:.:.:.:.:.:.:.:.:.:.:.:.:.:.:.:.:.:.:.>.:.:.:.:.:.:.:.:.:.:.:.:.:.:.:.>.:.>.:.:.:.:.:.:.:.:.:.:.:.:.:.:.;.>   ",
"    N ,.:.:.:.:.:.:.:.:.:.:.:.:.:.:.:.:.:.:.:.:.:.:.:.:.:.:.:.:.:.:.:.:.:.:.:.:.:.:.:.:.:.:.:.:.:.:.:.:.:.:.:.:.:.:.:.:.:.:.:.:.:.:.:.:.:.:.:.:.:.:.:.:.:.:.:.:.:.:.:.:.:.:.:.:.:.:.:.:.:.:.:.:.:.:.:.:.:.:.:.:.:.:.:.:.:.:.:.:.:.:.:.:.:.:.:.:.:.:.:.:.:.:.:.:.:.:.:.:.:.:.:.:.:.:.>.:.:.:.:.:.:.:.:.;.>   ",
"  o N :.;.:.:.;.:.:.:.:.;.:.:.:.:.:.;.:.:.:.;.:.;.:.:.:.:.;.:.:.:.;.:.:.;.:.:.;.:.:.;.:.:.;.:.:.:.:.;.:.:.:.;.:.:.;.:.:.:.;.:.:.:.:.;.:.:.;.:.:.:.:.;.:.:.:.:.;.:.:.:.:.;.:.:.:.;.:.:.;.:.:.:.:.:.:.;.:.:.:.:.;.:.:.:.;.:.:.:.;.:.;.:.:.;.:.:.;.:.:.:.:.;.:.:.:.;.:.:.;.:.:.;.:.:.;.:.:.;.:.:.:.:.:.:.;.>   ",
"    : < < > < < > < < > < < > < < < > < < > < < > < < > < < > < , < > < < > < < > < < > < < > < < < > < < > < < > < < > < < > < , > < < > < < > < < > < < > < < > < < > < < > < < > < < > < < > , , < > < > , , < > , , < > < > < , < < > < < > < < > < < > < < > < < > < < > < < > < < > < < > < > < > o   ",
"                                                                                                                                                                                                                                                                                                            "
};
