/* XPM */
static char *result[] = {
/* columns rows colors chars-per-pixel */
"50 50 2 1 ",
"  c #EEC535",
". c None",
/* pixels */
"..................................................",
"..................................................",
"..................................................",
"..................................................",
"..................................................",
"..................................................",
"..................................................",
"..................................................",
"..................................................",
"..................................................",
"..................................................",
"..................................................",
"..................................................",
"..................................................",
"..................................................",
"..................................................",
"....................   ...........................",
"....................    ..........................",
"...................       ........................",
"...................       ........................",
"...................         ......................",
"...................          .....................",
"...................          .....................",
"...................            ...................",
"...................            ...................",
"...................              .................",
"...................              .................",
"...................              .................",
"...................            ...................",
"...................            ...................",
"...................          .....................",
"...................          .....................",
"...................       ........................",
"...................       ........................",
"...................       ........................",
"....................   ...........................",
"....................   ...........................",
"..................................................",
"..................................................",
"..................................................",
"..................................................",
"..................................................",
"..................................................",
"..................................................",
"..................................................",
"..................................................",
"..................................................",
"..................................................",
"..................................................",
".................................................."
};
