/* XPM */
static char *f51728266ba44be9874fbefe65076302PoDvrUUUMHUNQo3Q[] = {
/* columns rows colors chars-per-pixel */
"50 50 2 1 ",
"  c None",
". c #EEC535",
/* pixels */
"                                                  ",
"                                                  ",
"                                                  ",
"                                                  ",
"                                                  ",
"                                                  ",
"                                                  ",
"                                                  ",
"                                                  ",
"                                                  ",
"                                                  ",
"                                                  ",
"                                                  ",
"                           ...                    ",
"                           ...                    ",
"                        .......                   ",
"                        .......                   ",
"                        .......                   ",
"                     ..........                   ",
"                     ..........                   ",
"                   ............                   ",
"                   ............                   ",
"                 ..............                   ",
"                 ..............                   ",
"                 ..............                   ",
"                   ............                   ",
"                   ............                   ",
"                     ..........                   ",
"                     ..........                   ",
"                      .........                   ",
"                        .......                   ",
"                        .......                   ",
"                          ....                    ",
"                           ...                    ",
"                                                  ",
"                                                  ",
"                                                  ",
"                                                  ",
"                                                  ",
"                                                  ",
"                                                  ",
"                                                  ",
"                                                  ",
"                                                  ",
"                                                  ",
"                                                  ",
"                                                  ",
"                                                  ",
"                                                  ",
"                                                  "
};
