/* XPM */
static char *result[] = {
/* columns rows colors chars-per-pixel */
"150 50 128 2 ",
"   c #020202",
".  c #0E0202",
"X  c #0E0E02",
"o  c #0B0B0B",
"O  c #190303",
"+  c #140B02",
"@  c #161503",
"#  c #1F1D04",
"$  c #141414",
"%  c #171817",
"&  c #1B1B1B",
"*  c #210304",
"=  c #201003",
"-  c #311905",
";  c #232105",
":  c #353308",
">  c #3E3B09",
",  c #242524",
"<  c #2B2B2B",
"1  c #353535",
"2  c #373838",
"3  c #3D3F3E",
"4  c #430909",
"5  c #590C0C",
"6  c #6C0F0F",
"7  c #700F0F",
"8  c #7D0F11",
"9  c #751010",
"0  c #7D1111",
"q  c #423E0A",
"w  c #67360C",
"e  c #753E0E",
"r  c #7D390F",
"t  c #7D3A12",
"y  c #45420B",
"u  c #48440B",
"i  c #57520D",
"p  c #5A550E",
"a  c #7C410F",
"s  c #666010",
"d  c #6B6511",
"f  c #746D12",
"g  c #7D7614",
"h  c #7F7814",
"j  c #454646",
"k  c #464847",
"l  c #474848",
"z  c #4A4C4B",
"x  c #4E504F",
"c  c #4F5050",
"v  c #525352",
"b  c #575959",
"n  c #5B5C5C",
"m  c #5F6060",
"M  c #646464",
"N  c #666867",
"B  c #6D6D6D",
"V  c #6E7070",
"C  c #737474",
"Z  c #767877",
"A  c #777978",
"S  c #7B7D7C",
"D  c #FF1E24",
"F  c #FF2424",
"G  c #FF2B24",
"H  c #FF3423",
"J  c #FF3A25",
"K  c #FF771F",
"L  c #FF7E1F",
"P  c #FF4423",
"I  c #FF4B24",
"U  c #FF5324",
"Y  c #FF5C22",
"T  c #FF6423",
"R  c #FF6C21",
"E  c #FF7422",
"W  c #FF7A22",
"Q  c #7E807F",
"!  c #FF871F",
"~  c #FF891F",
"^  c #FF8221",
"/  c #FF8C20",
"(  c #FF9420",
")  c #FF9B22",
"_  c #FFA224",
"`  c #FFAC24",
"'  c #FFB424",
"]  c #FFBC25",
"[  c #FFB528",
"{  c #FFBA28",
"}  c #FFC425",
"|  c #FFCD26",
" . c #FFC728",
".. c #FFCB28",
"X. c #FFD326",
"o. c #FFDB27",
"O. c #FFD528",
"+. c #FFDC28",
"@. c #FFE428",
"#. c #FFEB29",
"$. c #FFF229",
"%. c #7E8080",
"&. c #838484",
"*. c #858887",
"=. c #868988",
"-. c #8D8D8D",
";. c #8D908F",
":. c #8F9291",
">. c #939494",
",. c #959897",
"<. c #979A99",
"1. c #9B9E9D",
"2. c #9DA09F",
"3. c #9EA1A0",
"4. c #A1A4A3",
"5. c #ACACAC",
"6. c #AFB1B0",
"7. c #B1B1B1",
"8. c #BBBCBB",
"9. c #C3C3C3",
"0. c #CBCBCB",
"q. c #D2D2D2",
"w. c #DCDCDC",
"e. c #E4E4E4",
"r. c #ECECEC",
"t. c #F1F1F1",
"y. c #F8F8F8",
"u. c None",
/* pixels */
"u.u.u.u.u.u.u.u.u.u.u.u.u.u.u.u.u.u.u.u.u.u.u.u.u.u.u.u.u.u.u.u.u.u.u.u.u.u.u.u.u.u.u.u.u.u.u.u.u.u.u.u.u.u.u.u.u.u.u.u.u.u.F F F F u.u.u.u.u.u.u.u.u.u.u.u.u.u.u.u.u.u.u.u.u.u.u.u.u.u.u.u.u.u.u.u.u.u.u.u.u.u.u.u.u.u.u.u.u.u.u.u.u.u.u.u.u.u.u.u.u.u.u.u.u.u.u.u.u.u.u.u.u.u.u.u.u.u.u.u.u.u.u.u.u.u.u.u.",
"u.u.u.u.u.u.u.u.u.u.u.u.u.u.u.u.u.u.u.u.u.u.u.u.u.u.u.u.u.u.u.u.u.u.u.u.u.u.u.u.u.u.u.u.u.u.u.u.u.u.u.u.u.u.u.u.u.u.u.u.u.u.u.F F F u.u.u.u.u.u.u.u.u.u.u.u.u.u.u.u.u.u.u.u.u.u.u.u.u.u.u.u.u.u.u.u.u.u.u.u.u.u.u.u.u.u.u.u.u.u.u.u.u.u.u.u.u.u.u.u.u.u.u.u.u.u.u.u.u.u.u.u.u.u.u.u.u.u.u.u.u.u.u.u.u.u.u.u.",
"u.u.u.u.u.u.u.u.u.u.u.u.u.u.u.u.u.u.u.u.u.u.u.u.u.u.u.u.u.F F F F u.u.u.u.u.u.u.u.u.u.u.u.u.u.u.u.u.u.u.u.u.u.u.u.u.u.u.u.u.u.u.u.u.u.u.u.u.u.u.u.u.u.u.u.u.u.u.u.u.u.u.u.u.u.u.u.u.u.u.u.u.u.F F u.u.u.u.u.u.u.u.u.u.u.u.u.u.u.u.u.u.u.u.u.u.u.u.u.u.u.u.u.u.u.u.u.u.u.u.u.u.u.u.u.u.u.u.u.u.u.u.u.u.u.u.u.",
"u.u.u.u.u.u.u.u.u.u.u.u.u.u.u.u.u.u.u.u.u.u.u.u.u.u.u.u.u.u.u.u.u.u.u.u.u.u.u.u.u.u.u.u.u.u.u.u.u.u.u.u.u.u.u.u.u.u.u.u.u.u.u.u.u.u.u.u.u.u.u.u.u.u.u.u.u.u.u.u.u.u.u.u.u.u.u.u.u.u.F u.u.u.u.F F u.u.u.u.u.u.u.u.u.u.u.u.u.u.u.u.u.u.u.u.u.u.u.u.u.u.u.u.u.u.u.u.u.u.u.u.u.u.u.u.u.u.u.u.u.u.u.u.u.u.u.u.u.",
"u.u.u.u.u.u.u.u.u.u.u.u.u.u.u.u.u.u.u.u.u.u.u.u.u.u.u.u.u.u.u.u.u.u.u.u.u.u.u.u.u.u.u.u.u.u.u.u.u.u.u.u.u.u.u.u.u.u.u.u.u.u.u.u.u.u.u.u.u.u.u.u.u.u.u.u.u.u.u.u.u.u.u.u.u.u.u.u.u.u.F F u.u.u.F F u.u.u.u.u.u.u.u.u.u.u.u.u.u.u.u.u.u.u.u.u.u.u.u.u.u.u.u.u.u.u.u.u.u.u.u.u.u.u.u.u.u.u.u.u.u.u.u.u.u.u.u.u.",
"u.u.u.u.u.u.F F u.u.u.u.u.u.u.u.u.u.u.u.u.u.u.u.u.u.u.u.u.u.u.u.u.u.u.u.u.u.u.F F u.u.u.u.u.u.u.u.u.u.u.u.u.u.u.u.u.u.u.u.u.u.u.u.u.u.u.u.u.u.u.u.u.u.u.u.u.u.u.u.u.u.u.u.u.u.u.F F F F u.u.u.u.u.u.u.u.u.u.u.u.u.u.u.u.u.F F u.u.u.u.u.u.u.u.u.u.u.u.u.u.u.u.u.u.u.u.u.u.u.u.u.u.u.u.u.u.u.u.u.F F u.u.u.u.",
"u.u.u.u.u.u.F F u.u.u.u.u.u.u.u.u.u.u.u.u.u.u.u.u.u.u.u.u.u.u.u.u.u.u.u.u.u.u.F F u.u.u.u.u.u.u.u.u.u.u.u.u.u.u.u.u.u.u.u.u.u.u.u.u.u.u.u.u.u.u.u.u.u.u.u.u.u.u.u.u.u.u.u.u.u.u.F F F u.u.u.u.u.u.u.u.u.u.u.u.u.u.u.u.u.u.F F u.u.u.u.u.u.u.u.u.u.u.u.u.u.u.u.u.u.u.u.u.u.u.u.u.u.u.u.u.u.u.u.u.F F u.u.u.u.",
"u.u.u.u.u.u.u.u.u.u.u.u.u.u.u.u.u.u.F F u.u.u.u.u.u.u.u.u.u.u.u.u.u.u.u.u.u.u.u.u.u.u.u.u.u.u.u.u.F F u.u.u.u.u.u.u.u.u.u.u.u.u.u.u.u.u.F F F F u.u.u.u.u.u.u.u.u.u.u.u.u.u.u.u.u.u.u.u.u.u.u.u.u.u.u.u.u.u.u.u.u.u.u.u.u.u.u.u.u.u.u.u.u.u.u.u.u.u.u.F u.u.u.u.u.u.u.u.u.u.u.u.u.u.u.u.u.u.u.u.u.u.u.u.u.u.",
"u.u.u.u.u.u.u.u.u.u.u.u.u.u.u.u.u.u.F u.u.u.u.u.u.u.u.u.u.u.u.u.u.u.u.u.u.u.u.u.u.u.u.u.u.u.u.u.u.F H u.u.u.u.u.u.u.u.u.u.u.u.u.u.u.u.u.u.F F F u.u.u.u.u.u.u.u.u.u.u.u.u.u.u.u.u.u.u.u.u.u.u.u.u.u.u.u.u.u.u.u.u.u.u.u.u.u.u.u.u.u.u.u.u.u.u.u.u.u.u.F F u.u.u.u.u.u.u.u.u.u.u.u.u.u.u.u.u.u.u.u.u.u.u.u.u.",
"u.u.u.u.u.u.u.u.u.u.u.u.u.u.u.u.u.u.u.u.u.u.u.u.u.u.u.u.u.u.u.u.u.u.u.u.u.u.u.u.u.u.u.u.u.u.u.u.u.F P ! ~ u.u.u.u.u.u.u.u.u.u.u.u.u.u.u.u.u.u.u.u.u.u.u.u.u.u.u.u.u.u.u.u.u.! ! ! ! u.u.u.u.u.u.u.u.u.u.u.F F F F u.u.u.u.u.u.u.u.u.u.u.u.u.u.u.u.u.u.F F F u.u.u.u.u.u.u.u.u.u.u.u.u.u.u.u.u.u.u.u.u.u.u.u.",
"u.u.u.u.u.u.u.u.u.u.F u.u.u.u.u.u.u.u.u.u.u.u.u.u.u.u.u.u.u.F F F R ~ ! ~ ! ! u.u.u.u.u.u.u.u.u.u.u.u.u.u.u.u.u.u.F F F F F u.u.u.! u.u.u.~ ~ ! u.u.u.u.u.u.u.u.u.u.u.u.u.u.! ! u.u.u.u.! u.u.u.u.u.u.u.u.u.u.u.u.u.u.u.u.u.u.u.u.u.u.u.u.! ! ~ u.u.u.u.u.u.u.u.u.u.u.u.u.u.u.u.u.u.u.u.u.u.u.u.u.u.u.u.u.u.",
"u.u.u.u.u.u.u.u.u.u.F F u.u.u.u.u.u.u.u.u.u.u.u.u.u.u.u.u.F F F G R ~ ! ~ ~ ! u.u.u.u.u.u.u.u.u.u.u.u.u.u.u.u.u.u.F F F F F u.u.! ~ u.u.! ! ! ! u.u.u.u.u.u.u.u.u.u.u.u.u.u.! ~ u.u.u.u.~ u.u.u.u.u.u.u.u.u.u.u.u.u.u.u.u.u.u.u.u.u.u.u.u.! ! ! ~ u.u.u.u.u.u.u.u.u.u.u.u.u.u.u.u.u.u.u.u.u.u.u.u.u.u.u.u.u.",
"F F u.u.u.u.u.u.u.u.u.u.u.u.! ~ ! ! ~ T F F F U ~ u.u.u.F u.u.u.u.u.u.u.u.! ! u.u.u.u.u.u.u.u.u.u.u.u.^ ~ ~ Y F F u.u.u.F F Y ! ! ! u.u.u.u.! ! u.u.D F F F F F F F u.u.! ! ! ! u.u.u.u.! u.u.u.u.u.u.u.u.u.u.! ~ u.u.u.u.u.u.u.u.u.u.~ ! ~ ~ u.u.u.u.u.u.u.u.u.u.F u.u.F F F F u.u.~ ! u.u.u.u.u.u.u.u.u.u.",
"F F u.u.u.u.u.u.u.u.u.u.u.u.! ! ! ~ ~ Y F F F Y ~ ! u.H F u.u.u.u.u.u.u.u.~ ! u.u.u.u.u.u.u.u.u.u.u.u.) ) ~ Y F F u.u.u.J J R ! ! ~ u.u.u.u.! ~ u.u.U I G G I I G F u.u.~ ! ~ ~ u.u.u.~ ! u.u.u.u.u.u.u.u.u.u.! ! u.u.u.u.u.u.u.u.u.u.! L K E u.u.u.u.u.u.u.u.u.u.F u.u.F F F F u.u.! ! u.u.u.u.u.u.u.u.u.u.",
"u.u.u.u.F F F F F F u.u.~ ~ ~ ! u.u.u.u.u.u.u.! ! ! ! u.u.#.$.u.u.u.u.u.u.u.u.! ~ ~ ! u.u.u.u.u.u.$.#.$. .~ Y F F u.u.u.! L ! ! u.u.u.u.u.u.! ! / ( +.#.u.u.@.@.u.u.u.u.! ! u.u.! ! ! ! ~ u.u.u.u.F F T ~ ~ ~ u.u.! ! u.u.u.u.u.u.F J ! R G P ! ! ! ~ u.u.u.u.u.u.u.u.u.F F u.u.u.u.~ ! ! ! u.u.u.u.u.u.F F ",
"u.u.u.u.u.F F F F F u.u.~ W Y E u.u.u.u.u.u.u.! ! _ ' u.u.$.$.$.u.u.u.u.u.u.u.' ' ~ / u.u.u.u.u.$.$.O.) ( ~ R F u.u.u.u.} ' ' ' u.u.u.u.u.u.u.^ Y T '  .u.u.$.$.u.u.u.X.' ) u.Y ~ ! ~ ! ~ u.u.u.u.P U K ~ ~ ! u.u.~ ! u.u.u.u.u.H P Y ! K F P ! ! ~ ~ u.u.u.u.u.u.u.u.u.F F u.u.u.u.! ! ! ~ ! u.u.u.u.G F F ",
"u.u.u.u.u.u.u.u.F F u.u.u.u.D T #.$.u.u.u.u.~ ~ ! } $.u.u.$.$.$.$.$.#.$.$.$.$.$.@.( ) @.$.$.$.$.$.$.[ F P ~ ~ u.u.u.$.#.$.$.$.$.u.u.u.u.u.u.u.u.F G W / u.u.u.u.$.$.$.$.$.` F I ~ ~ u.u.u.! ~ I F T / ^ ^ u.u.u.u.! ^ u.u.u.u.F H ! ~ ! ~ u.u.u.u.! ~ ! ! u.u.u.F F F F u.u.u.u./ ^ / ^ ~ ~ ~ ~ u.u.F F F F ",
"u.u.F F u.u.F F u.u.#.$.u.u.u.u.u.u.$.$.$.@.| ] u.o.$.$.$.u.u.u.u.E R O.$.$.$.$.$.u.u.$.@.` ` ` ) T W ` ] X.' ^ u.u.` ` ] u.$.$.W D F F u.u.$.#.{ ' | X.#.$.$.$.$.o.` ' u.E F I ^ / u.u.u.! ~ E R W ~ / u.u.u.F G K ! J J +.@.u.u.| X.| | u.u.u.u.u.! ~ T D F F F F F u. .$.$.$.O...u.u. .X.X.] J D F F u.u.",
"u.u.F F u.u.G G u.u.$.$.u.u.u.u.u.u.$.$.$.$.$.$.u.$.$.#.$.u.u.u.u.J J  .$.$.$.@.+.u.u.$.o.^ L ! R G R $.$.$. .( ) u.) / u.u.$.#.E J J J u.u.$.$.$.$.$.$.@.@.$.$.$.o.( ( u.u.D P ^ / u.u.u.^ W / ( ( ( u.u.u.u.P J ^ / P I +.$.u.u.@.#.$.$.u.u.u.u.u.u.( T J J J J J u.u.$.$.$.$.$.$.u.u.+.+.#.X.I J J J u.u.",
"u.u.u.u.F G K W u.u.#.$.$.$.$.$.$.#.$.$.$.$.$.$.u.$.$.$.$.$.$.$.$.+.+.#.$.$.+.U J F G u.u.H P ^ ^ W ^ u.u.u.u.@.#.$.#.@.u.u.$.$.+.O.O.O.#.$.$.#.$.$.u.u.) ) u.u.$.#.@.@.$._ F P ^ [ $.$.$.^ G ) @.@.@.u.u.$.$.+.o.@.@.O.+.#.$.u.u.( ` #.$.$.$.$.$.$.#.@.+.O.O.O.O.+.u.u.u.u.$.$.$.#.U F J P / ) O.O.O.O.u.u.",
"u.u.u.u.F H W ^ u.u.$.$.$.$.$.$.$.$.$.O.{ | $.u.u.u.$.$.#.$.$.$.$.$.$.$.$.$.+.P D F F u.u.F J ^ ^ / u.u.u.u.u.$.$.$.$.$.u.u.$.$.$.$.$.$.$.$.$.$.$.$.u.u.~ ! u.u.$.$.$.$.$.{ Y W _  .$.$.$._ U [ $.$.$.u.u.{ { { ' O.X.#.$.$.$.u.u.! ) #.$.$.$.$.+.{ O.$.$.$.$.$.$.$.u.u.u.u.X.X.#.@.I F F G K ( @.$.$.$.u.u.",
"u.u.F F u.u./ / u.u.$.$.$.$.u.u.u.u.u.u.G G u.u.u.u.u.u.u.u.u.$.$.u.u.u.u.u.u.u.u.F F F F u.u.u.u.u.u.u.u.u.u.$.$.u.u.u.$.$.$.$.$.$.u.u.u.u.u.u.u.u.$.$.u.u.u.u.u.u.u.u.u.u.$.$.$.$.$.$.$.$.$.$.$.u.u.u.u.G G F H W / u.u.u.u.$.$.u.u.u.u.u.u.u.u.F W $.$.$.$.$.$.$.u.u.u.u./ / u.u.u.u.u.u.u.u.u.u.u.u.u.u.",
"u.o 7 0 O + e e + ; g g h d         u.4 0 5                   s h : u.          O 7 8 8 7 .               u.u h i       p g g g h g > u.          @ f f @               u.> g g g g g g g g g g g y u.    6 0 0 0 t a @     = f f X           u.- 8 t g g g h h h h y u.    w t - u.                      u.",
"        o o     o o         o o   o   o   o   o o     o   o o       o   o   o   o o   o   o   o     o     o o       o   o         o   o     o   o o     o   o   o   o   o   o     o       o         o   o     o       o o o o     o   o   o   o o o o     o           o   o   o   o   o   o   o   o o       ",
"  o -.7.7.7.7.6.6.7.7.6.7.6.7.7.7.7.7.7.7.7.7.7.7.7.7.7.7.7.7.7.7.7.7.7.7.7.7.7.7.7.7.7.7.7.7.7.7.7.7.7.7.7.7.7.7.7.7.7.7.7.6.6.7.7.7.7.7.7.7.7.7.7.7.7.5.7.7.7.7.7.7.7.6.7.6.7.7.7.7.7.6.6.7.7.7.7.7.7.7.7.7.7.7.7.7.6.7.7.7.7.7.7.7.7.7.7.7.7.7.7.7.7.7.7.7.7.7.7.7.6.6.7.7.7.7.6.6.6.7.7.7.7.7.7.7.-.o   ",
"  o 9.y.t.y.y.t.y.t.t.y.y.t.t.t.y.t.y.t.y.t.y.t.y.t.t.y.t.y.y.t.t.y.y.t.y.t.t.y.t.y.t.t.t.y.t.t.y.y.t.y.t.y.y.t.t.t.y.t.y.t.y.t.t.y.t.t.t.t.t.y.t.y.y.t.y.t.y.t.t.y.y.t.y.t.t.t.y.t.y.t.y.t.t.y.t.y.t.t.y.t.y.t.y.t.t.y.y.t.t.y.t.y.t.t.y.t.t.t.t.t.t.t.y.t.t.y.t.t.y.y.t.t.t.t.t.y.t.y.t.t.y.t.t.y.y.9.o   ",
"  o 9.y.t.t.t.t.t.t.r.t.t.t.r.t.r.t.t.t.r.t.t.t.r.t.t.t.t.t.r.t.r.t.t.t.r.t.t.t.t.t.t.t.t.t.t.r.r.t.r.t.t.t.r.t.t.t.t.t.t.t.t.t.t.t.t.t.t.t.t.t.t.t.t.t.t.t.t.t.t.t.t.r.r.t.t.r.t.t.t.t.t.t.r.t.t.t.t.t.r.t.t.t.r.t.t.r.t.t.t.r.t.t.t.r.t.t.t.t.t.t.t.t.t.t.t.t.t.r.t.r.t.t.t.t.t.t.t.r.t.t.t.t.t.t.t.9.o   ",
"  o 8.t.r.t.t.r.t.t.t.t.t.t.t.t.r.t.t.t.r.t.t.t.t.t.r.t.t.r.t.t.t.t.t.r.t.t.r.t.t.t.t.t.t.t.t.t.t.t.t.t.t.r.t.t.t.t.t.t.t.t.t.r.t.t.t.t.t.t.t.t.t.t.t.t.t.t.t.t.r.t.t.t.t.t.t.t.t.t.t.t.t.t.t.t.t.t.t.t.t.t.t.t.t.t.t.t.r.t.t.t.t.t.t.t.t.t.t.t.t.t.t.t.t.t.t.t.t.t.t.t.t.t.t.t.t.t.t.t.t.t.t.t.t.r.y.8.o   ",
"  o 8.y.t.t.t.r.t.t.r.t.t.t.r.t.t.t.t.r.t.t.t.t.t.t.t.t.t.t.t.t.t.r.t.t.r.t.t.t.t.t.t.t.t.t.t.t.t.t.t.t.t.t.y.t.t.t.t.t.t.t.t.r.t.t.t.t.t.t.t.t.t.t.t.t.t.t.t.t.t.t.y.t.t.t.t.t.t.t.t.t.t.t.y.t.t.t.t.t.t.t.t.t.t.t.t.t.t.t.t.t.t.t.t.t.t.t.t.r.t.t.t.t.t.t.t.t.t.t.r.t.t.t.t.r.t.t.r.t.t.t.t.r.t.t.t.9.o   ",
"  o 9.t.t.t.t.t.t.t.t.t.t.t.t.t.t.t.t.t.r.t.t.r.t.r.t.t.r.t.r.t.t.t.t.t.t.t.t.t.w.Z M M M M M M -.r.t.t.8.M M M M M N N M M 8.y.t.r.-.M M N M M M C w.t.y.q.C M M M M N M >.t.r.t.7.M M M M M M M M N 9.t.t.r.&.M M C w.t.t.r.t.t.t.t.r.r.t.t.t.t.r.t.t.t.r.r.t.t.t.t.t.r.t.t.t.t.t.t.t.r.t.t.t.t.r.y.8.o   ",
"  o 9.t.t.t.t.t.t.r.t.r.r.t.t.t.t.t.t.t.t.t.t.t.t.t.r.t.t.r.t.t.t.t.t.t.t.t.t.t.q.% . o o o o o j r.t.t.1.o o o       o o o <.t.t.r.3     o o     % q.t.t.9.$   o o       z t.t.t.-.. o o       o o o 5.t.t.e.1     $ 0.t.t.r.t.t.t.t.t.t.t.t.t.t.t.t.r.t.r.t.t.r.t.t.r.t.t.t.t.t.t.t.t.t.t.t.t.t.t.t.9.o   ",
"  o 8.t.t.t.r.t.t.t.t.t.t.t.t.r.t.t.r.t.t.t.r.t.t.r.t.t.t.t.t.t.r.t.t.t.r.t.r.y.q.& & 5.9.8.8.8.0.r.t.t.w.9.8.8.M   M 9.8.8.w.t.t.r.j   >.9.8.7.& % q.t.t.0.o , 7.9.9.=.  c t.t.t.w.8.9.9.b   B 9.8.8.e.t.t.e.1     $ 0.t.t.t.t.t.r.t.t.t.t.r.t.t.r.t.t.t.t.t.t.t.t.t.t.t.t.t.r.t.t.t.r.t.r.t.t.t.r.t.9.o   ",
"  o 9.t.t.t.t.t.t.t.t.r.t.t.r.t.t.r.t.t.t.r.t.t.t.t.t.t.t.t.r.t.t.t.t.t.t.t.r.t.q.& , w.y.t.y.t.t.t.t.t.t.t.y.y.&.  S y.t.t.t.t.t.r.l   7.y.t.w., % 0.y.y.9.$ < e.t.y.5.  v r.t.t.t.t.t.y.C   -.y.y.t.t.t.t.e.2     $ 0.t.t.t.t.t.t.t.t.r.t.t.t.r.t.t.t.r.t.t.t.t.r.t.t.t.r.t.t.t.t.t.t.t.t.r.t.t.t.t.8.o   ",
"  o 9.t.t.r.t.r.t.t.t.t.t.t.t.t.t.t.t.t.t.t.t.r.t.r.r.t.t.t.t.t.t.r.r.t.t.t.t.t.q.& , w.y.t.t.y.t.r.t.t.t.t.t.t.Q   S t.t.t.t.t.t.r.j   8.y.y.e.< $ q.t.t.0.o 1 r.y.y.5.  c t.t.t.t.t.t.t.B   -.y.r.t.t.t.t.e.2     $ 0.t.t.t.t.r.t.t.r.t.t.t.t.t.t.t.t.t.t.t.r.t.t.t.t.t.t.t.r.t.r.r.t.t.t.t.t.t.r.y.8.$   ",
"  o 8.y.t.t.t.t.r.t.t.t.t.t.t.t.r.t.t.r.t.r.t.t.t.r.t.t.t.r.t.r.t.r.t.t.r.t.t.t.q.& % %.-.-.;.;.5.r.r.t.t.t.r.t.Q   S t.t.t.t.t.t.r.j   B ;.-.&.% % q.t.t.0.$ & &.-.-.M   x r.t.t.t.t.r.t.B   -.t.t.t.t.t.t.e.2     $ 0.t.t.t.r.t.t.t.t.t.t.t.t.t.t.t.r.t.t.t.t.r.t.t.r.t.r.t.t.t.r.t.t.t.r.t.r.t.r.y.9.o   ",
"  $ 8.t.t.t.r.t.t.t.r.t.t.t.t.r.t.t.t.r.t.t.t.t.t.t.t.t.t.t.t.r.t.t.t.t.t.t.t.r.q.&             3 r.t.r.t.t.t.y.&.  S t.t.r.t.r.t.e.j             % 0.t.y.9.$             v r.r.t.t.t.t.y.B   -.y.r.t.r.t.t.e.2     $ 0.t.t.t.t.t.r.t.t.t.r.t.r.r.t.t.t.t.r.t.t.t.t.t.r.t.t.t.t.t.t.t.t.t.t.t.r.t.t.t.8.o   ",
"  o >.8.8.8.8.8.8.8.8.8.8.8.8.8.8.8.8.8.8.8.8.8.8.8.8.8.8.8.8.8.8.8.8.8.8.7.8.8.6.V M M M N x   < 8.8.8.8.8.8.8.M   m 8.8.8.8.8.8.7.2   z N N n $ $ 4.8.8.1.o         & M &.8.8.8.8.8.8.8.b   B 8.8.8.8.8.8.7.,     $ 1.8.8.8.8.8.8.8.8.8.8.8.8.8.8.8.8.8.8.8.8.8.8.8.8.8.8.8.8.8.8.8.8.8.8.8.8.8.8.8.>.o   ",
"    S 1.<.1.<.1.<.<.2.<.<.<.2.<.1.1.<.1.<.1.<.1.<.1.1.<.<.<.2.<.<.2.2.<.<.2.2.<.1.2.3.2.2.3.S   < <.<.1.<.1.1.2.v   c 1.1.1.1.<.1.<.<   A 4.4.>.% o &.1.1.%.o   o o   < ;.>.<.1.<.1.<.<.1.l   b 2.1.<.1.<.1.>.1 o o & &.1.1.<.1.1.<.<.1.<.<.2.<.,.2.<.<.<.2.<.<.1.1.<.1.<.1.<.1.<.1.1.<.<.<.2.<.<.1.3.S o   ",
"  o A 2.1.1.1.1.2.2.<.2.2.2.<.2.1.1.1.1.1.1.1.1.2.1.1.1.2.2.2.2.2.2.2.2.2.<.2.<.2.2.2.2.3.3.S   < <.1.1.1.1.1.3.v   c 2.1.1.1.1.1.1.<   Z 1.1.:.& o =.1.2.&.o & %.M     $ j 2.3.1.1.1.1.2.l   n 3.1.1.1.1.1.<.-.*.*.=.<.1.1.1.1.1.1.1.1.2.1.1.1.2.2.2.2.2.<.2.2.1.1.1.1.1.1.1.1.2.1.1.2.2.2.2.2.1.1.2.S     ",
"  o S 2.1.2.1.1.<.2.2.2.<.<.2.2.1.1.1.1.1.1.1.2.1.1.1.2.2.<.<.2.2.<.<.2.2.2.2.2.,.A C Z Z Z n   < <.1.1.1.1.1.3.v   v 1.1.1.1.1.1.<.< o Z 1.1.:.& $ =.2.3.&.  , <.&.< &   , Z &.1.1.1.1.1.k   n 3.1.1.1.1.2.<.%.Z A A <.1.1.1.1.1.1.1.1.2.1.1.1.2.<.<.2.2.2.2.<.1.1.1.1.1.1.1.2.1.1.1.1.2.<.<.2.1.1.3.S o   ",
"  o Q 2.2.<.<.2.2.2.2.<.2.<.2.2.1.1.1.1.1.1.1.1.1.1.1.1.1.1.1.1.1.1.1.1.1.1.1.2.=.%             < <.1.1.1.1.1.3.v   c 2.1.1.1.1.1.<.<   Z 2.1.>.% o =.1.3.&.o & >.1.1.B       3 1.1.1.1.4.k   n 3.1.1.1.1.1.,.,     $ &.2.1.1.1.,.2.,.2.,.2.,.2.2.2.,.2.2.2.2.2.1.1.1.1.1.1.1.1.1.1.1.1.1.1.1.1.1.1.3.S o   ",
"    Q 2.2.2.2.2.2.<.2.<.2.2.2.<.1.1.1.1.1.2.1.1.1.1.1.1.1.1.1.1.1.1.1.1.1.1.1.2.>.v z z z z z z m 1.1.1.1.1.1.1.Z l Z 1.1.1.1.1.1.1.M z =.1.1.,.b v >.1.1.;.v n <.1.3.&.z z l N 1.1.1.1.1.C l S 1.1.1.1.1.1.<.n z z v :.2.1.1.1.2.2.2.2.2.2.2.2.2.,.2.2.2.,.2.,.1.1.1.1.1.2.1.1.1.1.1.1.1.1.1.1.1.1.3.S o   ",
"  o Q 2.<.2.2.<.2.2.2.2.2.2.2.<.1.1.1.1.1.1.1.1.1.1.1.1.1.1.1.1.1.1.1.1.1.1.1.1.2.2.2.2.2.2.2.2.2.1.1.2.1.1.1.1.1.2.2.1.1.1.1.1.1.1.1.2.1.1.1.1.3.2.1.1.1.1.2.2.1.1.1.1.2.2.3.2.1.1.1.1.1.1.2.1.1.2.1.1.1.1.1.3.2.2.2.1.1.1.1.1.2.2.,.2.2.2.,.2.2.2.2.2.,.2.2.2.1.1.1.1.1.1.1.1.1.1.1.1.1.1.1.1.1.1.2.S     ",
"  o Z 2.2.2.2.2.2.<.<.2.2.<.2.2.1.1.1.1.1.1.1.1.1.1.1.1.1.2.1.1.1.1.1.1.1.1.1.1.2.1.1.1.1.1.1.2.1.1.1.1.1.1.1.1.1.1.1.1.1.2.1.1.1.1.1.1.1.1.1.1.1.1.1.1.1.1.1.1.1.1.1.2.1.1.1.1.1.1.1.1.1.1.1.1.1.1.1.1.1.1.1.1.1.1.1.1.1.1.1.1.2.,.2.2.2.,.2.2.2.,.2.,.2.2.2.,.1.1.1.1.1.1.1.1.1.1.1.1.2.1.1.1.1.1.3.S o   ",
"  o S 3.2.2.<.<.2.<.<.2.<.<.2.2.1.1.1.1.1.1.1.1.1.1.1.1.1.1.1.1.1.1.1.1.1.1.1.1.1.1.1.1.1.2.<.2.1.1.1.1.1.1.1.1.1.1.1.1.1.1.1.1.1.1.1.1.1.1.1.1.1.1.1.1.1.1.1.1.1.1.1.1.1.1.1.1.1.1.1.1.1.1.1.1.1.1.1.1.1.1.1.1.1.1.1.1.1.1.1.1.2.2.2.2.,.2.2.2.2.2.2.2.2.2.2.2.1.1.1.1.1.1.1.1.1.1.1.1.1.1.1.1.1.1.2.S o   ",
"    S 2.<.2.2.2.2.2.2.2.2.2.2.<.1.1.1.1.1.1.1.1.1.1.1.1.1.1.1.1.1.1.1.1.1.1.1.1.1.1.1.1.1.1.1.2.1.1.1.1.1.1.1.1.1.1.1.1.1.1.1.1.1.1.1.1.1.1.1.1.1.1.1.1.1.1.1.1.1.1.1.1.1.1.1.1.1.1.1.1.1.1.1.1.1.1.1.1.1.1.1.1.1.1.1.1.1.1.1.1.2.,.2.,.2.2.2.,.2.,.2.,.2.,.2.,.1.1.1.1.1.1.1.1.1.1.1.1.1.1.1.1.1.1.2.S o   ",
"  o S 3.<.2.2.2.<.2.2.<.2.2.2.<.1.1.1.1.1.1.1.1.1.1.2.1.1.1.1.1.1.1.1.2.1.1.2.1.1.1.1.1.1.1.1.1.1.1.1.1.1.1.2.1.1.1.1.1.1.1.1.1.1.1.1.1.1.1.1.1.1.1.1.1.1.1.1.1.1.1.1.1.1.1.1.1.1.1.1.1.1.1.1.1.1.1.1.1.1.1.1.1.1.1.1.1.1.1.1.1.2.,.2.2.,.2.2.2.,.2.2.2.2.,.2.2.1.1.1.1.1.1.1.1.1.1.2.1.1.1.1.1.1.1.2.S     ",
"  o Q 3.2.2.2.2.2.2.2.2.2.2.2.2.3.1.3.2.2.3.2.2.2.2.2.3.2.2.1.1.2.2.2.2.2.2.2.2.2.2.2.2.2.2.2.2.2.2.2.2.2.2.2.2.2.2.2.2.2.2.1.1.3.3.2.2.2.2.2.2.2.2.2.2.2.3.2.2.2.3.2.2.2.2.2.3.2.2.2.2.2.3.1.1.2.2.3.2.2.2.2.2.2.2.2.2.3.2.2.2.2.2.2.2.2.2.2.2.2.2.2.2.2.2.2.2.3.1.3.2.2.3.2.2.2.2.2.3.2.2.1.1.3.2.3.Q o   ",
"    1 j j j j j j j j j j j j j j j j j j j j j j j j j j j j j j j j j j j j j j j j j j j j j j j j j j j j j j j j j j j j j j j j j j j j j j j j j j j j j j j j j j j j j j j j j j j j j j j j j j j j j j j j j j j j j j j j j j j j j j j j j j j j j j j j j j j j j j j j j j j j j j j j 1     ",
"                                                                                                                                                                                                                                                                                                            "
};
