/* XPM */
static char *_fa76727cd3f429da38e3448a5afc5f5spw6fPxOH66X7Br4[] = {
/* columns rows colors chars-per-pixel */
"50 50 162 2 ",
"   c None",
".  c #030303",
"X  c #06040A",
"o  c #08060D",
"O  c #0A080D",
"+  c #070310",
"@  c #0A0614",
"#  c #0C0816",
"$  c #0D071B",
"%  c #0E081C",
"&  c #110B1E",
"*  c #0F0720",
"=  c #100721",
"-  c #120924",
";  c #160B2C",
":  c #180C2F",
">  c #171024",
",  c #1A1327",
"<  c #1B132C",
"1  c #1E182C",
"2  c #1A0D34",
"3  c #1E0E3B",
"4  c #1E1531",
"5  c #200F3F",
"6  c #201635",
"7  c #201830",
"8  c #21143B",
"9  c #210F42",
"0  c #221044",
"q  c #26124B",
"w  c #28134F",
"e  c #271150",
"r  c #291353",
"t  c #2E1A55",
"y  c #2E165C",
"u  c #301B57",
"i  c #311B5C",
"p  c #332155",
"a  c #35225B",
"s  c #321763",
"d  c #341A63",
"f  c #341869",
"g  c #381A6F",
"h  c #3A1B74",
"j  c #3F1D7F",
"k  c #3C1C78",
"l  c #3A2464",
"z  c #3C2862",
"x  c #3E276A",
"c  c #3F296A",
"v  c #401D7F",
"b  c #402A6A",
"n  c #432D6E",
"m  c #442B73",
"M  c #472B7B",
"N  c #482C7D",
"B  c #4A3474",
"V  c #4D347D",
"C  c #431F85",
"Z  c #431E86",
"A  c #47218D",
"S  c #4A258F",
"D  c #4F2F8C",
"F  c #523981",
"G  c #543B82",
"H  c #533984",
"J  c #54368D",
"K  c #55388B",
"L  c #593E8C",
"P  c #4A2690",
"I  c #4E2994",
"U  c #4F289A",
"Y  c #512D95",
"T  c #532E9A",
"R  c #553394",
"E  c #593D90",
"W  c #563299",
"Q  c #59369B",
"!  c #5F3F9C",
"~  c #542BA2",
"^  c #592FA7",
"/  c #5A2EAC",
"(  c #5A33A6",
")  c #5931A6",
"_  c #5F3CA1",
"`  c #5B32A8",
"'  c #5F2DBB",
"]  c #603DA2",
"[  c #612EBF",
"{  c #6337B7",
"}  c #633AB0",
"|  c #663EB1",
" . c #683DB9",
".. c #5D4290",
"X. c #5E4391",
"o. c #5D4192",
"O. c #5F4099",
"+. c #6540AB",
"@. c #6942B4",
"#. c #6B42B9",
"$. c #632EC3",
"%. c #6535C1",
"&. c #6A39C6",
"*. c #6730CC",
"=. c #6933CE",
"-. c #6F37D5",
";. c #6C36D1",
":. c #6E3AD0",
">. c #6F3AD3",
",. c #6F39D3",
"<. c #723CD7",
"1. c #733FD6",
"2. c #723DD5",
"3. c #733DD8",
"4. c #754DC1",
"5. c #754BC5",
"6. c #7140CD",
"7. c #7A50C9",
"8. c #7E54CE",
"9. c #7441D6",
"0. c #7D4ED4",
"q. c #7742DB",
"w. c #7642D8",
"e. c #7943DC",
"r. c #7B47DC",
"t. c #7946DA",
"y. c #7C48DF",
"u. c #7D4ADD",
"i. c #7D51D1",
"p. c #7D48E1",
"a. c #7F4CE1",
"s. c #8055CF",
"d. c #8255D6",
"f. c #8258D1",
"g. c #8354DB",
"h. c #875ADB",
"j. c #885CDA",
"k. c #895DDC",
"l. c #895BDD",
"z. c #804CE0",
"x. c #814EE1",
"c. c #824FE1",
"v. c #824EE2",
"b. c #814DE2",
"n. c #8552E5",
"m. c #8553E4",
"M. c #8856E7",
"N. c #8758E0",
"B. c #8A5AE6",
"V. c #8754E8",
"C. c #8955E9",
"Z. c #8956E9",
"A. c #8A58EA",
"S. c #8F5CEF",
"D. c #8C5AEB",
"F. c #905DEE",
"G. c #905EEF",
"H. c #925FF2",
"J. c #905CF0",
"K. c #9562F4",
"L. c #9664F5",
"P. c #9462F2",
/* pixels */
"  . . . . . . . o @ - ; 2 2 2 3 5 9 q 9 5                 . . . . . . . . . X + $ ; 9 r f h h f y   ",
". . . . . . . . + # ; : 2 3 5 5 9 w w q 5                 . . . . . . . . . X # - 3 e f k C C k y r ",
". . . . X . . . O # - : 2 2 3 9 q r r r 9 5   o . . .   . . . . . O . O . . O # - 3 r f v A A j f e ",
". . . . . O . . O @ % - ; : 2 2 9 r r r 9 9   + . . .   . . . . . O . . . X O # - 2 q s h C C h y 9 ",
". . O . . . O . X O # % % & - : 5 q r r 9 9 - + 1 1 . . . . . . . O . . . X O @ & ; 8 w s g g f e 3 ",
". . . . . O O . . X O O @ @ # - 2 9 q e 9 2 = + ..... . . . . . . O . O . . . X o & ; 2 q r y r 9 : ",
". . . O . O . O . . X . X X X % ; 2 9 9 5 : $ 6 j.j.1 . . . . O . . O . . O . . X o # - 2 8 9 0 3 ; ",
". . . O . . . . . . . . . . . @ & ; 2 6 : - @ H K.K.F . . . X . O . . . . . . . . . X # - ; 2 3 2 ; ",
". . . . O . . . . . . . . . . X # & - - * @ < 7.S.H.f., . . . . . . O . . . . . . . . X % - ; 4 : ; ",
". . . . . . O . .         . . . X @ # @ @ X c a.n.A.F.B . . . . X O O . .         . . X # % ; ; - = ",
". . X X . O . . .         . . X . X o X X % } w.r.b.C.4.> . . O X . X X .         . . . @ # & & $ @ ",
". . . . . O . . .         . . . . X . X . u ,.,.9.r.a.b.a . . X . X O X .         . . . . o O # @ X ",
". . . . . O . . .         . . . X . X . # ( -.-.<.t.u.p.@.& . O . o X X .         . . . . O . . . . ",
". . X X O . . . . . . . . . . X O O O . 1 J R R R Q R R K 7 . X X X . X . . . . . . . . . . . . . . ",
". . . . . . O . . . . . . X X @ @ # o o X O O O % % % % % @ @ X o X X X . . . . . . . . . O . . . . ",
". . . . O . . . . . . . . o @ $ - = % # O O @ % - ; ; ; - - & $ + X . X . . . . . . . . . O . . . . ",
". . . . . . . . O . . X O # % 0 : ; - % @ @ $ - 2 3 3 3 2 2 ; - $ @ > X . . . . . O . . X . . . . . ",
". . O O . X O . . . X . O # - _ N 2 ; - # # - 2 5 q q 0 8 3 2 ; & l K o O X X . . . O . . . . . . . ",
". . O . O . . . . . . X X @ - @.B.N ; - # $ ; 5 q w q q 8 3 2 ; x g._ X . . . . . O . . . . . . . . ",
". . . . . . . . . . . . X + * +.S.M.c # @ $ 2 3 q q e 0 9 3 2 c g.V.Q X . X X X . . . . . . . . . . ",
". . . . . . . . . . . . - 4 $ _ V.A.g.l @ % 2 3 q q 0 3 2 ; c M.A.m.Y o 4 % . . . . . . . . . . . . ",
"    . . . . . . . . & c #.Q @ W a.a.a.6.y * ; 3 9 0 3 2 - l 0.S.A.b.Y @ T ` i & . . . . . . . .     ",
"        . . . . < B 4.m.p.U o I 9.w.w.>.%.s ; 2 3 3 2 - y &.a.H.C.p.I @ W ,.9.#.B , . . . .         ",
"    . . . X 4 K d.S.M.t.9.U X P ,.>.9.;.*.$.f ; ; 2 - y [ ;.u.D.B.a.Y + Y ,.9.a.B.8.G 4 . . . .     ",
"    . . < O.l.K.P.D.m.t.9.I X P -.,.6.;.*.*.$.s * * r [ *.=.w.M.A.a.I o R ,.9.u.A.H.K.h..., . .     ",
"    . . < E j.K.P.D.m.w.<.I + P ,.9.9.;.*.*.[ e # @ q ' *.=.9.M.V.a.Y O Y ,.9.u.A.P.K.j.L < . .     ",
"      . . . < V 8.G.m.t.<.U X I q.y.u.6.=.[ q + @ @ X q [ ;.t.M.M.a.I o R -.<.u.B.8.J 4 @ + +       ",
"        . . . X , c #.w.<.T o I t.a.a.y.%.q @ $ $ # @ X q %.a.B.M.m.I o D ,.9.@.m 8 * * * -         ",
"    . . . . . . . . & a ) T o Y p.m.D.0.t + * - - - * $ @ u i.S.A.n.Y o D ^ a : $ ; : 2 2 2 2 ; ;   ",
". . . . . . . . X . . . @ 4 X T a.B.i.l $ - ; ; 2 2 - - - % l h.S.V.W X < @ X @ - 2 5 9 q 9 9 3 ; - ",
". . . O . O . . . O X X X . X Q A.0.z $ - 2 2 3 2 2 ; ; 2 ; - l d.A.W X . . + $ - 3 9 q e q 0 3 ; = ",
". . . . X . . . O . . X . X + ] 0.a # - ; 2 3 3 3 2 2 2 2 2 ; * l g._ X . X X $ - 3 5 q q q 9 3 ; * ",
". X . . . O . . . O . O . . O ..p + $ ; 2 3 3 3 2 : : : 2 2 : - @ a J o . . X @ * ; 2 5 9 5 3 2 - $ ",
". . O . . O . O . . O . . . . & X @ * ; : 2 2 : ; - ; ; : ; ; * @ X % X . . . X @ & ; : 2 : ; - @ + ",
". O . . . . O . O . O . . . . . X + $ - ; ; ; - % $ @ * - - * @ + X X . . . . . X @ @ $ * = $ @ o X ",
". . . O O . . . . . . . . . . . . o @ $ - ; - * $ $ @ % - * @ X X . . . . . . . . . X + + + X X . . ",
". . . O . O . . . . . . . . . . . X X X 5 U ~ ~ ~ ^ ) ( ~ 8 X X . . . . . . . . . . . O . O . . . . ",
". . . . . . . . .         . . . . . . X $ / ;.=.;.,.>.2./ $ . X X . . . .         . . . . . . . . . ",
". . . X O . . . .         . . . . . . X . d =.,.>.9.9.2.i . . . . . X . .         . . . . . . X . . ",
". . . . . . O . .         . . . X . . . . - { w.w.r.r. .- . . X . . X . .         . . . . . X . . . ",
". . O . . . . . .         . . . . . O . . . m b.g.m.M.m . . . . . . . O .         . . . . . X . . . ",
". . . . O . . . . . . . . . . . . O . . . . < 0.S.S.i.; . . . . . . . . . . . . . . . . . . . . . . ",
". . . . . . . . . . . . . . . . . . . . . . . J P.P.J . . . . . . O . . . . . . . . . . O . . . . . ",
". . O . . . O . . . . . . . . . . . . . . . . 4 h.j.4 . . . . . . . . . . . . . . . . . . . . O . . ",
". . . . . O . . . . . . . . . . . . O . . . . . ! O.X . . . . . . . O . . O . O . . O . . . . . . . ",
". . . . . . . . O . O . . . . . . . X . . . . . 4 3 . . . . . . . . . . . . . . O . . . . O O . . . ",
". . . O O . . . . . . O . X . . . . . . . .   . . . .   . . . . . . O . O . . . . . . . . . . . . . ",
". . . . . . . O . . . . . O . . . . . . . .     . .     . . . . . O . . . . . O . . O . . O . . . . ",
". . . . . . . . . . . . . . . . . . . . .                 . . . . . . . . . . . . . . . . . . . . . ",
"  . . . . . . . . . . . . . . . . . . . .                   . . . . . . . . . . . . . . . . . .     "
};
