/* XPM */
static char *result[] = {
/* columns rows colors chars-per-pixel */
"50 50 131 2 ",
"   c #000000",
".  c #060109",
"X  c #09000C",
"o  c #0C090E",
"O  c #0C0012",
"+  c #0E011A",
"@  c #100014",
"#  c #13011C",
"$  c #18001F",
"%  c #110022",
"&  c #1C0023",
"*  c #17002D",
"=  c #1F0028",
"-  c #1A0033",
";  c #1E0339",
":  c #24002C",
">  c #231A2C",
",  c #260030",
"<  c #290033",
"1  c #31003D",
"2  c #281D32",
"3  c #27143A",
"4  c #2C2236",
"5  c #2F233B",
"6  c #34283F",
"7  c #230045",
"8  c #26014C",
"9  c #28014F",
"0  c #350042",
"q  c #380047",
"w  c #3C004C",
"e  c #31134F",
"r  c #3F0050",
"t  c #31025F",
"y  c #352546",
"u  c #3D2B4F",
"i  c #320261",
"p  c #3B0074",
"a  c #3E0279",
"s  c #430054",
"d  c #47005A",
"f  c #4C005F",
"g  c #4E0062",
"h  c #510066",
"j  c #54006A",
"k  c #58006F",
"l  c #5B0073",
"z  c #5F0078",
"x  c #62007C",
"c  c #543C6C",
"v  c #56406B",
"b  c #5F437B",
"n  c #604679",
"m  c #624A7A",
"M  c #4B0195",
"N  c #650080",
"B  c #690085",
"V  c #6D008A",
"C  c #770196",
"Z  c #780197",
"A  c #7D009E",
"S  c #552485",
"D  c #5301A4",
"F  c #5E01B9",
"G  c #7F01A0",
"H  c #6001BE",
"J  c #6A4C87",
"K  c #6D4D8C",
"L  c #6E5388",
"P  c #71548D",
"I  c #735392",
"U  c #79569B",
"Y  c #7C5C9B",
"T  c #6301C4",
"R  c #6801CD",
"E  c #6E01DA",
"W  c #7101DF",
"Q  c #7C1FD7",
"!  c #7426C1",
"~  c #772CC1",
"^  c #7F25D7",
"/  c #7301E3",
"(  c #7601E9",
")  c #7802EB",
"_  c #7D0DEB",
"`  c #7F12EB",
"'  c #7B02F3",
"]  c #8000A2",
"[  c #8F01B5",
"{  c #9001B6",
"}  c #9500BC",
"|  c #8654B6",
" . c #8857B7",
".. c #8B5EB7",
"X. c #8F62BA",
"o. c #956CBD",
"O. c #9900C1",
"+. c #9F01C9",
"@. c #A001CA",
"#. c #AC01D9",
"$. c #8201FF",
"%. c #8717F6",
"&. c #8817F5",
"*. c #8B1DF6",
"=. c #B501E5",
"-. c #BC01ED",
";. c #BE01F0",
":. c #8524E4",
">. c #9D34FF",
",. c #A23EFF",
"<. c #C301F6",
"1. c #C401F8",
"2. c #CB01FE",
"3. c #924AD8",
"4. c #9653D8",
"5. c #9769C4",
"6. c #9E74C7",
"7. c #A344FF",
"8. c #A94FFF",
"9. c #AD55FF",
"0. c #B074EA",
"q. c #AF66F5",
"w. c #B069F6",
"e. c #B462FF",
"r. c #BB6FFF",
"t. c #B474F3",
"y. c #BA71FF",
"u. c #C07CFF",
"i. c #B780EC",
"p. c #BB83F2",
"a. c None",
/* pixels */
"a.a.a.a.a.a.a.a.a.a.a.a.a.a.a.a.a.a.a.a.a.a.a.a.      a.a.a.a.a.a.a.a.a.a.a.a.a.a.a.a.a.a.a.a.a.a.a.",
"a.a.a.a.a.a.a.a.a.a.a.a.a.a.a.a.a.a.a.a.a.a.a.            a.a.a.a.a.a.a.a.a.a.a.a.a.a.a.a.a.a.a.a.a.",
"a.a.a.a.a.a.a.a.a.a.a.a.a.a.a.a.a.a.a.a.a.a.a.a.  + 8 .     a.a.a.a.a.a.a.a.a.a.a.a.a.a.a.a.a.a.a.a.",
"a.a.a.a.a.a.a.a.a.a.a.a.a.a.a.a.a.a.a.a.a.a.a.a.  O F D %     a.a.a.a.a.a.a.a.a.a.a.a.a.a.a.a.a.a.a.",
"a.a.a.a.a.a.a.a.a.a.a.a.a.a.a.a.a.a.a.a.a.a.a.a.    p $.T *     a.a.a.a.a.a.a.a.a.a.a.a.a.a.a.a.a.a.",
"a.a.a.a.a.a.a.a.a.a.a.a.a.      a.a.a.a.a.a.a.a.a.  % / $.R *     a.a.a.a.a.a.a.a.a.a.a.a.a.a.a.a.a.",
"a.a.a.a.a.a.a.a.                            a.a.a.    M $.$.T %     a.a.a.a.a.a.a.a.a.a.a.a.a.a.a.a.",
"a.a.a.a.a.a.a.      @ , q s d s q , # .         a.    7 ' $.$.D .   a.a.a.a.a.a.      a.a.a.a.a.a.a.",
"a.a.a.a.a.a.a.    & A -.2.2.1.2.<.-.#.{ x 1 O         X F $.$.$.p     a.a.a.a.a.        a.a.a.a.a.a.",
"a.a.a.a.a.a.a.      # g { ;.2.2.2.2.2.2.2.<.@.x @       % F $.$./ -     a.a.a.    &     a.a.a.a.a.a.",
"a.a.a.a.a.a.a.a.a.      . 1 C =.<.=.<.<.2.2.2.2.k   .     + T $.$.D .   a.a.a.  $ A @   a.a.a.a.a.a.",
"a.a.a.a.a.a.a.a.a.a.a.        = < : , 0 g V } =.} X 1 w .   - E $.) 7     a.    f -.,   a.a.a.a.a.a.",
"a.a.a.a.a.a.a.a.a.a.a.a.a.        # 9 ; + . X : j = & { k X   7 / $.D     a.  . { 1.q   a.a.a.a.a.a.",
"a.a.a.a.a.a.a.a.a.a.a.            ; _ &.:.! S 3 .     x } l X   9 ) ( *       1 ;.2.d     a.a.a.a.a.",
"a.a.a.a.a.a.a.a.a.      . * p a . + Q >.7.9.e.w.| u . $ l A j X   i ' p       C 2.2.d     a.a.a.a.a.",
"a.a.a.a.a.a.a.a.    . 7 D / ' t     e 3.y.0.X.K b c >   X r B w     i a     : =.2.1.s     a.a.a.a.a.",
"a.a.a.a.a.a.  .   ; D ) $.) i         y J 2 .             . 0 h O     .     < ;.2.1.q   a.a.a.a.a.a.",
"a.a.a.a.a.    . p / $.$./ 9     O : O                       . 1 :     + ; + : -.2.-.,   a.a.a.a.a.a.",
"a.a.a.a.    % D $.$.$.W 7   X w h 0 X       a.a.a.a.a.a.      X O   e Q _ 9 : ;.2.#.#   a.a.a.a.a.a.",
"a.a.a.    * T $.$.$.T -   X j V q .     a.a.a.a.a.a.a.a.a.a.      y 3.>.%.; 0 <.2.[ .   a.a.a.a.a.a.",
"a.a.    * R $.$.$.F +   X x A s .     a.a.a.a.a.a.a.a.a.a.a.a.    I r.7.:.% f 2.2.x     a.a.a.a.a.a.",
"a.    # T $.$.' F %   . l O.l X       a.a.a.a.a.a.a.a.a.a.a.a.    5 t.9.! . V 2.<.0     a.a.a.a.a.a.",
"a.  . D $.W M 7 .     w { x &       a.a.a.a.a.a.a.a.a.a.a.a.a.a.  o 5.e.S . } 2.@.@   a.a.a.a.a.a.a.",
"    9 F a %         . 0 &   o >     a.a.a.a.a.a.a.a.a.a.a.a.a.a.    U w.3 : =.2.x     a.a.a.a.a.  a.",
"    + O               X =   u v     a.a.a.a.a.a.a.a.a.a.a.a.a.a.    J  .. j } l @   a.a.a.          ",
"          a.a.a.  @ k } j . ..m     a.a.a.a.a.a.a.a.a.a.a.a.a.a.    m u   = X               O +     ",
"a.  a.a.a.a.a.    x 2.-.: 3 t.I     a.a.a.a.a.a.a.a.a.a.a.a.a.a.    4 .   & 0 .         % p F 9     ",
"a.a.a.a.a.a.a.  @ @.2.} X S y.o.o   a.a.a.a.a.a.a.a.a.a.a.a.a.a.      $ x { q     O 7 M / $.D .   a.",
"a.a.a.a.a.a.    0 <.2.V . ~ e.i.4     a.a.a.a.a.a.a.a.a.a.a.a.      X l } k     % F ' $.$.T #     a.",
"a.a.a.a.a.a.    N 2.2.f # :.9.t.L     a.a.a.a.a.a.a.a.a.a.a.a.    . r A z X   % F $.$.$.R *     a.a.",
"a.a.a.a.a.a.  . { 2.<.1 ; *.7.4.y       a.a.a.a.a.a.a.a.a.a.    X 0 B j X   - H $.$.$.T *     a.a.a.",
"a.a.a.a.a.a.  @ #.2.-.: 8 &.:.e   O X       a.a.a.a.a.a.      . 1 h w .   8 E $.$.$.D %     a.a.a.a.",
"a.a.a.a.a.a.  , -.2.-.: % ; +     : 1 .                       o : O     9 / $.$./ p .     a.a.a.a.a.",
"a.a.a.a.a.a.  q 1.2.;.,           @ j q .             o 6 Y y         i ) $.' D -       a.a.a.a.a.a.",
"a.a.a.a.a.    s 2.2.=.=     a i     w V s X   4 m L Y 6.p.y.4.e     i ' ) D 7       a.a.a.a.a.a.a.a.",
"a.a.a.a.a.    d 2.2.C       a ' i   X k A l $ o u X.t.y.e.8.7.^ #   a a *         a.a.a.a.a.a.a.a.a.",
"a.a.a.a.a.    s 2.-.1       * ( ) 9   X x } x     . 3 S ~ :.*.` ;             a.a.a.a.a.a.a.a.a.a.a.",
"a.a.a.a.a.a.  q 2.{ .   a.    D $./ 7   X l } & = j , X o # < 8 %         a.a.a.a.a.a.a.a.a.a.a.a.a.",
"a.a.a.a.a.a.  , -.d     a.    7 ) $.E -     q 0 X } =.} V f 1 : : < =         a.a.a.a.a.a.a.a.a.a.a.",
"a.a.a.a.a.a.  @ G $   a.a.a.  . D $.$.T %     .   k 2.2.2.2.<.<.-.;.=.C 1 .       a.a.a.a.a.a.a.a.a.",
"a.a.a.a.a.a.    &     a.a.a.    - / $.$.F %       @ l +.<.2.2.2.2.2.2.2.-.{ g $       a.a.a.a.a.a.a.",
"a.a.a.a.a.a.        a.a.a.a.a.    p ' $.$.F O         @ 0 N { #.-.<.2.2.2.1.-.G &     a.a.a.a.a.a.a.",
"a.a.a.a.a.a.a.      a.a.a.a.a.a.  . D $.$.' 7     a.        . @ , q s d s q , @       a.a.a.a.a.a.a.",
"a.a.a.a.a.a.a.a.a.a.a.a.a.a.a.a.    % T $.$.M     a.a.a.                            a.a.a.a.a.a.a.a.",
"a.a.a.a.a.a.a.a.a.a.a.a.a.a.a.a.a.    * R $./ %   a.a.a.a.a.a.a.a.a.      a.a.a.a.a.a.a.a.a.a.a.a.a.",
"a.a.a.a.a.a.a.a.a.a.a.a.a.a.a.a.a.a.    * T $.p     a.a.a.a.a.a.a.a.a.a.a.a.a.a.a.a.a.a.a.a.a.a.a.a.",
"a.a.a.a.a.a.a.a.a.a.a.a.a.a.a.a.a.a.a.    # D F O   a.a.a.a.a.a.a.a.a.a.a.a.a.a.a.a.a.a.a.a.a.a.a.a.",
"a.a.a.a.a.a.a.a.a.a.a.a.a.a.a.a.a.a.a.a.    . 9 +   a.a.a.a.a.a.a.a.a.a.a.a.a.a.a.a.a.a.a.a.a.a.a.a.",
"a.a.a.a.a.a.a.a.a.a.a.a.a.a.a.a.a.a.a.a.a.            a.a.a.a.a.a.a.a.a.a.a.a.a.a.a.a.a.a.a.a.a.a.a.",
"a.a.a.a.a.a.a.a.a.a.a.a.a.a.a.a.a.a.a.a.a.a.a.      a.a.a.a.a.a.a.a.a.a.a.a.a.a.a.a.a.a.a.a.a.a.a.a."
};
