/* XPM */
static char *result[] = {
/* columns rows colors chars-per-pixel */
"50 50 162 2 ",
"   c #000101",
".  c #020B04",
"X  c #000D0D",
"o  c #0C0C0C",
"O  c #001300",
"+  c #001900",
"@  c #00130D",
"#  c #00190E",
"$  c #001616",
"%  c #001D12",
"&  c #001919",
"*  c #141414",
"=  c #171818",
"-  c #1D1D1D",
";  c #002F00",
":  c #003400",
">  c #00381D",
",  c #211F20",
"<  c #002424",
"1  c #002C2C",
"2  c #003127",
"3  c #00362D",
"4  c #003232",
"5  c #003C3C",
"6  c #232322",
"7  c #272827",
"8  c #262828",
"9  c gray16",
"0  c #343434",
"q  c #3B3B3B",
"w  c #004600",
"e  c #005000",
"r  c #005A00",
"t  c #006300",
"y  c #007201",
"u  c #004F2B",
"i  c #005A2C",
"p  c #004536",
"a  c #017539",
"s  c #004646",
"d  c #004F4F",
"f  c #005454",
"g  c #005D5D",
"h  c #016D46",
"j  c #00735C",
"k  c #006565",
"l  c #006A6A",
"z  c #007B63",
"x  c #007574",
"c  c #007F7F",
"v  c #4B4B4B",
"b  c #444545",
"n  c #545554",
"m  c #5A5B5A",
"M  c #646464",
"N  c #696969",
"B  c #757575",
"V  c #7A7A7A",
"C  c #008B00",
"Z  c #009400",
"A  c #009E00",
"S  c #00A000",
"D  c #00A800",
"F  c #00BA00",
"G  c #00B705",
"H  c #018B31",
"J  c #00CA00",
"K  c #00DE00",
"L  c #00E300",
"P  c #00EB00",
"I  c #00F401",
"U  c #00FF00",
"Y  c #00F60A",
"T  c #00F71C",
"R  c #01F92D",
"E  c #01EB3B",
"W  c #01FA31",
"Q  c #01F93B",
"!  c #01894C",
"~  c #01914F",
"^  c #019452",
"/  c #019B56",
"(  c #01A259",
")  c #01A056",
"_  c #008760",
"`  c #019A65",
"'  c #009D7E",
"]  c #01BA66",
"[  c #00A17D",
"{  c #02CB6F",
"}  c #02DA78",
"|  c #02FD6E",
" . c #02E67C",
".. c #02EA7B",
"X. c #02FE74",
"o. c #008484",
"O. c #008C8C",
"+. c #009B85",
"@. c #009797",
"#. c #009D9D",
"$. c #00A181",
"%. c #00A098",
"&. c #00B995",
"*. c #00A3A3",
"=. c #00ACAC",
"-. c #00B3B3",
";. c #00BBBB",
":. c #00C29B",
">. c #01DF9E",
",. c #02EA88",
"<. c #02F486",
"1. c #02FE85",
"2. c #02F48A",
"3. c #02FE8B",
"4. c #01F69D",
"5. c #02FA95",
"6. c #00CEA5",
"7. c #00D7AD",
"8. c #00D0B9",
"9. c #01E3A7",
"0. c #01F7A0",
"q. c #01F7A8",
"w. c #01F8A4",
"e. c #00EBBC",
"r. c #00E2B5",
"t. c #01FEBD",
"y. c #00F1BE",
"u. c #00C5C5",
"i. c #00CBCB",
"p. c #00D2CF",
"a. c #00DFDF",
"s. c #00F4C4",
"d. c #00FBC5",
"f. c #00F7CA",
"g. c #00FECB",
"h. c #00FBD2",
"j. c #00FAD9",
"k. c #00E2E2",
"l. c #00ECEC",
"z. c #00FCE2",
"x. c #00FCEC",
"c. c #00F0ED",
"v. c #00F4F4",
"b. c #00FEF4",
"n. c #00FFFF",
"m. c #848585",
"M. c #8C8C8C",
"N. c #939393",
"B. c #9B9B9B",
"V. c #A1A2A2",
"C. c #AAABAB",
"Z. c #B4B4B4",
"A. c #BCBDBD",
"S. c #C5C5C5",
"D. c #CDCDCD",
"F. c gray83",
"G. c #DADADA",
"H. c #E4E4E4",
"J. c #ECECEC",
"K. c #F3F3F3",
"L. c #FEFEFE",
"P. c None",
/* pixels */
"P.P.P.P.P.P.P.P.P.P.P.P.P.P.P.P.P.P.P.P.P.P.P.P.P.P.P.P.P.P.P.P.P.P.P.P.P.P.P.P.P.P.P.P.P.P.P.P.P.P.",
"P.P.P.P.n.v.l.l.l.l.l.l.l.l.l.l.l.l.l.l.l.l.l.l.l.l.l.l.l.l.l.l.l.l.l.l.l.l.l.l.l.l.l.l.v.n.P.P.P.P.",
"P.P.P.P.l.k X X @ X X X X X @ X X @ X X @ X X X X X @ X X @ X X X @ X X X X @ X X X $ X l c.P.P.P.P.",
"P.P.P.n.o.                                                                                O.n.P.P.P.",
"P.P.P.u.1   O : : : : : : : : : : : : : : : : : : : : : : : : : : : : : : : : : : : : O   5 i.P.P.P.",
"P.P.P.=.X   A I I I I I I I I I I I I I I I I I I I I I I I I I I I I I I I I I I I I Z   & -.P.P.P.",
"P.P.P.=.X   A U U U U U U U U U U U U U U U U U U U U U U U U U U U U U U U U U U U U S   & -.P.P.P.",
"P.P.P.=.X   A U I P I I I U U U U U U U U U U U U U U U U U U U U U U U U U U U U U U A   $ -.P.P.P.",
"P.P.P.=.X   C y + . O + y L I U U U U U U U U U U U U U U U U U U U U U U U U U U U U S   & -.P.P.P.",
"P.P.P.=.X   . . o o o o . . C U U U U U U U U U U U U U U U U U U U U U U U U U U U U A   & -.P.P.P.",
"P.P.P.=.X   . n S.J.J.F.B o   C U U U U U U U U U U U U U U U U U U U U U U U U U U U A   $ -.P.P.P.",
"P.P.n.*.  o N.K.L.H.b , B C.- . D U U U U U U U U U U U U U U U U U U U U I I I I U U A   & -.P.P.P.",
"P.P.a.d   V K.L.K.7       N N.  e K U U U U U U U U U U U U U U U U U I K Z r t D P I S   $ -.P.P.P.",
"P.P.;.  n G.L.L.M.o       q S.M   F U U I I I I Y I I I I U U U U U J w . o o . O O t Z   & -.P.P.P.",
"P.n.*.  M K.L.L.N .       7 A.V   A Y Y Y Y T W Q Q R T Y Y Y I I D O . * m B.M.b o . .   & -.P.P.P.",
"P.l.x * M.K.L.L.A.*       v K.V.* y E | 1.1.1.1.1.1.1.1.1.1.| W G O   V D.F.J.K.K.A.q     & -.P.P.P.",
"P.k.g , B.J.L.L.K.n o o - N.L.Z., i ,.3.3.3.3.3.3.3.3.3.3.3.3. .u   M M . o 6 G.L.L.S.v   $ -.P.P.P.",
"P.k.x * M.J.L.L.L.K.G.A.H.L.L.B.* a <.3.3.3.3.3.3.3.3.3.3.3.3.{   n m.        v K.L.K.N.* $ -.P.P.P.",
"P.P.*.  N G.K.L.L.L.L.L.L.L.K.N   ( 3.3.3.3.3.3.3.3.3.3.3.3.<.~ . B m.        = J.L.L.H.N   *.P.P.P.",
"P.P.;.  n F.G.K.L.L.L.L.L.K.G.n   ] 3.3.3.<.<.<.<.<.<.<.<.3. .> 7 S.M.        - J.L.L.K.B   *.P.P.P.",
"P.P.P.f   V G.G.K.L.L.L.K.G.V   u } <.2.2.<.<.2.2.2.2.2.2.2.} # 0 H.V.*     o B.L.L.L.J.V   @.P.P.P.",
"P.P.P.#.  o M.F.G.G.F.F.F.M.o   ( 2.2.w.t.g.g.g.g.g.d.g.g.d.>.# 0 G.L.V.7 * N.K.L.L.L.J.V   #.P.P.P.",
"P.P.P.=.X   o n Z.D.D.Z.n o   ! 4.t.g.g.g.g.g.g.g.g.g.h.g.g.e.p 6 C.L.L.K.K.L.L.L.L.K.G.B   *.P.P.P.",
"P.P.P.=.X     . o o o o . @ _ d.g.g.g.g.g.g.g.g.g.g.g.g.g.g.d.[   m J.L.L.L.L.L.L.L.H.D.M   *.P.P.P.",
"P.P.P.=.X   H a # . . % h 9.d.g.h.g.g.g.g.g.g.g.g.g.g.g.g.g.h.6.  q A.J.L.L.L.L.L.H.G.M.. & -.P.P.P.",
"P.P.P.=.X   ( 1.<.,. .,.s.g.h.g.g.g.g.g.g.g.g.g.g.g.g.g.g.g.g.s.z   m D.G.H.J.H.F.G.C.8   & -.P.P.P.",
"P.P.P.=.X   ( 3.1.<.4.g.g.g.g.g.g.g.g.g.g.g.f.g.g.g.g.g.g.g.g.g.6.2   b Z.D.D.D.D.V.=     $ -.P.P.P.",
"P.P.P.=.X   ( 3.2.4.d.g.g.g.g.g.g.g.f.f.s.s.e.e.s.f.f.f.f.f.f.g.g.:.3 . o - b 0 * o . .   $ -.P.P.P.",
"P.P.P.*.X   / <.4.d.g.g.g.g.g.g.f.f.f.f.8.3 X @ x l.b.n.b.x.j.f.s.s.e.j @ X X @ X % ^ ~   $ =.P.P.P.",
"P.P.P.=.X   / 5.d.g.g.g.g.g.f.f.h.x.b.p.&         l l.n.n.n.n.b.b.j.f.s.e.7.&.&.7.s.q.^   $ =.P.P.P.",
"P.P.P.=.X   / t.g.g.g.g.g.f.h.x.n.n.v.4             *.n.n.n.n.n.n.n.b.j.s.d.f.g.g.g.d.`   $ -.P.P.P.",
"P.P.P.=.X   [ g.g.g.g.f.f.z.b.n.n.n.l.<             o.v.n.n.n.n.n.n.n.n.x.h.f.g.g.g.g.[   $ -.P.P.P.",
"P.P.P.=.X   +.g.g.g.f.h.b.n.n.n.n.n.k.&             l l.n.n.n.n.n.n.n.n.n.n.j.f.g.g.h.[   $ -.P.P.P.",
"P.P.P.=.X   [ h.g.f.h.b.n.n.n.n.n.n.v.<             @.v.n.n.n.n.n.n.n.n.n.n.b.z.f.f.g.[   $ -.P.P.P.",
"P.P.P.=.X   $.h.f.h.b.n.n.n.n.n.n.n.v.s             *.n.n.n.n.n.n.n.n.n.n.n.n.n.z.f.g.+.  $ =.P.P.P.",
"P.P.P.=.X   $.g.g.b.n.n.n.n.n.n.n.n.n.k.< X       o.n.n.n.n.n.n.n.n.n.n.n.n.n.n.n.z.g.'   $ -.P.P.P.",
"P.P.P.=.X   ' g.b.n.n.n.n.n.n.n.n.n.n.n.l.o.1 s -.n.n.n.n.n.n.n.n.n.n.n.n.n.n.n.n.n.j.'   $ -.P.P.P.",
"P.P.P.=.X   ' b.n.n.n.n.n.n.n.n.n.n.n.n.n.v.v.v.v.n.n.n.n.n.n.n.n.n.n.n.n.n.n.n.n.n.b.+.  $ -.P.P.P.",
"P.P.P.=.X   #.n.n.n.n.n.n.n.n.n.n.n.n.n.n.n.n.n.n.n.n.n.n.n.n.n.n.n.n.n.n.n.n.n.n.n.n.#.  $ -.P.P.P.",
"P.P.P.=.X   %.n.n.n.n.n.n.n.n.n.n.n.n.n.n.n.n.n.n.n.n.n.n.n.n.n.n.n.n.n.n.n.n.n.n.n.n.#.  $ -.P.P.P.",
"P.P.P.*.X   *.n.n.n.n.n.n.n.n.n.n.n.n.n.n.n.n.n.n.n.n.n.n.n.n.n.n.n.n.n.n.n.n.n.n.n.n.#.  $ -.P.P.P.",
"P.P.P.*.X   *.n.n.n.n.n.n.n.n.n.n.n.n.n.n.n.n.n.n.n.n.n.n.n.n.n.n.n.n.n.n.n.n.n.n.n.n.#.  $ =.P.P.P.",
"P.P.P.*.X   *.n.n.n.n.n.n.n.n.n.n.n.n.n.n.n.n.n.n.n.n.n.n.n.n.n.n.n.n.n.n.n.n.n.n.n.n.*.  $ =.P.P.P.",
"P.P.P.*.X   *.n.n.n.n.n.n.n.n.n.n.n.n.n.n.n.n.n.n.n.n.n.n.n.n.n.n.n.n.n.n.n.n.n.n.n.n.#.  & =.P.P.P.",
"P.P.P.=.X   @.v.v.v.v.v.v.v.v.v.v.v.v.v.v.v.v.v.v.v.v.v.v.v.v.v.v.v.v.v.v.v.v.v.v.v.v.@.  & -.P.P.P.",
"P.P.P.u.1   & s s s s s s s s s s s s s s s s s s s s s s s s s s s s s s s s s s s 5 &   4 u.P.P.P.",
"P.P.P.v.c       .     .             X     .   .                         .         X       o.n.P.P.P.",
"P.P.P.P.k.f X X X X X X X X X $ X X X X X X X X X X X $ X X $ X X X X $ X X X X X X X X g k.P.P.P.P.",
"P.P.P.P.P.l.k.k.a.a.a.k.k.k.k.k.k.k.k.a.a.a.a.a.k.a.a.a.a.k.a.a.k.a.a.a.k.a.a.a.a.a.a.k.l.P.P.P.P.P.",
"P.P.P.P.P.P.P.P.P.P.P.P.P.P.P.P.P.P.P.P.P.P.P.P.P.P.P.P.P.P.P.P.P.P.P.P.P.P.P.P.P.P.P.P.P.P.P.P.P.P."
};
