/* XPM */
static char *result[] = {
/* columns rows colors chars-per-pixel */
"50 50 201 2 ",
"   c #040707",
".  c #060A09",
"X  c #090D0C",
"o  c #050807",
"O  c #0C150E",
"+  c #0F1711",
"@  c #121913",
"#  c #111713",
"$  c #162817",
"%  c #163118",
"&  c #1B331A",
"*  c #21371E",
"=  c #1F3C20",
"-  c #222B24",
";  c #253623",
":  c #2B4A25",
">  c #2F4A29",
",  c #304A2B",
"<  c #2B582A",
"1  c #275328",
"2  c #31522D",
"3  c #3E543B",
"4  c #21602F",
"5  c #276731",
"6  c #376037",
"7  c #3A7F39",
"8  c #415E3C",
"9  c #476E3C",
"0  c #4C564D",
"q  c #4F7641",
"w  c #536550",
"e  c #5C7658",
"r  c #516D49",
"t  c #3C813B",
"y  c #3B8A3E",
"u  c #37853B",
"i  c #39923E",
"p  c #41823C",
"a  c #4C853C",
"s  c #159B48",
"d  c #1B9D49",
"f  c #189C47",
"g  c #238F43",
"h  c #2E8C42",
"j  c #338E42",
"k  c #3D8D42",
"l  c #269044",
"z  c #2D9546",
"x  c #359043",
"c  c #399244",
"v  c #3C9A45",
"b  c #399A48",
"n  c #3B9A51",
"m  c #1EA049",
"M  c #23A349",
"N  c #2CA54A",
"B  c #3EAB46",
"V  c #3CAE49",
"C  c #39A646",
"Z  c #3BA958",
"A  c #3BA757",
"S  c #3CB049",
"D  c #458942",
"F  c #459242",
"G  c #4A9545",
"H  c #4A9A46",
"J  c #429B49",
"K  c #4D9C49",
"L  c #409C59",
"P  c #599E53",
"I  c #5A9D59",
"U  c #579A54",
"Y  c #588A4F",
"T  c #628C58",
"R  c #68945A",
"E  c #40AC47",
"W  c #4AA449",
"Q  c #44AE49",
"!  c #4BAD4B",
"~  c #47A346",
"^  c #53A44B",
"/  c #54AC4A",
"(  c #5DAC4D",
")  c #55A348",
"_  c #43B447",
"`  c #45B449",
"'  c #4DB24D",
"]  c #4DB848",
"[  c #4CB647",
"{  c #56B346",
"}  c #57BA47",
"|  c #59BA47",
" . c #55B44B",
".. c #5BB44D",
"X. c #56B94E",
"o. c #5BBA4C",
"O. c #58B247",
"+. c #4DAA57",
"@. c #5BA256",
"#. c #5DA359",
"$. c #5EAA56",
"%. c #52B452",
"&. c #5DB452",
"*. c #5DBC51",
"=. c #5ABE5E",
"-. c #53B856",
";. c #4CB150",
":. c #61AF4E",
">. c #64BC4E",
",. c #68BD4E",
"<. c #61B34F",
"1. c #60A45A",
"2. c #63AB5C",
"3. c #62B556",
"4. c #62BD53",
"5. c #6BBE54",
"6. c #65B358",
"7. c #69B45C",
"8. c #66BB59",
"9. c #6ABF5B",
"0. c #68B656",
"q. c #73BE5C",
"w. c #70936B",
"e. c #699062",
"r. c #5DAD62",
"t. c #63A463",
"y. c #6EAE6A",
"u. c #72AE6A",
"i. c #61BA61",
"p. c #66B367",
"a. c #75BC65",
"s. c #77B76A",
"d. c #7BBE7A",
"f. c #74BB74",
"g. c #6CB670",
"h. c #6DC055",
"j. c #6DC05C",
"k. c #71C256",
"l. c #74C15D",
"z. c #79C35E",
"x. c #6FC161",
"c. c #75C263",
"v. c #7BC465",
"b. c #76C06A",
"n. c #7DC46D",
"m. c #7DC573",
"M. c #7DC57C",
"N. c #81BA74",
"B. c #85B07E",
"V. c #84C76C",
"C. c #86C86D",
"Z. c #89CA6E",
"A. c #80C665",
"S. c #82C674",
"D. c #86C876",
"F. c #89CA71",
"G. c #84C37C",
"H. c #86C878",
"J. c #8CCA7D",
"K. c #89C57E",
"L. c #93CC7E",
"P. c #91D17F",
"I. c #8ED07D",
"U. c #89B382",
"Y. c #90BE91",
"T. c #8DCB83",
"R. c #8ECA8B",
"E. c #89C581",
"W. c #92CC83",
"Q. c #96CE8B",
"!. c #99CE8A",
"~. c #93D183",
"^. c #9BD18E",
"/. c #9ACB94",
"(. c #9CC497",
"). c #9BD091",
"_. c #A3CE95",
"`. c #A4C79D",
"'. c #A5D497",
"]. c #A4D49A",
"[. c #ABD69D",
"{. c #ACD99F",
"}. c #A6D99C",
"|. c #9EC9A0",
" X c #A5CBA3",
".X c #ACD6A6",
"XX c #AED8A1",
"oX c #ACD6A9",
"OX c #A9D6A8",
"+X c #B3DAA5",
"@X c #B5DAAB",
"#X c #B7DBA9",
"$X c #BFDEBC",
"%X c #B8DDB1",
"&X c #B9E0B1",
"*X c #C1DDBD",
"=X c #C5DEC1",
"-X c #C6E2C2",
";X c #C9E3C4",
":X c #CBE4C8",
">X c None",
/* pixels */
">X>X>X>X>X>X>X>X>X>X>X>X>X>X>X>X>X>X>X>X>X>X>X>X>X>X>X>X>X>X>X>X>X>X>X>X>X>X>X>X>X>X>X>X>X>X>X>X>X>X",
">X>X>X>X>X>X>X>X>X>X>X>X>X>X>X>X>X>X>X>X>X>X>X>X>X>X>X>X>X>X>X>X>X>X>X>X>X>X>X>X>X>X>X>X>X>X>X>X>X>X",
">X>X>X>X>X>X>X>X>X>X>X>X>X>X>X>X>X>X>X>X>X>X>X>X>X>X>X>X>X>X>X>X>X>X>X>X>X>X>X>X>X>X>X>X>X>X>X>X>X>X",
">X>X>Xm m d Z G.Q.Q.Q.A d M d N ! ` ! ;.R.).R.R.oX=X$X*X@XC.V.V.V.A.c.v.c.6.F F F U E.).!.Q.>X>X>X>X",
">X>X>XM m d Z M.Q.Q.Q.A d m m N ! _ Q ' E.Q.R.R.oX*X*X*X@XF.C.C.Z.v.c.c.c.6.F G F U E.Q.Q.Q.>X>X>X>X",
">X>X>Xm m d Z G.).).Q.A d m d N Q ! Q  .R.Q.R.R.oX=X*X=X%XD.Z.C.V.n.c.v.c.6.c p F U E.).).Q.>X>X>X>X",
">X>X>XN N N Z g.d.d.d.Z N N N C ! Q Q ! M.E.E.E.(.`. X`._.A.V.V.A.c.9.q.q.7.t.t.1.t.d.d.d.d.>X>X>X>X",
">X>X>X%.%.%.;.L n n n %.%.%.-.' E E _ ! a.c.b.x.2.I I U 1.z.A.q.z.h.3.4.0.m.OX X XY.I n n n >X>X>X>X",
">X>X>X4.4.j.;.z l l l %.*.4.8.%.Q Q Q ` j.j.j.x.^ F F F H l.z.z.l.4.X.*.*.S.$X$X$X|.n l l d >X>X>X>X",
">X>X>X=.4.=.;.z l l l ;.*.3.=.X.Q Q Q Q 9.x.x.x.^ F F F H l.l.z.q.>.o.o.*.m.$X*X$X Xn l l z >X>X>X>X",
">X>X>X4.4.4.%.z l g l %.&.=.&. .C E B E 9.x.c.x.^ F F k K q.q.q.q.3. . .&.d.*X*X$X|.L l l l >X>X>X>X",
">X>X>XD.S.D.b.` E E B 1 = & & % % $ % ; f.H.D.H.p.G G H D * * * * * & & * e *X-X-XOX-.B B B >X>X>X>X",
">X>X>XJ.J.W.m.-.] ` _ % X . o . . .   @ N.J.T.T.7.H K W 9 . . . .   .   O 0 -X-X-XOX=.S _ _ >X>X>X>X",
">X>X>XL.L.W.m.-.` ` _ % o o o         + N.L.L.L.y.H K K p O   . .       O 0 ;X-X-XOX=._ ` ] >X>X>X>X",
">X>X>XW.J.W.m.-.] ` _ % . o           + N.J.W.L.7.G K K p .             X 0 :X:X:XOX=.` ] S >X>X>X>X",
">X>X>Xn.n.V.c.X.] ] ] % . o   o       + a.V.n.n.3.H W W y .   o         X 3 }.OX).~.*.] ]  .>X>X>X>X",
">X>X>X4.4.h.4.| | | { & .             + :.h.4.5.X.E Q Q i . .           X > c.c.c.j.>.} | | >X>X>X>X",
">X>X>X5.5.4.h.| | | { & .   o o       O ( 5.5.5.%.E Q _ i .             X , c.c.c.j.o.| | | >X>X>X>X",
">X>X>X5.5.5.h.| | | } & o             O :.h.h.h.X.Q Q _ i X             X > c.c.c.j.o.| | | >X>X>X>X",
">X>X>X5.5.9.4.o.| | o.& O O O O + + + $ ) :.:.:.W C C J y @ @ # # O X O + 2 c.c.z.j.>.o.o.o.>X>X>X>X",
">X>X>X&.....6.s.F.S.S.( ^ ^ ) 2.d.N.N.u.$ O O + O O + X ; (.`.`.`.I 7 7 u G h.,.h.h.n.F.S.m.>X>X>X>X",
">X>X>X&.&...8.n.D.D.D.3..... .a.J.J.W.N.#               - .X@X@XoXt.k k y H ,.,.>.5.S.H.D.D.>X>X>X>X",
">X>X>X......8.m.D.D.D.3...&. .a.J.T.W.N.#               - oX@X@XoXt.y c F H ,.,.,.h.n.H.D.D.>X>X>X>X",
">X>X>X&.&...8.n.D.H.D.3...&...c.W.W.~.G.#               - @X%X%X@Xt.y k y H ,.>.,.5.n.H.D.D.>X>X>X>X",
">X>X>X^ ^ K $.S.T.T.T.$.W ^ ^ D 6 3 3 3 O               @ 0 w w r Y / O./ 7.J.J.J.J.T.T.W.T.>X>X>X>X",
">X>X>XG F F #.N.^.Q.Q.U F F G 1                       o         o a k.k.k.F..XoXoX}.).Q.Q.^.>X>X>X>X",
">X>X>XF G F @.G.Q.!.Q.P F G H <               .                 X a k.h.q.V..X.X.X}.).Q.Q.Q.>X>X>X>X",
">X>X>XF F F #.N.Q.!.W.P F F G <               o     o           X a k.h.5.C.XX.X.X[.).Q.Q.Q.>X>X>X>X",
">X>X>XG G G #.E.^.^.!.I G G K <         o       o               . a k.h.5.n./.!./././.^.^.^.>X>X>X>X",
">X>X>X#.#.@.u._.+X#X+Xy.#.#.2.6     o       o                   . p *.|  ./ K K K 2.'.#X#X+X>X>X>X>X",
">X>X>X#.#.#.u._.#X#X@Xy.#.#.$.6   o       o       . .           . p *.X.X./ H H H 1._.#X#X#X>X>X>X>X",
">X>X>X#.#.#.u._.#X@X+Xy.#.#.2.3 o     o   o                 .   O t *.X.X./ H H H 1._.#X#X#X>X>X>X>X",
">X>X>X#.@.@.u._.+X+X{.u.1.1.1.6         X X X X X X X X X . .   X t o.X.&./ H H H #._.+X+X+X>X>X>X>X",
">X>X>Xa.a.a.a.C.V.V.A.N.q.a.A.9       O e T T T e.w.w.w.e X     X 5 v v b W &...3.0.v.Z.C.C.>X>X>X>X",
">X>X>XF.V.Z.v.q.5.,.5.A.Z.Z.Z.9     o # S.I.I.L.^.XXXX}.U.X     . 4 h h h J h.h.5.5.5.,.5.5.>X>X>X>X",
">X>X>XC.V.V.A.k.5.5.5.A.A.Z.I.9       # N.J.L.F.Q.).].}.B.X     . 4 h h h J 8.5.5.5.5.h.5.5.>X>X>X>X",
">X>X>XZ.C.C.v.q.5.,.5.A.Z.Z.Z.9 . X . @ f.K.K.H.Q.).).).U.+ . . O 5 x h h J h.5.5.5.5.5.5.5.>X>X>X>X",
">X>X>XL.L.L.F.q.,.,.,.Z.L.L.^.R > : : 2 r.p.i.p.b.M.M.M.g.> : : : u v v v ! c.c.q.q.5.4.,.,.>X>X>X>X",
">X>X>X{.XXXX!.0.O.O.O.!.[.+X+XP.9.j.j.8.d s s s M S S S Q >.,.,.>.| | } | h.m.m.S.a...O.O.O.>X>X>X>X",
">X>X>XXXXX+X!.0.O.O.>.!.[.+X+XP.9.j.j.8.d s s s N S S S ` 4.,.,.,.| } | | 8.m.D.S.n... ...O.>X>X>X>X",
">X>X>X{.{.XX!.0.O.O.O.!.XXXXXXW.9.9.q.8.d s s s N S S S S ,.,.,.>.| } } } h.S.S.S.a.&.O.O. .>X>X>X>X",
">X>X>X'.'.[.W.8.O.O...W.'.[.[.H.&.6.6.&.d s s s M N S N S >.,.o.>.}  . . .3.D.J.H.m.&.O. ...>X>X>X>X",
">X>X>XQ.!.!.H.8.*.o.*.H.W.!.!.s.J J v v s s s s m M M M N >.>.h.>.' ` ` ` i.!.!.Q.H.9.o.o.*.>X>X>X>X",
">X>X>XW.W.W.D.9.o.4.4.H.W.W.W.p.j c j j s s s s m m m m N o.4.>.4.[ V V ` i.^.^.^.W.9.*.4.*.>X>X>X>X",
">X>X>XW.W.W.H.8.o.4.*.H.W.W.Q.p.j c c x d s s s m m m m M >.4.>.>.' S ` Q i.).^.^.L.9.4.*.>.>X>X>X>X",
">X>X>XW.W.W.H.8.*.*.4.D.W.W.W.y.j c c x s s s s f m m m N 4.>.4.o.' V V ` i.^.^.^.J.8.o.*.*.>X>X>X>X",
">X>X>X>X>X>X>X>X>X>X>X>X>X>X>X>X>X>X>X>X>X>X>X>X>X>X>X>X>X>X>X>X>X>X>X>X>X>X>X>X>X>X>X>X>X>X>X>X>X>X",
">X>X>X>X>X>X>X>X>X>X>X>X>X>X>X>X>X>X>X>X>X>X>X>X>X>X>X>X>X>X>X>X>X>X>X>X>X>X>X>X>X>X>X>X>X>X>X>X>X>X",
">X>X>X>X>X>X>X>X>X>X>X>X>X>X>X>X>X>X>X>X>X>X>X>X>X>X>X>X>X>X>X>X>X>X>X>X>X>X>X>X>X>X>X>X>X>X>X>X>X>X",
">X>X>X>X>X>X>X>X>X>X>X>X>X>X>X>X>X>X>X>X>X>X>X>X>X>X>X>X>X>X>X>X>X>X>X>X>X>X>X>X>X>X>X>X>X>X>X>X>X>X"
};
