/* XPM */
static char *result[] = {
/* columns rows colors chars-per-pixel */
"50 50 214 2 ",
"   c #0C0B09",
".  c #0A0706",
"X  c #150E0B",
"o  c #1A0D0D",
"O  c #1F020C",
"+  c #15120D",
"@  c #19140F",
"#  c #180F11",
"$  c #171711",
"%  c #1A1212",
"&  c #1D1D12",
"*  c #18111F",
"=  c #24080E",
"-  c #2A0912",
";  c #3A0B1A",
":  c #370D17",
">  c #221D14",
",  c #241E1B",
"<  c #2B1717",
"1  c #33141A",
"2  c #391C1F",
"3  c #38171A",
"4  c #1E2016",
"5  c #242215",
"6  c #282317",
"7  c #262419",
"8  c #29251A",
"9  c #2D2B1C",
"0  c #282818",
"q  c #322C1E",
"w  c #30271D",
"e  c #2F301F",
"r  c #32311F",
"t  c #231028",
"y  c #3A1321",
"u  c #3A1C24",
"i  c #2E2C21",
"p  c #2E2D2A",
"a  c #292422",
"s  c #322E21",
"d  c #382626",
"f  c #2F3022",
"g  c #353223",
"h  c #393525",
"j  c #363825",
"k  c #3A3926",
"l  c #3A3629",
"z  c #3D3B2B",
"x  c #333129",
"c  c #2E2C34",
"v  c #3C3A30",
"b  c #40181E",
"n  c #4B0B23",
"m  c #560B2C",
"M  c #4C1D25",
"N  c #451423",
"B  c #581B2C",
"V  c #5C1D33",
"C  c #601E31",
"Z  c #791D3F",
"A  c #462627",
"S  c #58242B",
"D  c #403D2C",
"F  c #413029",
"G  c #4A2635",
"H  c #462A38",
"J  c #532531",
"K  c #542935",
"L  c #5B2B32",
"P  c #522B39",
"I  c #5A2937",
"U  c #423E32",
"Y  c #5D343F",
"T  c #583737",
"R  c #642D34",
"E  c #6C2E3C",
"W  c #672A3A",
"Q  c #64333B",
"!  c #6B333B",
"~  c #6E3B3D",
"^  c #65383A",
"/  c #723B3F",
"(  c #74353C",
")  c #3F412B",
"_  c #42412D",
"`  c #454333",
"'  c #494635",
"]  c #4A4936",
"[  c #444339",
"{  c #49463C",
"}  c #4C4B3A",
"|  c #474936",
" . c #514E3C",
".. c #2D2F40",
"X. c #3D3E43",
"o. c #4D3C43",
"O. c #5B3844",
"+. c #443950",
"@. c #543E54",
"#. c #792844",
"$. c #693443",
"%. c #6E3A41",
"&. c #663A46",
"*. c #743C43",
"=. c #7A3B43",
"-. c #723C4A",
";. c #7C3D4C",
":. c #763542",
">. c #4C4743",
",. c #4C4B42",
"<. c #464642",
"1. c #524E4C",
"2. c #52524D",
"3. c #59564C",
"4. c #5C594C",
"5. c #545342",
"6. c #4E4E52",
"7. c #4E505F",
"8. c #6B4243",
"9. c #634648",
"0. c #7C4445",
"q. c #7D424B",
"w. c #734748",
"e. c #7D5049",
"r. c #7A4351",
"t. c #7E4A52",
"y. c #764A52",
"u. c #605E51",
"i. c #53536A",
"p. c #4E5576",
"a. c #7B5765",
"s. c #812145",
"d. c #942C4F",
"f. c #853E4A",
"g. c #8B394E",
"h. c #8D3E51",
"j. c #8B3453",
"k. c #963957",
"l. c #A52E59",
"z. c #AA315D",
"x. c #84454B",
"c. c #8B444F",
"v. c #844A4D",
"b. c #894B4F",
"n. c #804146",
"m. c #90454F",
"M. c #89504F",
"N. c #824551",
"B. c #8C4552",
"V. c #834A54",
"C. c #8B4C52",
"Z. c #8B4D5B",
"A. c #874A59",
"S. c #924553",
"D. c #924C55",
"F. c #944E5B",
"G. c #9A4D5A",
"H. c #855153",
"J. c #8D5153",
"K. c #84565B",
"L. c #925255",
"P. c #95535B",
"I. c #99545C",
"U. c #9B5A5C",
"Y. c #A04C59",
"T. c #A2545E",
"R. c #955463",
"E. c #9D5661",
"W. c #975966",
"Q. c #9D5B62",
"!. c #9E5D6A",
"~. c #A35563",
"^. c #A35B65",
"/. c #AA5B66",
"(. c #A25C6A",
"). c #AA5E69",
"_. c #A45769",
"`. c #82646D",
"'. c #9B6567",
"]. c #8E6678",
"[. c #A4626B",
"{. c #AB636B",
"}. c #AD6A6E",
"|. c #A26163",
" X c #B5666F",
".X c #AF6672",
"XX c #AA6A75",
"oX c #B36672",
"OX c #B36A74",
"+X c #B96C75",
"@X c #B46C7A",
"#X c #BB6E7A",
"$X c #B96572",
"%X c #BD7277",
"&X c #B5747E",
"*X c #BD727B",
"=X c #B8777B",
"-X c #AF7578",
";X c #C06B74",
":X c #C2747E",
">X c #C4777B",
",X c #BE7A82",
"<X c #C27582",
"1X c #C57983",
"2X c #CA7B84",
"3X c #CB7D8A",
"4X c #C27A89",
"5X c #D27F89",
"6X c #CB8285",
"7X c #CD808B",
"8X c #D3828E",
"9X c #D88A95",
"0X c #DC909B",
"qX c None",
/* pixels */
"qXqXqXqXqXqXqXqXqXqXqXqXqXqXqXqXqXqXqX4. . .| `  .z ' ` v  .z { U 7.p.qXqXqXqXqXqXqXqXqXqXqXqXqXqXqX",
"qXqXqXqXqXqXqXqXqXqXqXqXqXqXqXqXqXqXu.5.| ] D ] ' D  .' v  .' U ' U 1.i.qXqXqXqXqXqXqXqXqXqXqXqXqXqX",
"qXqXqXqXqXqXqXqXqXqXqXqXqXqXqXqXqX3. .` | _ ' ] _ _  .` ` ] ' D } U ' >.i.qXqXqXqXqXqXqXqXqXqXqXqXqX",
"qXqXqXqXqXqXqXqXqXqXqXqXqXqXqXqX4.| [ | ] `  . . . . .' ` ' ' U | ' U ' <.7.qXqXqXqXqXqXqXqXqXqXqXqX",
"qXqXqXqXqXqXqXqXqXqXqXqXqXqXqX4.]  .}  .| ' } | ' ]  . .| | | _ ` ' D ' U { >.qXqXqXqXqXqXqXqXqXqXqX",
"qXqXqXqXqXqXqXqXqXqXqXqXqXqX2.}  .}  .' ) ` _ _ _ _ _ _ _ _ _ _ D ' D ` ' ' [ 1.qXqXqXqXqXqXqXqXqXqX",
"qXqXqXqXqXqXqXqXqXqXqXqXqXqX,.} ' z | _ k _ ) k r _ D r r _ _ D k _ D D ' F ' >.qXqXqXqXqXqXqXqXqXqX",
"qXqXqXqXqXqXqXqXqXqXqXqXqX{ [ [ z z z g g k j r r k D r r k D k h D l l _ l U U 2.qXqXqXqXqXqXqXqXqX",
"qXqXqXqXqXqXqXqXqXqXqXqXqX{ [ ) j j j e g j j g r ) k h h z z g s D g s D s D z 1.qXqXqXqXqXqXqXqXqX",
"qXqXqXqXqXqXqXqXqXqXqXqX,.` ) z l z ) k f 9 f s 0 e 0 q q 9 r r z D g q h s k l [ 2.qXqXqXqXqXqXqXqX",
"qXqXqXqXqXqXqXqXqXqXqXqX,.[ ` ) z g 9 7 5 5 5 5 0 6 0 w q 0 q w q g h k h w r l v 1.qXqXqXqXqXqXqXqX",
"qXqXqXqXqXqXqXqXqXqXqXqX,.) z i 5 5 6 6 5 5 0 0 0 0 w w q q q r h g s g F r h r l [ qXqXqXqXqXqXqXqX",
"qXqXqXqXqXqXqXqXqXqXqX3.{ g 9 9 7 8 7 5 4 & & 5 5 6 0 8 0 w w 0 i g q s s s h s e v qXqXqXqXqXqXqXqX",
"qXqXqXqXqXqXqXqXqXqXqX[ l s g 9 4 & & 5 5 0 r q 8 0 w g r q 9 q s s 0 q g i s s 0 x qXqXqXqXqXqXqXqX",
"qXqXqXqXqXqXqXqXqXqXqXz l i 9 5 5 9 f 9 6 0 9 9 0 8 9 r g q q g j g 9 s 9 9 i 9 i p qXqXqXqXqXqXqXqX",
"qXqXqXqXqXqXqXqXqXqX>.U i 0 9 0 5 6 5 & & & & 5 & & 5 6 6 8 0 9 h s 9 l h 8 i 9 x X.qXqXqXqXqXqXqXqX",
"qXqXqXqXqXqXqXqXqXqX,.v k q q > & & + + X @ X o @ o X + + + + & 8 8 9 j g g q 8 s X.qXqXqXqXqXqXqXqX",
"qXqXqXqXqXqXqXqXqXqX<.` h 6 > X @ - 3 M L R R ! ! R S S M 2 < % @ + 4 9 f g g , s ..qXqXqXqXqXqXqXqX",
"qXqXqXqXqXqXqXqXqXqX,.) 6 o < S ~ b.D.m.m.S.D.D.D.B.D.S.B.B.0.$.J 1 # & > 9 l q a c qXqXqXqXqXqXqXqX",
"qXqXqXqXqXqXqXqXqXqX{ 0   3 / x.H.U.T.{.).).{.^.).).).E.Z.t.t.w.*.E B o + 5 q g 8 s qXqXqXqXqXqXqXqX",
"qXqXqXqXqXqXqXqXqXqXv + o ~ ! Y Y Y &.A.(.OX@X.X@X@X!.r.I G K P K R ( 2 X + & q 8 7 qXqXqXqXqXqXqXqX",
"qXqXqXqXqXqXqXqXqXqXp . A x.t.K.V.w.$.-.Z.[.oXoXOX!.;.$.$.-.r.Z.A.r.x.~ 3 . X 6 8 a qXqXqXqXqXqXqXqX",
"qXqXqXqXqXqXqXqXqXqXa    .E.XX[.W.A.B.N.A.P._._._.F.N.N.;.;.q.t.P.!.W.C.R o . + & 7 qXqXqXqXqXqXqXqX",
"qXqXqXqXqXqXqXqXqXqX,   y.'.P.E O.O.P Q ;.C.~.~.E.F.x.;.W O.H G I x.U.U.0.: . . # > qXqXqXqXqXqXqXqX",
"qXqXqXqXqXqXqXqXqXqXqX% K.[.*.L ].+.* d $.Z.{.#XoXR.N.:.a.@.t H I =.|.}.L.M - o @ , qXqXqXqXqXqXqXqX",
"qXqXqXqXqXqXqXqXqXqXqXo.'.}.P.'.].H y $.A.!.#X8X1X(.Z.;.;.P d y.}.}.=X>X X! b ; o $ qXqXqXqXqXqXqXqX",
"qXqXqXqXqXqXqXqXqXqXqXa.-X,X=X}.!.Z.r.F.@X,X3X0X9X%X{.Z.;.f.Z.(.-X>X6X6X%Xc.C W 1 qXqXqXqXqXqXqXqXqX",
"qXqXqXqXqXqXqXqXqXqXqX`.=X,X,X}.E.F.R.@X4X4X3X0X9X>X*XXXR.Z.R.(.*X6X6X6X>Xb.h.D.qXqXqXqXqXqXqXqXqXqX",
"qXqXqXqXqXqXqXqXqXqXqX`.&X*X<X#X@XXX,X,X<X<X4X9X5X2X<X<X,X,X.X,X<X3X3X6X%X^.#X(.qXqXqXqXqXqXqXqXqXqX",
"qXqXqXqXqXqXqXqXqXqXqXqXXX*X;X,X<X<X<X<X#X#X<X5X5X2X2X<X4X3X4X<X2X3X3X2X+X}.oXqXqXqXqXqXqXqXqXqXqXqX",
"qXqXqXqXqXqXqXqXqXqXqXqXK.-XOX#X#X,X,X$X$X+X<X5X5X2X;X;X4X3X3X3X1X1X2X1X}.D.qXqXqXqXqXqXqXqXqXqXqXqX",
"qXqXqXqXqXqXqXqXqXqXqXqX9.}.oX$X$X$X$X_.~.$X:X5X5X:X$X_.$X,X<X<X<X*X,X%X^.J qXqXqXqXqXqXqXqXqXqXqXqX",
"qXqXqXqXqXqXqXqXqXqXqXqXO.'.[.{.{./.T.m.T.+X:X2X2X;X;XG.G.). X.XoXOX@X}.U.qXqXqXqXqXqXqXqXqXqXqXqXqX",
"qXqXqXqXqXqXqXqXqXqXqXqXqXH.U.U.T.I.b.f.G.G.).$X/.D.~.Y.S.P.~.~.~.^.^.U.U.qXqXqXqXqXqXqXqXqXqXqXqXqX",
"qXqXqXqXqXqXqXqXqXqXqXqXqX%.B.C.D.b.n.G.T.h.f.c.f.g.~./.G.D.G.P.P.D.L.L.qXqXqXqXqXqXqXqXqXqXqXqXqXqX",
"qXqXqXqXqXqXqXqXqXqXqXqXqXT 0.x.b.x.b.I.E.I.A.f.x.I.).{.T.D.D.L.b.b.b.J.qXqXqXqXqXqXqXqXqXqXqXqXqXqX",
"qXqXqXqXqXqXqXqXqXqXqXqXqXd w.x.x.v.0.v.P.E./.I.G.E.(.E.Z.C.L.L.C.C.H.J.qXqXqXqXqXqXqXqXqXqXqXqXqXqX",
"qXqXqXqXqXqXqXqXqXqXqXqXqXqX^ b.M.n.^ ! :.:.g.k.h.h.D.B.%.~ n.L.J.D.b.qXqXqXqXqXqXqXqXqXqXqXqXqXqXqX",
"qXqXqXqXqXqXqXqXqXqXqXqXqXqXF v.M.x.! : = y O.$.-.W y - 3 R v.L.J.H.b.qXqXqXqXqXqXqXqXqXqXqXqXqXqXqX",
"qXqXqXqXqXqXqXqXqXqXqXqXqXqX, w.b.b.0.B : - ; ; N ; = = B / b.J.b.n.qXqXqXqXqXqXqXqXqXqXqXqXqXqXqXqX",
"qXqXqXqXqXqXqXqXqXqXqXqXqXqXqXT v.M.H.B.#.V B m m n n W x.x.J.M.x.qXqXqXqXqXqXqXqXqXqXqXqXqXqXqXqXqX",
"qXqXqXqXqXqXqXqXqXqXqXqXqXqXqX< e.M.L.P.k.k.j.#.#.Z d.S.D.b.b.0.0.qXqXqXqXqXqXqXqXqXqXqXqXqXqXqXqXqX",
"qXqXqXqXqXqXqXqXqXqXqXqXqXqXqX% 8.v.H.J.S.d.z.z.l.l.k.D.b.b.x.0.qXqXqXqXqXqXqXqXqXqXqXqXqXqXqXqXqXqX",
"qXqXqXqXqXqXqXqXqXqXqXqXqXqXqXqXT M.J.H.q.#.Z s.s.#.;.b.b.b.0.qXqXqXqXqXqXqXqXqXqXqXqXqXqXqXqXqXqXqX",
"qXqXqXqXqXqXqXqXqXqXqXqXqXqXqXqXF e.L.U.C.*.! E E =.x.L.L.v./ qXqXqXqXqXqXqXqXqXqXqXqXqXqXqXqXqXqXqX",
"qXqXqXqXqXqXqXqXqXqXqXqXqXqXqXqXqXw.H.U.I.D.C.x.B.F.U.U.C./ qXqXqXqXqXqXqXqXqXqXqXqXqXqXqXqXqXqXqXqX",
"qXqXqXqXqXqXqXqXqXqXqXqXqXqXqXqXqXqX^ w.J.Z.L.B.Z.P.P.J.0.qXqXqXqXqXqXqXqXqXqXqXqXqXqXqXqXqXqXqXqXqX",
"qXqXqXqXqXqXqXqXqXqXqXqXqXqXqXqXqXqXqXA Q 8./ / 8.~ ^ L qXqXqXqXqXqXqXqXqXqXqXqXqXqXqXqXqXqXqXqXqXqX",
"qXqXqXqXqXqXqXqXqXqXqXqXqXqXqXqXqXqXqXqXqXqXqXu u qXqXqXqXqXqXqXqXqXqXqXqXqXqXqXqXqXqXqXqXqXqXqXqXqX",
"qXqXqXqXqXqXqXqXqXqXqXqXqXqXqXqXqXqXqXqXqXqXqXqXqXqXqXqXqXqXqXqXqXqXqXqXqXqXqXqXqXqXqXqXqXqXqXqXqXqX"
};
