/* XPM */
static char *_0ae93f382bd4e52cd2dcc6b35f5e7b8Uksq31SYhDMGmSrd[] = {
/* columns rows colors chars-per-pixel */
"50 50 228 2 ",
"   c #6A2605",
".  c #6C2B03",
"X  c #662508",
"o  c #6A230B",
"O  c #642C0A",
"+  c #6F2C0B",
"@  c #742605",
"#  c #712A06",
"$  c #73260C",
"%  c #742B0A",
"&  c #792C0B",
"*  c #6E3303",
"=  c #6E310A",
"-  c #743303",
";  c #7A3505",
":  c #75330B",
">  c #7C3809",
",  c #6B2511",
"<  c #742414",
"1  c #7B4505",
"2  c #84320F",
"3  c #85430D",
"4  c #864D0F",
"5  c #894D0F",
"6  c #914C0E",
"7  c #9B580C",
"8  c #8A4D12",
"9  c #8D5514",
"0  c #8D5618",
"q  c #975314",
"w  c #93561B",
"e  c #A35A0D",
"r  c #A25310",
"t  c #BE5B10",
"y  c #A56309",
"u  c #AB630D",
"i  c #AF680E",
"p  c #B26B0A",
"a  c #B26B0C",
"s  c #AF7008",
"d  c #B37104",
"f  c #BC7C04",
"g  c #B3730B",
"h  c #B9790A",
"j  c #AD6413",
"k  c #A86418",
"l  c #B16616",
"z  c #B06912",
"x  c #B16E1A",
"c  c #BB7919",
"v  c #985F23",
"b  c #AB7624",
"n  c #CE5C1C",
"m  c #CD730D",
"M  c #D5760F",
"N  c #D37B0C",
"B  c #CC6416",
"V  c #CB6C15",
"C  c #CC661B",
"Z  c #CD6C1A",
"A  c #D2671C",
"S  c #D16B18",
"D  c #CC7A16",
"F  c #C3741E",
"G  c #CE7B1D",
"H  c #D37413",
"J  c #D97715",
"K  c #D3731C",
"L  c #D57D19",
"P  c #C95B27",
"I  c #DC5A21",
"U  c #E15C27",
"Y  c #CC6322",
"T  c #CB6C26",
"R  c #D66628",
"E  c #CC7524",
"W  c #C37A24",
"Q  c #C97C25",
"!  c #CE7B29",
"~  c #D27B27",
"^  c #D97D26",
"/  c #D86433",
"(  c #E06A2A",
")  c #E7722E",
"_  c #E36C3C",
"`  c #BE8903",
"'  c #C78303",
"]  c #C3840B",
"[  c #DA880D",
"{  c #DB930E",
"}  c #DB980F",
"|  c #C0821A",
" . c #CC841C",
".. c #D48515",
"X. c #DC8413",
"o. c #D48B16",
"O. c #D3841B",
"+. c #DA821A",
"@. c #D4891A",
"#. c #DB8B1B",
"$. c #C4981B",
"%. c #D79414",
"&. c #DB9314",
"*. c #D79817",
"=. c #DC931D",
"-. c #E18A0C",
";. c #E2930D",
":. c #EB960D",
">. c #E49B0B",
",. c #F29D0C",
"<. c #E28C12",
"1. c #E3851B",
"2. c #E29213",
"3. c #E79717",
"4. c #E39D12",
"5. c #EA9B13",
"6. c #E39D1A",
"7. c #EFAF07",
"8. c #E5A30E",
"9. c #EBA30C",
"0. c #EDAA0B",
"q. c #FCA505",
"w. c #FBAD04",
"e. c #F5A708",
"r. c #F2AD0C",
"t. c #EBB206",
"y. c #EEBC03",
"u. c #F3B606",
"i. c #FCB304",
"p. c #F4BC04",
"a. c #FCBC02",
"s. c #F4B50A",
"d. c #F9B30C",
"f. c #F6BA0B",
"g. c #FBBC0A",
"h. c #E5A212",
"j. c #EDA410",
"k. c #EEAD10",
"l. c #EBA61A",
"z. c #EBA81D",
"x. c #F7A312",
"c. c #FFA512",
"v. c #F6AC12",
"b. c #EDB511",
"n. c #F6B414",
"m. c #FAB614",
"M. c #F6BE12",
"N. c #FCBB11",
"B. c #CD8424",
"V. c #C6852B",
"C. c #D38321",
"Z. c #DC8723",
"A. c #D88B24",
"S. c #D48529",
"D. c #CC9222",
"F. c #D0922C",
"G. c #D59A2B",
"H. c #C68737",
"J. c #D98A33",
"K. c #C99130",
"L. c #D09731",
"P. c #E18127",
"I. c #E49F30",
"U. c #CDA828",
"Y. c #DBAD2C",
"T. c #DAAA34",
"R. c #DCB13E",
"E. c #E6BA38",
"W. c #EFC102",
"Q. c #EFC908",
"!. c #F4C203",
"~. c #FEC303",
"^. c #F4CB05",
"/. c #FECB03",
"(. c #F5C40B",
"). c #FBC30B",
"_. c #F3CB0B",
"`. c #FCCA0B",
"'. c #FFD204",
"]. c #FFD30C",
"[. c #FAC110",
"{. c #F8C916",
"}. c #F8D717",
"|. c #FDD829",
" X c #E6C432",
".X c #F2CD3F",
"XX c #F6D939",
"oX c #FADC3F",
"OX c #FFE623",
"+X c #FCE924",
"@X c #F9E82C",
"#X c #FAE739",
"$X c #FDF333",
"%X c #FCF13C",
"&X c #FFFA3C",
"*X c #BF9B45",
"=X c #C99E41",
"-X c #CBA644",
";X c #D3AF44",
":X c #D6B143",
">X c #D9B641",
",X c #DFBF45",
"<X c #DFBE49",
"1X c #E8B946",
"2X c #DEC045",
"3X c #EACB45",
"4X c #E6C94E",
"5X c #EAD34C",
"6X c #F3DA42",
"7X c #FBDB41",
"8X c #E6CD55",
"9X c #E9CF52",
"0X c #EBD055",
"qX c #F0D75E",
"wX c #F4E442",
"eX c #F8E747",
"rX c #FDF446",
"tX c #FEFA49",
"yX c #F8EA58",
"uX c #FAF657",
"iX c #FBF955",
"pX c #FEF45D",
"aX c #FEFB5B",
"sX c #FDED65",
"dX c #F7ED68",
"fX c #FEF363",
"gX c #FFFE62",
"hX c #F9F16A",
/* pixels */
"2 > 3 0 w w w v v w 9 9 9 0 9 4 4 4 4 4 4 4 5 5 5 5 5 8 5 8 5 5 8 8 8 0 8 3 1 1 1 2 > > > ; ; : + . ",
"@ 7 U.5X8X8X4X8X9X4X4X4X4X4X4X,X>X2X2X2X2X1X2X2X2X1X,X2X2X,X2X,X2X1X<X2X<X:X:X:X:X;X-XT.-X=X=X-X*Xb ",
"  c XXgXgXgXaXgXaXaXpXfXfXpXpXpXpXpXpXpXpXpXpXpXpXpXpXpXpXpXpXpXpXfXpXfXfXfXfXhXhXhXuXhXhXhXdXdXdX3X",
"  h XXiXsXeX5X5XeXiXuXpXsXpXpXpXpXpXpXpXpXpXpXpXpXpXpXpXpXpXpXpXpXfXfXfXfXfXfXfXaXuXuXyX0XqXsXfXrXoX",
"* f {.@X3XI.^ A.E.XX7XoXoX7XoX7XoX#X7XoXoXoXoXoX7X7XoXoXoXoXoX7X7X7X7X7X7X7X7XoX#XwX.XG.S.J.1X7X|.).",
"- f !._.;.A U I H z.{.N.N.[.[.g.N.M.M.g.[.[.M.g.[.).[.f.).[.[.[.[.p.(.[.).).g.(._.[.%.B I I K l.`.~.",
"$ h _.y.N Y ) ( C :.a.a.p.a.a.a.a.a.a.a.a.a.p.a.a.a.a.i.a.a.a.a.a.i.i.a.a.a.a.p.p.u.H Y ) ( A ;././.",
"< h ^.^.o.P P n m x.~.a.a.a.a.a.a.a.a.a.a.a.a.a.a.a.a.a.a.a.a.a.a.a.a.a.a.a.a.g.).a.[ t P P S 0.'.~.",
"$ h !.'.v.P.V m 5.g.a.a.a.a.a.a.a.a.a.a.a.a.a.a.a.a.a.a.a.a.a.a.a.a.a.a.a.a.a.g.~.a.d.X.V K 6.[././.",
"% ` ^.'.).f.r.7.a.a.a.a.~.a.a.a.a.a.a.a.a.a.a.a.a.a.a.a.a.a.a.a.a.a.a.a.a.a.a.a.a.a.~.s.0.v.g.`.'.`.",
": a 8.(./././.~.~.a.a.a.a.a.a.a.a.a.a.a.a.a.a.a.a.a.a.a.a.a.a.a.a.a.a.a.a.a.a.a.a.a.a.~.~./.].`.n.>.",
": k C.=.8.p.`.~.~.a.a.a.i.a.a.a.a.a.a.a.a.a.a.a.a.a.a.a.a.a.a.a.a.a.a.a.a.a.a.i.a.a.f.~./.`.b.*.o.+.",
": K.T.D.] #.l.f.~.~.~.g.g.a.a.a.a.a.a.a.a.a.a.a.a.a.a.a.a.a.a.a.a.a.a.a.a.a.i.g.g.a.).).s.=. .| D.1X",
"= U.rX6XT.V.F @.0.).~.a.).a.a.a.a.a.a.a.a.a.a.a.a.a.a.a.a.a.a.a.a.a.a.a.a.a.a.g.a.).f.4. .c K. XrXtX",
". $.#XtXeX6XY.Q F @.7.~.~.a.a.a.a.a.a.a.a.a.a.a.a.a.a.a.a.a.a.a.a.a.a.a.a.a.a.~.f.l.D F D. XeXrX&X$X",
"& ] }.OX@X&XrXXXR.V. .k.~.a.a.a.a.a.a.a.a.a.a.a.a.a.a.a.a.a.a.a.a.a.a.a.a.a.~.a.6.c K..XeX%X%X$X+XOX",
"& ' a./.{.}.+X$X%X>XS.6.~.a.a.a.a.a.a.a.a.a.a.a.a.a.a.a.a.a.a.a.a.a.a.a.a.a.~.a.%.H.6X$X$X|.|.{.`./.",
"; ' p.~.a.p.Q.}.OXE.L.6.~.a.a.a.a.a.a.a.a.a.a.a.a.a.a.a.a.a.a.a.a.a.a.a.a.a.~.u.%.F.|.}._.(.(.p.~.~.",
"* ` !.~.a.a.a.a./.z.A.4./.a.a.a.a.a.a.a.a.a.a.a.a.a.a.a.a.a.a.a.a.a.a.a.a.a.a.u.} O.M.a.p.a.a.a.~./.",
": ] !.~.a.a.a.a.~.4.#.h.).a.a.a.a.a.a.a.a.a.a.a.a.a.a.a.a.a.a.a.a.a.a.a.a.a.~.a.&. .a.a.a.~.a.a.~.).",
"& ] !.~.a.!.a.a.~.>.#.h.~.a.a.a.a.a.a.a.a.a.a.a.a.a.a.a.a.a.a.a.a.a.a.a.a.a.~.u.=.O.i.~.a.a.g.a.~.~.",
": ] !.~.a.!.a.a.~.8.@.h.~.a.a.a.a.a.a.a.a.a.a.a.a.a.a.a.a.a.a.a.a.a.a.a.a.a.~.a.&.C.a.~.).a.a.g.~.~.",
"# f !.).a.a.a.a.~.8.@.h.~.a.a.a.a.a.a.a.a.a.a.a.a.a.a.a.a.a.a.a.a.a.a.a.a.a.~.p.=.C.a.a.a.a.a.a.~.~.",
"# f p./.a.!.a.a.~.8.#.4.~.a.a.a.a.a.a.a.a.a.a.a.a.a.a.a.a.a.a.a.a.a.a.a.a.a.~.a.&.O.f.~.a.!.g.a.~.).",
"# f p.~.a.!.a.a.~.8.@.h.).a.a.a.a.a.a.a.a.a.a.a.a.a.a.a.a.a.a.a.a.a.a.a.a.a.~.u.&.~ a.a.a.a.a.g.~.~.",
"+ h !./.a.a.a.!.~.h.@.5.~.a.a.a.a.a.a.a.a.a.a.a.a.a.a.a.a.a.a.a.a.a.a.a.a.a.~.i.=.S.f.~.!.).a.a.~./.",
", g !./.a.a.!.!./.h.A.h.~.a.a.a.a.a.a.a.a.a.a.a.a.a.a.a.a.a.a.a.a.a.a.a.a.a.~.u.=.S.f.~.!.a.a.~.~./.",
", i W./.i.a.!.!.^.8.@.8./.a.a.a.a.a.a.a.a.a.a.a.a.a.a.a.a.a.a.a.a.a.a.a.a.a.~.p.%.B.p.~.!.a.a.a.~.~.",
"o d W./.g.g.~.!.~.h.o.8.~.a.a.a.a.a.a.a.a.a.a.a.a.a.a.a.a.a.a.a.a.a.a.a.a.a./.p.*.B.f.~.a.a.a.a.~.~.",
"o d W./.a.a.g.g.a.>.@.8.~.a.a.a.a.a.a.a.a.a.a.a.a.a.a.a.a.a.a.a.a.a.a.a.a.a.~.!.*.B.s.a.g.a.g.g.~.).",
"o s W./.a.a.i.w.i.;.+.h./.a.a.a.a.a.a.a.a.a.a.a.a.a.a.a.a.a.a.a.a.a.a.a.a.a.~.p.G.! e.w.w.w.i.i.g.`.",
"X s y.~.w.d.i.q.:.G ~ l./.a.a.a.a.a.a.a.a.i.a.a.a.a.a.a.a.a.a.a.a.a.a.a.a.a.~.a.=.T 1.,.w.w.w.w.i.g.",
"O i t.a.q.x.5.o.D L A.m.~.a.a.a.a.a.a.a.a.a.a.a.a.a.a.a.a.a.a.a.a.a.a.a.a.a.a.a.j.+.G L &.9.e.q.q.c.",
"O z 9.w.:.1.~ W o.h.g.~.!.a.a.a.a.a.a.a.a.a.a.a.a.a.a.a.a.a.a.a.a.a.a.a.a.a.a.~.a.s.>. .Q L 2.:.q.c.",
"X z 5.:.D E A.z.N.`.~.a.a.a.a.a.a.a.a.a.a.a.a.a.a.a.a.a.a.a.a.a.a.a.a.a.a.a.g.a.~.~.~.n.6.! E L :.x.",
"+ r K ^ A.0.).~.~.a.a.g.a.a.a.a.a.a.a.a.a.a.a.a.a.a.a.a.a.a.a.a.a.a.a.a.a.a.a.a.g.a.).~.~.f.6.C.E +.",
". e #.n.)./.~.a.g.a.a.a.a.a.a.a.a.a.a.a.a.a.a.a.a.a.a.a.a.a.a.a.a.a.a.a.a.a.a.!.a.!.p.a.p.~.~.f.l.#.",
"o a y.'.^.(.a.a.a.a.a.a.a.a.a.a.a.a.a.a.a.a.a.a.a.a.a.a.a.a.a.a.a.a.a.a.a.a.a.a.a.g.g.a.a.).!.^.`.N.",
"X d !./.p.!.a.a.a.g.g.g.a.a.a.a.a.a.a.a.a.a.a.a.a.a.a.a.a.a.a.a.a.a.a.a.a.a.a.a.a.a.g.a.a.!.!.~.).{.",
"  d u.`.(.!.!.a.a.!.N.g.a.a.a.a.a.a.a.a.a.a.a.a.a.a.a.a.a.a.a.a.a.a.a.a.a.a.i.a.a.a.a.a.~.!.!.!.).N.",
"  d y./.).g.a.a.).a.a.g.d.a.a.a.a.a.a.a.a.a.a.a.a.a.a.a.a.a.a.a.a.a.a.a.a.a.a.a.g.a.~.~.~.a.).!.~.).",
"o d y.'.g.m.v.v.g.).).a.g.a.a.a.a.a.a.a.a.a.a.a.a.a.a.a.a.a.a.a.a.a.a.a.a.a.a.!.a.!.a.g.r.v.N.~.~.g.",
"o d W.].n.<.J M 3.m.~.a.a.a.a.a.a.a.a.a.a.a.a.a.a.a.a.a.a.a.a.a.a.a.a.a.a.a.a.a.!.a.n.[ N J 5.g./.~.",
"  d Q./.{ S R Z H 0.~.a.a.a.a.a.a.a.a.a.a.a.a.a.a.a.a.a.a.a.a.a.a.a.a.a.a.a.f.a.~.a.<.Y R R H 0.`.g.",
"  g _.^.[ Y _ / V j.~./.~.~.~.).~.~.~.~.~.~.~.~.~.~.~.~.~.~.~.~.~.~.~.~.~.~.).`./.g.X.R _ / A h.].^.",
"  g (.^.[ Y / Y H 5.p.y.y.s.s.s.s.s.s.s.s.s.s.s.s.s.u.u.u.u.u.u.u.u.u.u.u.u.u.u.p.s.-.B R P R 5.`.p.",
"$ h t.0.X.R Y C L <.;.{ { &.&.&.&.&.&.&.&.&.&.&.&.{ { { { { { { { { { { { { &.{ { ;.X.V B C K ;.0.b.",
"< d 9.2.+.P.^ C.#.X...+.L O.O.O. .O.O. .O.O.O.O.O.O.O.O.O.O.L O.L ..O.O. ...+.L X.X.X.Z.L Z.@.@.o.*.",
"$ p =.=.@.#.A.@.o.o.O.L +.O.O. .@. .@. .@.@. .@.O.@.@.@.@.@.@.@...o.@.@.@.@.@.+.+. ...o.@.B.Q W c k ",
"& 6 x x j z l j z l l j e u u u u u u e e u u e l z z i i i i i i i i u i i i j j k y y y 7 q 8 3 - "
};
