/* XPM */
static char *_70ff696a8c146ee897461b5c12c8abdRyg2ZbI8RXHs0yNz[] = {
/* columns rows colors chars-per-pixel */
"50 50 129 2 ",
"   c None",
".  c #000001",
"X  c #090706",
"o  c #0A0907",
"O  c #04040A",
"+  c #090608",
"@  c #0D0B0B",
"#  c #100E0B",
"$  c #10100F",
"%  c #070710",
"&  c #070814",
"*  c #090A16",
"=  c #0A0B19",
"-  c #141413",
";  c #1A1612",
":  c #1D1915",
">  c #171718",
",  c #1F131B",
"<  c #1B1B1B",
"1  c #201B16",
"2  c #22141E",
"3  c #221E19",
"4  c #26211B",
"5  c #2B251E",
"6  c #0D0E21",
"7  c #0F1025",
"8  c #101127",
"9  c #11132C",
"0  c #151633",
"q  c #161837",
"w  c #171939",
"e  c #2B1925",
"r  c #252525",
"t  c #2E2721",
"y  c #2D2D2D",
"u  c #332B24",
"i  c #382F27",
"p  c #3C332A",
"a  c #382231",
"s  c #41372E",
"d  c #42382F",
"f  c #412739",
"g  c #482C3F",
"h  c #473C32",
"j  c #4A3F34",
"k  c #4C4136",
"l  c #56493D",
"z  c #584A3E",
"x  c #1A1C41",
"c  c #1D1F49",
"v  c #1E214C",
"b  c #222454",
"n  c #242759",
"m  c #26295F",
"M  c #272A61",
"N  c #282B64",
"B  c #2B2E6B",
"V  c #2E3172",
"C  c #32357C",
"Z  c #4F2F45",
"A  c #503046",
"S  c #56334B",
"D  c #59354E",
"F  c #635445",
"G  c #675849",
"H  c #6B5B4B",
"J  c #746352",
"K  c #7B6956",
"L  c #7F6C5A",
"P  c #826E5B",
"I  c #86725F",
"U  c #897460",
"Y  c #8E7964",
"T  c #937D67",
"R  c #947E68",
"E  c #97806A",
"W  c #9A836B",
"Q  c #A48B73",
"!  c #A88F77",
"~  c #AC9279",
"^  c #333680",
"/  c #353985",
"(  c #373B89",
")  c #393D8E",
"_  c #3A3E92",
"`  c #3B4094",
"'  c #3E439B",
"]  c #40459F",
"[  c #4146A3",
"{  c #474DB3",
"}  c #484DB5",
"|  c #4C52BE",
" . c #4E54C4",
".. c #5157CB",
"X. c #5358CF",
"o. c #545AD2",
"O. c #575DD9",
"+. c #595FDE",
"@. c #5C61E5",
"#. c #5D63E8",
"$. c #B99D83",
"%. c #BDA186",
"&. c #C0A387",
"*. c #C2A589",
"=. c #C7A98C",
"-. c #CAAB8E",
";. c #CBAD8F",
":. c #CCAD90",
">. c #CEAF91",
",. c #CEAF92",
"<. c #CFB092",
"1. c #D1B193",
"2. c #D2B294",
"3. c #D3B395",
"4. c #D4B496",
"5. c #D5B596",
"6. c #D6B697",
"7. c #D7B698",
"8. c #D8B799",
"9. c #D8B899",
"0. c #DAB99A",
"q. c #DBB99A",
"w. c #DBBA9B",
"e. c #DCBA9B",
"r. c #DCBB9B",
"t. c #DCBB9C",
"y. c #DDBB9C",
"u. c #DDBC9C",
"i. c #DEBC9D",
/* pixels */
"                                                                                                    ",
"                                                                                                    ",
"                                                                                                    ",
"                                                                                                    ",
"                                                                                                    ",
"                                                                                                    ",
"                                                                                                    ",
"                                                                                                    ",
"                                                    . . . .   . .                                   ",
"                                                  . O O . . O * .                                   ",
"                                          . . . . * V 8 . 6 V ( O .                                 ",
"                                    .   . . . O 0 [ [ = v ` o.' . . .                               ",
"                                    . . O 0 w V | @.[ C [  .#./ . . .                               ",
"                                  . . . q | +.@.@.@.@... .@.#.B O = .                               ",
"                                . * = O C O.+.o.@.#.#.@.@.@.@.M N 9 .                               ",
"                                . b v 7 '  .{ | #.o.} #.@.@.@.} / = . . .                           ",
"                                . M B n [ [ ` } #.V 9 ..@.#.@.#.X.N . .                             ",
"                                . v _ ) ' ] n B { * . x C ..' _ _ & .                               ",
"                              . . v [ ' v b * & 9 ; p . O q 0 * O .                                 ",
"                              . . q ' V . . O X . i p . . . . . . . .                               ",
"                              . o O b w o o k J O o < < O . # . . . .                               ",
"                              X F u O O p P ~ :.u > y y < 3 1 - @ . .                               ",
"                              o P I 1 . l 0.0.1.u < y y < < : r r @ .                               ",
"                              @ P W G . G i.0.:.u < y r ; ; - 4 y < .                               ",
"                              o L W R 5 J i.0.6.h - r y < h p - r >                                 ",
"                              . G W W H I u.0.i.Y @ < < - Y ! 4 o .                                 ",
"                              . d W W R E -.0.0.4.H : : H 4.t.Q @ .                                 ",
"                              . ; I W W W Q :.0.0.0.%.%.9.t.i.K .                                   ",
"                                . j W W W W Q -.0.0.r.0.3.$.~ 4 .                                   ",
"                                . o G W W W W Q &.7.r.1.~ R t .                                     ",
"                                  . # G E W W W W ~ =.3.*.z O .                                     ",
"                                    . X s K T W W E Y J u . .                                       ",
"                                      . . o 3 p s u : . .                                           ",
"                                  . . . . . X X . . . . .                                           ",
"                                . . . . . . e g e . . . . . .                                       ",
"                                . . . . . . e S a . . . . . .                                       ",
"                                . . . . . . 2 A A @ . . . . .                                       ",
"                                  . . . . . @ f D 2 . . . . .                                       ",
"                                  . . . . . . @ , X . . . .                                         ",
"                                            . . . .                                                 ",
"                                    . . .             . . .                                         ",
"                                    . . . .           . . . .                                       ",
"                                      . . .             . .                                         ",
"                                                                                                    ",
"                                                                                                    ",
"                                                                                                    ",
"                                                                                                    ",
"                                                                                                    ",
"                                                                                                    ",
"                                                                                                    "
};
