/* XPM */
static char *b033bd1d6c48491dd77e2a7cfa08c35cMLjAQoeCcUtYMq6e[] = {
/* columns rows colors chars-per-pixel */
"50 50 98 2 ",
"   c None",
".  c #010000",
"X  c #0A0306",
"o  c #0A0907",
"O  c #0E0308",
"+  c #040E0D",
"@  c #0B0B0B",
"#  c #13050A",
"$  c #19060E",
"%  c #110F0D",
"&  c #13110E",
"*  c #1D0711",
"=  c #051412",
"-  c #071B18",
";  c #081E1B",
":  c #131413",
">  c #191613",
",  c #191A1A",
"<  c #240814",
"1  c #290A17",
"2  c #2F0B1A",
"3  c #320C1C",
"4  c #380D1F",
"5  c #241F1A",
"6  c #26211C",
"7  c #2B241E",
"8  c #3D0F22",
"9  c #0A2521",
"0  c #0B2925",
"q  c #0D2F2B",
"w  c #0D332E",
"e  c #103E39",
"r  c #232323",
"t  c #2D2620",
"y  c #2B2B2B",
"u  c #393028",
"i  c #441126",
"p  c #52142E",
"a  c #5B1632",
"s  c #601735",
"d  c #641837",
"f  c #671939",
"g  c #6C1B3C",
"h  c #721C3F",
"j  c #42382F",
"k  c #443A30",
"l  c #483D33",
"z  c #4D4236",
"x  c #54473B",
"c  c #761D41",
"v  c #7C1E44",
"b  c #16544C",
"n  c #185A52",
"m  c #1E7268",
"M  c #227F74",
"N  c #5C4E41",
"B  c #635446",
"V  c #70604F",
"C  c #756352",
"Z  c #786554",
"A  c #7E6B59",
"S  c #801F47",
"D  c #842049",
"F  c #8B224D",
"G  c #942452",
"H  c #9A2556",
"J  c #A2275A",
"K  c #A6285C",
"L  c #A9295F",
"P  c #AF2A62",
"I  c #B42B64",
"U  c #B82C67",
"Y  c #BE2E6A",
"T  c #C22F6C",
"R  c #C7306F",
"E  c #C8306F",
"W  c #C93170",
"Q  c #836F5C",
"!  c #83705D",
"~  c #8E7864",
"^  c #927C67",
"/  c #238277",
"(  c #24887B",
")  c #9E866F",
"_  c #A38A73",
"`  c #AE947B",
"'  c #B4997F",
"]  c #279083",
"[  c #2A9E90",
"{  c #BEA186",
"}  c #C5A78B",
"|  c #CBAC8F",
" . c #CDAE91",
".. c #CFB092",
"X. c #D4B496",
"o. c #D7B798",
"O. c #D8B798",
"+. c #DCBB9C",
/* pixels */
"                                                                                                    ",
"                                                                                                    ",
"                                                                                                    ",
"                                                                                                    ",
"                                                                                                    ",
"                                                                                                    ",
"                                                                                                    ",
"                                                                                                    ",
"                                                                                                    ",
"                                            . . . . . . .                                           ",
"                                        . . X < 3 8 3 * . . .                                       ",
"                                      . $ s H U T T T I G p # .                                     ",
"                                    . 8 K W W W R R R W W R H 3 .                                   ",
"                                  . i U W R R R R R R R W R W P 8 .                                 ",
"                                . $ J W R R R R R R R E R R R W K * .                               ",
"                                . i U W W R R R R R R R R R R R E c .                               ",
"                                X g L E R R R R R R R R R R E R W P $ .                             ",
"                              . O c G T W Y P E R W K U W R U R T P 8 .                             ",
"                              . $ v F J E K c E R W c F W R g I I f a .                             ",
"                              . # v F F J G 3 K Y U 8 a Y G $ G v < p .                             ",
"                              . # c F F F D # $ 1 < X O 1 $ . * # . # .                             ",
"                              . # c F F F F i . . . @ @ @ . @ o @ @ . .                             ",
"                              . O c F F F F p o t : y y y : > , y y o                               ",
"                              . O c F F F F 3 6 x : y y y > 7 : y r o                               ",
"                              . # c F F D D $ z ~ % r y r t ! % , : .                               ",
"                              . # c F F c c O V X.u + : @ A o.Z & .                                 ",
"                              . # v F D h h X ! +.} B k ! X.+. .7 .                                 ",
"                              . $ D D D g g X ! +.+.+.X.+.+.+.^ o                                   ",
"                              . < D g F a c O x o.+.O.O. ._ ~ t .                                   ",
"                              . 2 D a F a c < 6 ) } O.O.{ ` u .                                     ",
"                              . 1 d i v p a 8 . B ) ` } ' l . .                                     ",
"                              . . X X # O X . . 5 Q C l > . .                                       ",
"                                  . . . . . . . X & o . .                                           ",
"                                . . . . . . - q 0 . . . . .                                         ",
"                                . . . . . . w ( M + . . . . .                                       ",
"                                . . . . . . 9 / ] ; . . . . .                                       ",
"                                  . . . . . = m [ b . . . . .                                       ",
"                                  . . . . . . e / n . . . . .                                       ",
"                                    . . .   . . + . . . . .                                         ",
"                                      .         . .     .                                           ",
"                                    . . . .           . . .                                         ",
"                                    . . . .           . . . .                                       ",
"                                                                                                    ",
"                                                                                                    ",
"                                                                                                    ",
"                                                                                                    ",
"                                                                                                    ",
"                                                                                                    ",
"                                                                                                    ",
"                                                                                                    "
};
