/* XPM */
static char *_12f596d251048c7b8baacc09ff5a82frzPemTAwovq130W0[] = {
/* columns rows colors chars-per-pixel */
"50 50 200 2 ",
"   c #27262E",
".  c #23222A",
"X  c #201F27",
"o  c #212028",
"O  c #222129",
"+  c #1F1E26",
"@  c #24232B",
"#  c #25242C",
"$  c #26252D",
"%  c #28272F",
"&  c #292830",
"*  c #2A2931",
"=  c #2D2C34",
"-  c #2E2D35",
";  c #2F2E36",
":  c #2C2B33",
">  c #2B2A32",
",  c #403F47",
"<  c #4B4A52",
"1  c #4C4B53",
"2  c #4A4951",
"3  c #48474F",
"4  c #47464E",
"5  c #44434B",
"6  c #43424A",
"7  c #3E3D45",
"8  c #3F3E46",
"9  c #393840",
"0  c #33323A",
"q  c #4E4D55",
"w  c #58575F",
"e  c #57565E",
"r  c #55545C",
"t  c #56555D",
"y  c #54535B",
"u  c #53525A",
"i  c #4F4E56",
"p  c #38373F",
"a  c #35343C",
"s  c #5A5961",
"d  c #3D3C44",
"f  c #34333B",
"g  c #3C3B43",
"h  c #525159",
"j  c #515058",
"k  c #504F57",
"l  c #46454D",
"z  c #414048",
"x  c #45444C",
"c  c #393841",
"v  c #585760",
"b  c #55545B",
"n  c #56555E",
"m  c #3F3E47",
"M  c #302F37",
"N  c #323138",
"B  c #35343B",
"V  c #3B3A42",
"C  c #47464D",
"Z  c #515057",
"A  c #57565F",
"S  c #535259",
"D  c #49484F",
"F  c #3E3D44",
"G  c #37363D",
"H  c #25242B",
"J  c #302F35",
"K  c #3A393D",
"L  c #37363B",
"P  c #313035",
"I  c #333237",
"U  c #3B3A40",
"Y  c #54535C",
"T  c #3D3C43",
"R  c #343338",
"E  c #323136",
"W  c #39383E",
"Q  c #313036",
"!  c #242328",
"~  c #3C3B40",
"^  c #3D3C41",
"/  c #38373B",
"(  c #34333A",
")  c #424149",
"_  c #37363E",
"`  c #323137",
"'  c #37363A",
"]  c #3D3C40",
"[  c #242327",
"{  c #403F44",
"}  c #3F3E42",
"|  c #36353D",
" . c #4D4C54",
".. c #494850",
"X. c #323139",
"o. c #38373E",
"O. c #3B3A3F",
"+. c #3F3E43",
"@. c #252428",
"#. c #424146",
"$. c #454449",
"%. c #3E3D43",
"&. c #3A3941",
"*. c #26252A",
"=. c #444348",
"-. c #49484D",
";. c #47464B",
":. c #424147",
">. c #414047",
",. c #464549",
"<. c #4A494E",
"1. c #48474C",
"2. c #38373C",
"3. c #434247",
"4. c #47464C",
"5. c #48474B",
"6. c #46454A",
"7. c #46454C",
"8. c #46454B",
"9. c #595860",
"0. c #46454E",
"q. c #47464F",
"w. c #2F2E33",
"e. c #414045",
"r. c #2E2D32",
"t. c #27262B",
"y. c #2D2C33",
"u. c #403F45",
"i. c #48474E",
"p. c #313038",
"a. c #44434C",
"s. c #48474D",
"d. c #49484E",
"f. c #27262C",
"g. c #43424B",
"h. c #27262D",
"j. c #414049",
"k. c #45444D",
"l. c #33323B",
"z. c #494851",
"x. c #54525B",
"c. c #525259",
"v. c #52525A",
"b. c #52515A",
"n. c #53515A",
"m. c #4B4B52",
"M. c #3F3F47",
"N. c #36353E",
"B. c #3E3D46",
"V. c #3E3C45",
"C. c #3B3A41",
"Z. c #3A3A41",
"A. c #3A3A42",
"S. c #3A3942",
"D. c #393941",
"F. c #3A3841",
"G. c #3C3A42",
"H. c #3D3D45",
"J. c #3C3A43",
"K. c #3A3840",
"L. c #34333C",
"P. c #2C2C33",
"I. c #282830",
"U. c #272530",
"Y. c #25242E",
"T. c #24232D",
"R. c #24242A",
"E. c #242528",
"W. c #23242B",
"Q. c #24222E",
"!. c #24222D",
"~. c #232428",
"^. c #222326",
"/. c #212228",
"(. c #222229",
"). c #232129",
"_. c #24202B",
"`. c #23212B",
"'. c #23202B",
"]. c #222227",
"[. c #222226",
"{. c #232226",
"}. c #24212D",
"|. c #24232A",
" X c #242426",
".X c #25222C",
"XX c #25232C",
"oX c #23232B",
"OX c #23232D",
"+X c #23232C",
"@X c #222327",
"#X c #212224",
"$X c #24212A",
"%X c #24212C",
"&X c #22212C",
"*X c #21202A",
"=X c #222029",
"-X c #292630",
";X c #292631",
":X c white",
/* pixels */
"  . X o O o o o X X o o + + X X X X X X o o o X + X X X X X X X X X o o O O o X o . @ # $ $ $ % & * ",
"% & = - - - - - ; - = = = : > > > > > > > > > > > > > > > > > > > > > > * %   %   $   $ # $ $ $   & ",
"- , < 1 2 2 < < < 2 2 < 2 3 4 4 4 4 4 4 4 4 4 4 4 4 4 4 4 4 4 4 4 4 4 4 4 5 6 6 6 6 6 , 7 8 , 9 : # ",
"0 q w e r r r r r r t t y y y r r r r r r r r r r r r r r r r r r y r r r r r r r r r y u u t i p @ ",
"a q e r r r r r r r r r r r r r r r r r r r r r r r r r r r r r r r r t r t t t t t t t e e s r d @ ",
"f 1 r y y y y y y y y y y r y y y y y y y y y y y y y y y y y y y y y y y y y y y y y y y y w u g # ",
"f 1 r r y y y y y y y y y u u y y y y y y y y y y y y y y y y y y y u y y y y y y y y y y y e u g # ",
"f 1 r r y y y y y y y y u h h y r r y y y y y y y y y y y y y y r r y u y u y y y y y y y y e u d # ",
"f 1 r r y y y y y y y y u h h j k j j j j j j j j j j j j j j j j j h u u y y y y y y y y y e u d @ ",
"a 1 r r y y y y y y y y u u j l , , z z z z z z z z z z z z z z , , l h u u y y y y y u y y e u 7 $ ",
"a 1 e e t r y y y y y y u u h 2 x x l l l l l l l l l l l l l l x l 2 h y u y y y y y u y y w u d $ ",
": c 3 u v e y y y y y y u h u u u u u u u u u u u u u u u u u u u y y y u y y y y y b r n y 1 m M # ",
": N B V C Z t t y y y y u h h r t t r r r r r r r r r r r r r r t e t y y r r y y t A S D F G 0 = H ",
"J K L P I U x k r r y u u u j i i i i i i i i i i i i i i i i i i i h u y r t e e Y 2 T R E L W Q ! ",
"P ~ ^ / R I ( g 4 k u y y y k l , , ) ) ) ) ) ) ) ) ) ) ) ) ) ) z z 3 h r r r h < z _ ` E ' ] ^ E [ ",
"P ^ { } ~ W B 0 | 8  .r r y j 3 6 6 5 5 5 5 5 5 5 5 5 5 5 5 5 5 6 5 ..h y r i 6 _ X.f o.O.^ { +.I @.",
"E #.$.#.{ %.F &.0 f x y t y u u u u u u u u u u u u u u u u u u u u u u u t ..| M _ d F +.{ $.$.L *.",
"E =.-.;.$.:.>.8 &.| 6 u t y y t e e e e e e e e e e e e e e e e e e r y u t 4 _ | 7 , >.=.,.<.1.2.*.",
"E 3.1.;.;.4.4 x 7 p 5 u t y u u h h h h h h h h h h h h h h h h h h u y u t 3 p 9 5 l C 5.;.-.6.2.*.",
"E 3.1.6.6.7.4 3 ) &.x r e y i l ) ) 6 6 6 6 6 6 6 6 6 6 6 6 6 6 ) 6 2 u r w 3 9 g 4 3 4.6.$.1.6.2.*.",
"E 3.1.6.6.8.l 4 z &.l y t y k 4 6 6 6 6 6 6 6 6 6 6 6 6 6 6 6 5 ) 5 < u r 9...9 V 0.q.8.,.,.1.6.2.*.",
"E 3.1.6.6.8.l 4 z &.l y r h h j j j j j j j j j j j j j j j j j j j h u t w 3 9 V l 4 8.,.,.1.6.2.*.",
"E #.1.6.6.8.l 4 z &.x y r h u y r t t t t t t t t t t t t t t t t t y u y e 3 9 V l 4 8.,.,.1.6.2.*.",
"E #.1.6.6.8.l 4 z &.x y r h h j j j j j j j j j j j j j j j j j j j h u u e 3 9 V l 4 8.,.,.1.6.2.*.",
"E #.;.;.6.8.l 4 z &.x y r u j ..6 6 5 5 5 5 5 5 5 5 5 5 5 5 5 5 6 5 ..h y e 3 9 V l 4 8.,.,.1.6.2.*.",
"w.e.;.;.6.8.l 4 z &.x y r h j 4 , , ) ) ) ) ) ) ) ) ) ) ) ) ) ) z z 4 h r w 3 9 V l 4 8.,.,.1.6.2.*.",
"r.{ ;.;.6.8.l 4 z &.x y r h j i  . .q q q q q q q q q q q q q q q  .q h u e 3 9 V l 4 8.,.,.1.6.2.t.",
"r.{ ;.;.6.8.l 4 z 9 x y r h h y r r r r r r r r r r r r r r r r r r y u u e 3 9 V l 4 8.,.,.1.6.2.t.",
"r.{ ;.;.6.8.l 4 z 9 5 u y h j h u u u u u u u u u u u u u u u u u u u u y w 3 9 V l 4 8.,.,.1.6.2.t.",
"r.{ ;.;.6.8.l 4 z p 6 h r y j ..x x l l l l l l l l l l l l l l x x < u u w ..9 V 4 q.8.,.,.1.6.2.t.",
"r.{ ;.;.6.7.3 ..z _ ) h r y k 5 8 8 , , , , , , , , , , , , , , 8 , 4 h t 9.3 p V 3 3 7.6.,.1.6.2.t.",
"y.u.4.7.C i.x 7 f a x u r y u j k k k k k k k k k k k k k k k k k k j y r w < _ p.g a.C s.C d.7.o.f.",
"y.z ..4 6 g a X.p x i u y y y r t t t t t t t t t t t t t t t t t r r y y r j 4 V f | V g.3 < 4 p h.",
"= j.k.g f l.&.5  .u y h u y y r r t r t t t t t t t t t t t t r t r y y r y y y k l d | a V x q.9   ",
": p 9 | 9 5 q y t r u u y r h 2 4 4 4 4 4 4 4 4 4 4 4 4 4 4 4 4 4 3 1 u y r r t t y k ..7 | p V f % ",
"> a d x  .y e t y u u u y r k 5 8 8 , , , , , , , , , , , , , , 8 z ..u y r r y y r e t j 3 , p -   ",
"; ) j t t r y y y y y u u u j  .< < 1 1 1 1 1 1 1 1 1 1 1 1 1 1 < 1 q u y r y y y y y y t e y ..f $ ",
"0 q w t y y y y y y y u j j u t e t t e e e e e e e e e e e e t t t y u y r y y y y y u u y s t 8 $ ",
"0 1 r r y r y y y y y u j j u r r y y r r r r r r r r r r r r y y y y u u y y y y y y y y y w u d $ ",
"0 < r r y y y y y y y y u h j  .2 2 < < < < < < < < < < < < < < 2 2 q u h u y y y y y y y y e h g # ",
"0 < r r y y y y y y y y y u k x 7 d 8 8 8 8 8 8 8 8 8 8 8 8 8 8 7 8 4 h y r y y y y y y y y e h g # ",
"0 < r r y y y y y y y y u h h i  . . . . . . . . . . . . . . . . .1  .j y y y y y y y y y y e h g # ",
"0 < r r y y y y y y y y u h h u y y y y y y y y y y y y y y y y y y u h u y y y y y y y y y e h g # ",
"0 < r r y y y y y y y y u u u u y y y y y y y y y y y y y y y y y y y u y y y y y y y y y y e h g # ",
"0 < r r y y y y y y y y y y y y u u u u u u u u u u u u u u u u u y y y y y y y y y y y y y e h V @ ",
"0 1 t r y y y y y y y y y y y y y y y y y y y y y y y y y y y y y y y y y y y y y y y y y r 9.h 9 . ",
"f q w e t t t t t t e e e e t t t t t t t e e t t t t t t t t t t t t t t t t t t t e t t e s i a O ",
"p.z.t t y y y y x.u u u h c.c.v.u S S h h b.u u u y y Y Y Y y y y y Y y y x.n.b.b.u y h i q m.M.= # ",
"* N.B.M.7 7 7 7 V.g C.&.&.Z.A.A.C.C.V C.S.D.F.G.d H.7 7 7 B.7 7 7 7 7 7 7 d J.J.g V K.p L.p.P.I.% & ",
"U.Y.T.R.E.W.Q.!.~.^./.(.)._._.).).`.'.O ].[.{.).}.Q.|. X~.W.@ .XXX@ oXOX+X@X#X[.O `.$X%X&X*X=XXX-X;X"
};
