/* XPM */
static char *result[] = {
/* columns rows colors chars-per-pixel */
"50 50 148 2 ",
"   c #040204",
".  c #0C0005",
"X  c #070408",
"o  c #0B050B",
"O  c #0D080F",
"+  c #130106",
"@  c #180107",
"#  c #150208",
"$  c #1C030C",
"%  c #17090D",
"&  c #18090E",
"*  c #0E0710",
"=  c #0F0811",
"-  c #150713",
";  c #180716",
":  c #120A14",
">  c #1E0910",
",  c #170C1A",
"<  c #1A0E1C",
"1  c #1C101F",
"2  c #23030E",
"3  c #2C020E",
"4  c #230612",
"5  c #2C0512",
"6  c #240A13",
"7  c #2D0915",
"8  c #23091A",
"9  c #2E0B1A",
"0  c #330514",
"q  c #390617",
"w  c #340817",
"e  c #3B0917",
"r  c #35071A",
"t  c #3C071A",
"y  c #330B19",
"u  c #3B0B1B",
"i  c #2E111B",
"p  c #39101E",
"a  c #1E0E22",
"s  c #1D1021",
"d  c #230E25",
"f  c #2E0C24",
"g  c #330E26",
"h  c #3C0B21",
"j  c #370F2B",
"k  c #380E2A",
"l  c #221326",
"z  c #26142A",
"x  c #29142D",
"c  c #3B1321",
"v  c #3E1825",
"b  c #33122F",
"n  c #3D1E29",
"m  c #2B1631",
"M  c #2E1934",
"N  c #341534",
"B  c #301A36",
"V  c #351C3B",
"C  c #381F3F",
"Z  c #39213E",
"A  c #45071C",
"S  c #4A051C",
"D  c #42091C",
"F  c #4C0B1F",
"G  c #430E22",
"H  c #4C0D23",
"J  c #430D28",
"K  c #550521",
"L  c #520B23",
"P  c #5B0B26",
"I  c #550E29",
"U  c #5C0F2C",
"Y  c #441223",
"T  c #4B1326",
"R  c #4D1528",
"E  c #421C29",
"W  c #4C1B2C",
"Q  c #521126",
"!  c #54142A",
"~  c #5D122B",
"^  c #55192E",
"/  c #4A0F30",
"(  c #4F1439",
")  c #5E1132",
"_  c #561D30",
"`  c #5C1C32",
"'  c #610F29",
"]  c #680E2D",
"[  c #710D2F",
"{  c #62132E",
"}  c #631631",
"|  c #6D1332",
" . c #631C34",
".. c #691834",
"X. c #701534",
"o. c #721D3A",
"O. c #7F1D3F",
"+. c #45212D",
"@. c #4C2834",
"#. c #542133",
"$. c #5F2337",
"%. c #5D2C3D",
"&. c #632037",
"*. c #65243A",
"=. c #6A213A",
"-. c #622C3E",
";. c #70243E",
":. c #7A203F",
">. c #3A1E42",
",. c #3D2144",
"<. c #451A40",
"1. c #4B1A43",
"2. c #402447",
"3. c #43244B",
"4. c #472450",
"5. c #4C2B54",
"6. c #4F2B58",
"7. c #582051",
"8. c #522D5A",
"9. c #55315E",
"0. c #722640",
"q. c #792542",
"w. c #762943",
"e. c #7B2946",
"r. c #7C2E49",
"t. c #663043",
"y. c #683446",
"u. c #7A334B",
"i. c #723D4F",
"p. c #5C3465",
"a. c #63376D",
"s. c #63386E",
"d. c #663971",
"f. c #693B74",
"g. c #821037",
"h. c #891A40",
"j. c #981743",
"k. c #852445",
"l. c #8B2346",
"z. c #802A47",
"x. c #832C4A",
"c. c #892F4E",
"v. c #92274C",
"b. c #89314F",
"n. c #9E2A51",
"m. c #883451",
"M. c #933152",
"N. c None",
/* pixels */
"N.N.N.N.N.N.N.N.N.N.N.N.N.N.N.N.N.N.N.N.N.N.N.N.N.N.N.N.N.N.N.N.N.N.N.N.N.N.N.N.N.N.N.N.N.N.N.N.N.N.",
"N.N.N.N.N.N.N.N.N.N.N.N.N.N.N.N.N.N.N.N.N.N.N.N.N.N.N.N.N.N.N.N.N.N.N.N.N.N.N.N.N.N.N.N.N.N.N.N.N.N.",
"N.N.N.N.N.N.N.N.N.N.N.N.N.N.N.N.N.N.N.N.N.N.N.N.N.N.N.N.N.N.N.N.N.N.N.N.N.N.N.N.N.N.N.N.N.N.N.N.N.N.",
"N.N.N.N.N.N.N.N.N.N.N.N.N.N.N.N.N.N.N.N.N.N.N.N.N.N.N.N.N.N.N.N.N.N.N.N.N.N.N.N.N.N.N.N.N.N.N.N.N.N.",
"N.N.N.N.N.N.N.N.N.N.N.N.N.N.N.N.N.N.N.N.N.N.N.N.N.N.N.N.N.N.N.N.N.N.N.N.N.N.N.N.N.N.N.N.N.N.N.N.N.N.",
"N.N.N.N.N.N.N.N.N.N.N.N.N.N.N.N.N.N.N.N.N.N.N.N.N.N.N.N.N.N.N.N.N.N.N.N.N.N.N.N.N.N.N.N.N.N.N.N.N.N.",
"N.N.N.N.N.N.N.N.N.N.N.N.N.N.N.N.N.N.N.N.N.N.N.N.N.N.N.N.N.N.N.N.N.N.N.N.N.N.N.N.N.N.N.N.N.N.N.N.N.N.",
"N.N.N.N.N.N.N.N.N.N.N.N.N.N.N.N.N.N.N.N.N.N.N.N.N.N.N.N.N.N.N.N.N.N.N.N.N.N.N.N.N.N.N.N.N.N.N.N.N.N.",
"N.N.N.N.N.N.N.N.N.N.N.N.N.N.N.N.N.N.N.N.N.N.N.N.N.N.N.N.N.N.N.N.N.N.N.N.N.N.N.N.N.N.N.N.N.N.N.N.N.N.",
"N.N.N.N.N.N.N.N.N.N.N.N.N.N.N.N.N.N.N.N.N.N.N.N.N.N.N.N.N.N.N.N.N.N.N.N.N.N.N.N.N.N.N.N.N.N.N.N.N.N.",
"N.N.N.N.N.N.N.N.N.N.N.N.N.N.N.N.N.N.N.N.N.N.N.N.N.N.N.N.N.N.N.N.N.N.N.N.N.N.N.N.N.N.N.N.N.N.N.N.N.N.",
"N.N.N.N.N.N.N.N.N.N.N.N.N.N.N.N.N.N.N.N.N.N.N.z.z.x.b.M.M.N.N.N.N.N.N.N.N.N.N.N.N.N.N.N.N.N.N.N.N.N.",
"N.N.N.N.N.N.N.N.N.N.N.N.N.N.N.N.N.N.N.N.N.} Q _ *.=.&.Q Y Y G Q  .e.N.N.N.N.N.N.N.N.N.N.N.N.N.N.N.N.",
"N.N.N.N.N.N.N.N.N.N.N.N.N.N.N.N.N.N.N.o.u y W _ Q i 6 & 6 6 6 6 6 y } z.N.N.N.N.N.N.N.N.N.N.N.N.N.N.",
"N.N.N.N.N.N.N.N.N.N.N.N.N.N.N.N.N.N...4 y Q ~ F i u F R ! ~ ^ E c i p } k.N.N.N.N.N.N.N.N.N.N.N.N.N.",
"N.N.N.N.N.N.N.N.N.N.N.N.N.N.N.N.N...2 q L D u e u e 3 3 $ $ 4 w H ^ W E $.b.N.N.N.N.N.N.N.N.N.N.N.N.",
"N.N.N.N.N.N.N.N.N.N.N.N.N.N.N.N.:.7 2 5 5 D 0 @ . X           . $ q U :.%.t.N.N.N.N.N.N.N.N.N.N.N.N.",
"N.N.N.N.N.N.N.N.N.N.N.N.N.N.N.b.Y 5 + 2 A 4 o - o X   X o o o     . 2 D :.N.N.N.N.N.N.N.N.N.N.N.N.N.",
"N.N.N.N.N.N.N.N.N.N.N.N.N.M.u.^ t + + t 8 < m l , o   X < z < X     . $ w  .N.N.N.N.N.N.N.N.N.N.N.N.",
"N.N.N.N.N.N.N.N.N.N.N.N.n.0.-.Y 0 . 7 f z >.,.B a o     o : - o - : X . 0 e *.N.N.N.N.N.N.N.N.N.N.N.",
"N.N.N.N.N.N.N.N.N.N.N.N.g.#.#.D + 2 g x >.>.>.s , O     X = = , x m < . + S G %.N.N.N.N.N.N.N.N.N.N.",
"N.N.N.N.N.N.N.N.N.N.N.N.{ n ^ q . 8 z m >.>.z = O O o   : s , s V V x ; . 3 P c N.N.N.N.N.N.N.N.N.N.",
"N.N.N.N.N.N.N.N.N.N.N.j.w +.Q 2 . d a x < d a X X X O O , z s , l M z ; + + A ~ n N.N.N.N.N.N.N.N.N.",
"N.N.N.N.N.N.N.N.N.N.N.g.4 #.H + . a d M : * , * X O , : 1 M x : , < z , X # $ { v N.N.N.N.N.N.N.N.N.",
"N.N.N.N.N.N.N.N.N.N.N.[ & #.F + O s z B O X : < X O , : l V l l : l ,.V o + @ G ` @.N.N.N.N.N.N.N.N.",
"N.N.N.N.N.N.N.N.N.N.N.] & #.D @ O l M B 1 X O < o O = < l V V ,.z V 3.>.a . 2 0 =.@.N.N.N.N.N.N.N.N.",
"N.N.N.N.N.N.N.N.N.N.N.{ & _ e 2 o 1 z x 1 o 1 l 1 :   = < m 9.9.8.8.3.x d . $ 5 =.%.N.N.N.N.N.N.N.N.",
"N.N.N.N.N.N.N.N.N.N.N.o.> W u 0 o : 1 s 1 1 z 1 : O X X < ,.8.2.s.s.4., b 4 @ r  .y.N.N.N.N.N.N.N.N.",
"N.N.N.N.N.N.N.N.N.N.N.g.6 E I 0 2 , x < o 1 s O X O = o s 6.p.p.f.f.2.o j r . A &.i.N.N.N.N.N.N.N.N.",
"N.N.N.N.N.N.N.N.N.N.N.v.u p { 0 t < V s X : : X   = < 1 Z 6.9.9.p.a.,.X J A . L =.N.N.N.N.N.N.N.N.N.",
"N.N.N.N.N.N.N.N.N.N.N.N.^ p ! F r f x V 1 O o X X X o s 2.,.M Z 5.8.C   I D @ P u.N.N.N.N.N.N.N.N.N.",
"N.N.N.N.N.N.N.N.N.N.N.N.q.p G H t j m x m : O , < , = m ,.l o s 3.3.B   ~ y 5 X.N.N.N.N.N.N.N.N.N.N.",
"N.N.N.N.N.N.N.N.N.N.N.N.x._ D e u y x M M z < x Z ,.,.,.V < * l 3.B z . P 4 A k.N.N.N.N.N.N.N.N.N.N.",
"N.N.N.N.N.N.N.N.N.N.N.N.N.*.! q 2 2 $ N 4.,.V >.5.6.9.8.3.m s M V d ; # Q $ | N.N.N.N.N.N.N.N.N.N.N.",
"N.N.N.N.N.N.N.N.N.N.N.N.N.w.R P 2 # 5 J <.3.m >.4.3.8.p.6.M m >.d f X 7 u y l.N.N.N.N.N.N.N.N.N.N.N.",
"N.N.N.N.N.N.N.N.N.N.N.N.N.N. .H K 2 o e ~ ( N V m 1 B V >.3.1.b H 4 + u w } N.N.N.N.N.N.N.N.N.N.N.N.",
"N.N.N.N.N.N.N.N.N.N.N.N.N.N.N. .D 0 @ . $ H ) / f 8 b <.7.1.g P t 4 2 u Q N.N.N.N.N.N.N.N.N.N.N.N.N.",
"N.N.N.N.N.N.N.N.N.N.N.N.N.N.N.M.:.G 4 + . . $ q u u h h y 4 t 5 0 r 6 T e.N.N.N.N.N.N.N.N.N.N.N.N.N.",
"N.N.N.N.N.N.N.N.N.N.N.N.N.N.N.N.q.o.} H t 5 2 $ # + + + $ $ $ D I $ y ;.N.N.N.N.N.N.N.N.N.N.N.N.N.N.",
"N.N.N.N.N.N.N.N.N.N.N.N.N.N.N.N.N.*.R u e u D t 0 2 2 2 4 e { U $ 9 =.N.N.N.N.N.N.N.N.N.N.N.N.N.N.N.",
"N.N.N.N.N.N.N.N.N.N.N.N.N.N.N.N.N.N.N.&.c 6 $ & 6 7 T ) o.o.R y R N.N.N.N.N.N.N.N.N.N.N.N.N.N.N.N.N.",
"N.N.N.N.N.N.N.N.N.N.N.N.N.N.N.N.N.N.N.N.N.N.w.w.r.b.m.u.-._ ` e.N.N.N.N.N.N.N.N.N.N.N.N.N.N.N.N.N.N.",
"N.N.N.N.N.N.N.N.N.N.N.N.N.N.N.N.N.N.N.N.N.N.N.N.N.N.N.N.N.N.N.N.N.N.N.N.N.N.N.N.N.N.N.N.N.N.N.N.N.N.",
"N.N.N.N.N.N.N.N.N.N.N.N.N.N.N.N.N.N.N.N.N.N.N.N.N.N.N.N.N.N.N.N.N.N.N.N.N.N.N.N.N.N.N.N.N.N.N.N.N.N.",
"N.N.N.N.N.N.N.N.N.N.N.N.N.N.N.N.N.N.N.N.N.N.N.N.N.N.N.N.N.N.N.N.N.N.N.N.N.N.N.N.N.N.N.N.N.N.N.N.N.N.",
"N.N.N.N.N.N.N.N.N.N.N.N.N.N.N.N.N.N.N.N.N.N.N.N.N.N.N.N.N.N.N.N.N.N.N.N.N.N.N.N.N.N.N.N.N.N.N.N.N.N.",
"N.N.N.N.N.N.N.N.N.N.N.N.N.N.N.N.N.N.N.N.N.N.N.N.N.N.N.N.N.N.N.N.N.N.N.N.N.N.N.N.N.N.N.N.N.N.N.N.N.N.",
"N.N.N.N.N.N.N.N.N.N.N.N.N.N.N.N.N.N.N.N.N.N.N.N.N.N.N.N.N.N.N.N.N.N.N.N.N.N.N.N.N.N.N.N.N.N.N.N.N.N.",
"N.N.N.N.N.N.N.N.N.N.N.N.N.N.N.N.N.N.N.N.N.N.N.N.N.N.N.N.N.N.N.N.N.N.N.N.N.N.N.N.N.N.N.N.N.N.N.N.N.N.",
"N.N.N.N.N.N.N.N.N.N.N.N.N.N.N.N.N.N.N.N.N.N.N.N.N.N.N.N.N.N.N.N.N.N.N.N.N.N.N.N.N.N.N.N.N.N.N.N.N.N."
};
